{
.appVersion = "1119";
copyright = "Copyright 2011 The Metrophobic Project Authors (https://github.com/googlefonts/MetrophobicFont), with Reserved Font Name 'Metrophobic'.";
customParameters = (
{
name = licenseURL;
value = "http://scripts.sil.org/OFL";
},
{
name = vendorID;
value = newt;
},
{
name = license;
value = "This Font Software is licensed under the SIL Open Font License, Version 1.1. This license is available with a FAQ at: http://scripts.sil.org/OFL";
},
{
name = fsType;
value = (
);
},
{
name = "Disable Last Change";
value = 1;
},
{
name = "Use Line Breaks";
value = 1;
},
{
name = "Use Typo Metrics";
value = 1;
}
);
date = "2018-01-09 15:50:05 +0000";
designer = "Vernon Adams";
designerURL = "http://www.sansoxygen.com";
disablesNiceNames = 1;
familyName = Metrophobic;
featurePrefixes = (
{
automatic = 1;
code = "languagesystem DFLT dflt;
languagesystem latn dflt;
languagesystem latn CAT;
languagesystem latn ROM;
languagesystem latn MOL;
languagesystem latn KAZ;
languagesystem latn TAT;
languagesystem latn TRK;
languagesystem latn CRT;
languagesystem latn AZE;
";
name = Languagesystems;
}
);
features = (
{
automatic = 1;
code = "feature ccmp;
feature locl;
feature sups;
feature frac;
feature ordn;
";
name = aalt;
},
{
automatic = 1;
code = "lookup ccmp_Other_1 {
	@CombiningTopAccents = [acutecomb brevecomb breveinvertedcomb caroncomb circumflexcomb commaturnedabovecomb dblgravecomb dieresiscomb dotaccentcomb gravecomb hookabovecomb hungarumlautcomb macroncomb ringcomb tildecomb];
	@CombiningNonTopAccents = [brevebelowcomb cedillacomb dieresisbelowcomb dotbelowcomb macronbelowcomb ogonekcomb horncomb slashlongcomb strokeshortcomb];
	sub [i j]' @CombiningTopAccents by [idotless jdotless];
	sub [i j]' @CombiningNonTopAccents @CombiningTopAccents by [idotless jdotless];
} ccmp_Other_1;

lookup ccmp_latn_1 {
	script latn;
	lookupflag 0;
	sub brevecomb acutecomb by brevecomb_acutecomb;
	sub brevecomb gravecomb by brevecomb_gravecomb;

glyphs = (
{
glyphname = A;
layers = (
{
anchors = (
{
name = bottom;
position = "{678, 0}";
},
{
name = ogonek;
position = "{1327, 0}";
},
{
name = top;
position = "{678, 1441}";
}
);
layerId = "2F8B9CD4-7B7F-4ACC-ADF3-B6E0F7033A19";
paths = (
{
closed = 1;
nodes = (
"212 0 LINE",
"348 361 LINE",
"1018 361 LINE",
"1155 0 LINE",
"1331 0 LINE",
"780 1441 LINE",
"579 1441 LINE",
"35 0 LINE"
);
},
{
closed = 1;
nodes = (
"680 1294 LINE",
"970 502 LINE",
"395 502 LINE"
);
}
);
width = 1366;
}
);
leftKerningGroup = A;
note = A;
rightKerningGroup = A;
unicode = 0041;
},
{
glyphname = AE;
layers = (
{
anchors = (
{
name = bottom;
position = "{1141, 0}";
},
{
name = ogonek;
position = "{1980, 0}";
},
{
name = top;
position = "{1219, 1441}";
},
{
name = topleft;
position = "{1977, 1441}";
}
);
background = {
paths = (
{
closed = 1;
nodes = (
"258 368 LINE",
"81 0 LINE",
"-102 0 LINE",
"585 1441 LINE",
"1535 1441 LINE",
"1535 1289 LINE",
"904 1289 LINE",
"1081 152 LINE",
"1683 152 LINE",
"1683 0 LINE",
"918 0 LINE",
"720 1286 LINE",
"686 1286 LINE",
"318 509 LINE",
"930 509 LINE",
"930 368 LINE"
);
},
{
closed = 1;
nodes = (
"1570 821 LINE",
"1570 671 LINE",
"930 671 LINE",
"930 821 LINE"
);
}
);
};
layerId = "2F8B9CD4-7B7F-4ACC-ADF3-B6E0F7033A19";
paths = (
{
closed = 1;
nodes = (
"207 0 LINE",
"1126 1253 LINE",
"1077 1262 LINE",
"1077 0 LINE",
"1980 0 LINE",
"1980 152 LINE",
"1251 152 LINE",
"1251 677 LINE",
"1859 677 LINE",
"1859 827 LINE",
"1251 827 LINE",
"1251 1289 LINE",
"1977 1289 LINE",
"1977 1441 LINE",
"1077 1441 LINE",
"10 0 LINE"
);
},
{
closed = 1;
nodes = (
"1149 361 LINE",
"1122 502 LINE",
"430 502 LINE",
"383 361 LINE"
);
}
);
width = 2090;
}
);
leftKerningGroup = AE;
note = AE;
rightKerningGroup = E;
rightMetricsKey = "=E";
unicode = 00C6;
},
{
glyphname = B;
layers = (
{
anchors = (
{
name = bottom;
position = "{705, 0}";
},
{
name = top;
position = "{665, 1441}";
}
);
background = {
paths = (
{
closed = 1;
nodes = (
"945 1294 OFFCURVE",
"1039 1276 OFFCURVE",
"1039 1079 CURVE SMOOTH",
"1039 898 OFFCURVE",
"938 833 OFFCURVE",
"732 833 CURVE SMOOTH",
"390 833 LINE",
"390 1294 LINE",
"720 1294 LINE SMOOTH"
);
},
{
closed = 1;
nodes = (
"986 691 OFFCURVE",
"1091 625 OFFCURVE",
"1091 410 CURVE SMOOTH",
"1091 189 OFFCURVE",
"999 146 OFFCURVE",
"777 146 CURVE SMOOTH",
"390 146 LINE",
"390 691 LINE",
"752 691 LINE SMOOTH"
);
},
{
closed = 1;
nodes = (
"806 0 LINE SMOOTH",
"910 0 OFFCURVE",
"977 10 OFFCURVE",
"1034 27 CURVE SMOOTH",
"1201 77 OFFCURVE",
"1269 220 OFFCURVE",
"1269 407 CURVE SMOOTH",
"1269 634 OFFCURVE",
"1184 737 OFFCURVE",
"967 770 CURVE",
"1127 810 OFFCURVE",
"1198 898 OFFCURVE",
"1198 1072 CURVE SMOOTH",
"1198 1313 OFFCURVE",
"1091 1441 OFFCURVE",
"840 1441 CURVE SMOOTH",
"220 1441 LINE",
"220 0 LINE"
);
}
);
};
layerId = "2F8B9CD4-7B7F-4ACC-ADF3-B6E0F7033A19";
paths = (
{
closed = 1;
nodes = (
"778 0 LINE SMOOTH",
"1121 0 OFFCURVE",
"1269 130 OFFCURVE",
"1269 411 CURVE SMOOTH",
"1269 632 OFFCURVE",
"1160 750 OFFCURVE",
"929 775 CURVE",
"932 762 LINE",
"1124 799 OFFCURVE",
"1198 888 OFFCURVE",
"1198 1078 CURVE SMOOTH",
"1198 1354 OFFCURVE",
"1083 1441 OFFCURVE",
"719 1441 CURVE SMOOTH",
"220 1441 LINE",
"220 0 LINE"
);
},
{
closed = 1;
nodes = (
"390 691 LINE",
"752 691 LINE SMOOTH",
"996 691 OFFCURVE",
"1091 612 OFFCURVE",
"1091 410 CURVE SMOOTH",
"1091 209 OFFCURVE",
"1016 146 OFFCURVE",
"777 146 CURVE SMOOTH",
"390 146 LINE"
);
},
{
closed = 1;
nodes = (
"390 1294 LINE",
"720 1294 LINE SMOOTH",
"962 1294 OFFCURVE",
"1039 1242 OFFCURVE",
"1039 1079 CURVE SMOOTH",
"1039 902 OFFCURVE",
"959 833 OFFCURVE",
"752 833 CURVE SMOOTH",
"390 833 LINE"
);
}
);
width = 1389;
}
);
leftKerningGroup = H;
leftMetricsKey = "=H";
note = B;
rightKerningGroup = B;
unicode = 0042;
},
{
glyphname = C;
layers = (
{
anchors = (
{
name = bottom;
position = "{770, -20}";
},
{
name = top;
position = "{761, 1441}";
}
);
background = {
paths = (
{
closed = 1;
nodes = (
"1158 263 OFFCURVE",
"1129 217 OFFCURVE",
"1056 169 CURVE SMOOTH",
"977 117 OFFCURVE",
"892 110 OFFCURVE",
"763 110 CURVE SMOOTH",
"678 110 OFFCURVE",
"606 129 OFFCURVE",
"548 151 CURVE SMOOTH",
"430 196 OFFCURVE",
"381 258 OFFCURVE",
"345 380 CURVE SMOOTH",
"322 457 OFFCURVE",
"305 566 OFFCURVE",
"305 714 CURVE SMOOTH",
"305 863 OFFCURVE",
"324 975 OFFCURVE",
"349 1055 CURVE SMOOTH",
"386 1174 OFFCURVE",
"439 1237 OFFCURVE",
"549 1282 CURVE SMOOTH",
"604 1305 OFFCURVE",
"698 1322 OFFCURVE",
"794 1322 CURVE SMOOTH",
"895 1322 OFFCURVE",
"978 1315 OFFCURVE",
"1056 1264 CURVE SMOOTH",
"1129 1216 OFFCURVE",
"1158 1170 OFFCURVE",
"1171 1033 CURVE",
"1340 1033 LINE",
"1342 1183 OFFCURVE",
"1281 1284 OFFCURVE",
"1202 1351 CURVE SMOOTH",
"1095 1442 OFFCURVE",
"924 1472 OFFCURVE",
"771 1472 CURVE SMOOTH",
"639 1472 OFFCURVE",
"533 1444 OFFCURVE",
"453 1408 CURVE SMOOTH",
"314 1344 OFFCURVE",
"238 1256 OFFCURVE",
"183 1097 CURVE SMOOTH",
"150 1002 OFFCURVE",
"125 872 OFFCURVE",
"125 699 CURVE SMOOTH",
"125 559 OFFCURVE",
"146 436 OFFCURVE",
"179 337 CURVE SMOOTH",
"230 178 OFFCURVE",
"305 84 OFFCURVE",
"458 20 CURVE SMOOTH",
"534 -13 OFFCURVE",
"638 -39 OFFCURVE",
"770 -39 CURVE SMOOTH",
"924 -39 OFFCURVE",
"1099 -6 OFFCURVE",
"1202 82 CURVE SMOOTH",
"1280 149 OFFCURVE",
"1342 250 OFFCURVE",
"1340 400 CURVE",
"1171 400 LINE"
);
}
);
};
layerId = "2F8B9CD4-7B7F-4ACC-ADF3-B6E0F7033A19";
paths = (
{
closed = 1;
nodes = (
"1139 -39 OFFCURVE",
"1344 119 OFFCURVE",
"1340 400 CURVE",
"1171 400 LINE",
"1171 214 OFFCURVE",
"1024 110 OFFCURVE",
"763 110 CURVE SMOOTH",
"433 110 OFFCURVE",
"305 279 OFFCURVE",
"305 714 CURVE SMOOTH",
"305 1152 OFFCURVE",
"442 1322 OFFCURVE",
"794 1322 CURVE SMOOTH",
"1035 1322 OFFCURVE",
"1171 1218 OFFCURVE",
"1171 1033 CURVE",
"1340 1033 LINE",
"1344 1314 OFFCURVE",
"1147 1472 OFFCURVE",
"794 1472 CURVE SMOOTH",
"339 1472 OFFCURVE",
"125 1225 OFFCURVE",
"125 709 CURVE SMOOTH",
"125 200 OFFCURVE",
"331 -39 OFFCURVE",
"770 -39 CURVE SMOOTH"
);
}
);
width = 1450;
}
);
leftKerningGroup = O;
leftMetricsKey = "=O";
note = C;
rightKerningGroup = C;
unicode = 0043;
},
{
glyphname = D;
layers = (
{
anchors = (
{
name = bottom;
position = "{719, 0}";
},
{
name = center;
position = "{433, 721}";
},
{
name = top;
position = "{709, 1441}";
}
);
background = {
paths = (
{
closed = 1;
nodes = (
"872 0 OFFCURVE",
"1055 45 OFFCURVE",
"1166 140 CURVE SMOOTH",
"1312 265 OFFCURVE",
"1362 496 OFFCURVE",
"1362 727 CURVE SMOOTH",
"1362 945 OFFCURVE",
"1318 1159 OFFCURVE",
"1170 1292 CURVE SMOOTH",
"1050 1400 OFFCURVE",
"877 1441 OFFCURVE",
"698 1441 CURVE SMOOTH",
"220 1441 LINE",
"220 0 LINE",
"694 0 LINE SMOOTH"
);
},
{
closed = 1;
nodes = (
"924 1289 OFFCURVE",
"1086 1231 OFFCURVE",
"1144 1033 CURVE SMOOTH",
"1165 961 OFFCURVE",
"1183 862 OFFCURVE",
"1183 723 CURVE SMOOTH",
"1183 579 OFFCURVE",
"1165 477 OFFCURVE",
"1142 405 CURVE SMOOTH",
"1119 333 OFFCURVE",
"1091 295 OFFCURVE",
"1069 271 CURVE SMOOTH",
"993 188 OFFCURVE",
"838 152 OFFCURVE",
"701 152 CURVE SMOOTH",
"394 152 LINE",
"394 1289 LINE",
"683 1289 LINE SMOOTH"
);
}
);
};
layerId = "2F8B9CD4-7B7F-4ACC-ADF3-B6E0F7033A19";
paths = (
{
closed = 1;
nodes = (
"694 0 LINE SMOOTH",
"1148 0 OFFCURVE",
"1362 233 OFFCURVE",
"1362 727 CURVE SMOOTH",
"1362 1213 OFFCURVE",
"1150 1441 OFFCURVE",
"698 1441 CURVE SMOOTH",
"220 1441 LINE",
"220 0 LINE"
);
},
{
closed = 1;
nodes = (
"394 1289 LINE",
"683 1289 LINE SMOOTH",
"1063 1289 OFFCURVE",
"1183 1153 OFFCURVE",
"1183 723 CURVE SMOOTH",
"1183 312 OFFCURVE",
"1048 152 OFFCURVE",
"701 152 CURVE SMOOTH",
"394 152 LINE"
);
}
);
width = 1487;
}
);
leftKerningGroup = H;
leftMetricsKey = "=H";
note = D;
rightKerningGroup = O;
rightMetricsKey = "=O";
unicode = 0044;
},
{
glyphname = Eth;
layers = (
{
components = (
{
name = D;
}
);
layerId = "2F8B9CD4-7B7F-4ACC-ADF3-B6E0F7033A19";
paths = (
{
closed = 1;
nodes = (
"643 657 LINE",
"643 810 LINE",
"43 810 LINE",
"43 657 LINE"
);
}
);
width = 1487;
}
);
leftKerningGroup = H;
note = Eth;
rightKerningGroup = O;
rightMetricsKey = "=D";
unicode = 00D0;
},
{
glyphname = E;
layers = (
{
anchors = (
{
name = bottom;
position = "{706, 0}";
},
{
name = ogonek;
position = "{1183, 0}";
},
{
name = top;
position = "{706, 1441}";
},
{
name = topleft;
position = "{78, 1441}";
}
);
layerId = "2F8B9CD4-7B7F-4ACC-ADF3-B6E0F7033A19";
paths = (
{
closed = 1;
nodes = (
"1183 0 LINE",
"1183 152 LINE",
"394 152 LINE",
"394 677 LINE",
"1062 677 LINE",
"1062 827 LINE",
"394 827 LINE",
"394 1289 LINE",
"1180 1289 LINE",
"1180 1441 LINE",
"220 1441 LINE",
"220 0 LINE"
);
}
);
width = 1293;
}
);
leftKerningGroup = H;
leftMetricsKey = "=H";
note = E;
rightKerningGroup = E;
unicode = 0045;
},
{
glyphname = F;
layers = (
{
anchors = (
{
name = bottom;
position = "{596, 0}";
},
{
name = top;
position = "{596, 1441}";
}
);
layerId = "2F8B9CD4-7B7F-4ACC-ADF3-B6E0F7033A19";
paths = (
{
closed = 1;
nodes = (
"394 0 LINE",
"394 677 LINE",
"1055 677 LINE",
"1055 827 LINE",
"394 827 LINE",
"394 1289 LINE",
"1180 1289 LINE",
"1180 1441 LINE",
"220 1441 LINE",
"220 0 LINE"
);
}
);
width = 1230;
}
);
leftKerningGroup = H;
leftMetricsKey = "=H";
note = F;
rightKerningGroup = F;
unicode = 0046;
},
{
glyphname = G;
layers = (
{
anchors = (
{
name = bottom;
position = "{748, 0}";
},
{
name = top;
position = "{748, 1441}";
}
);
background = {
paths = (
{
closed = 1;
nodes = (
"125 872 OFFCURVE",
"150 1002 OFFCURVE",
"183 1097 CURVE SMOOTH",
"238 1256 OFFCURVE",
"314 1344 OFFCURVE",
"453 1408 CURVE SMOOTH",
"533 1444 OFFCURVE",
"639 1472 OFFCURVE",
"771 1472 CURVE SMOOTH",
"924 1472 OFFCURVE",
"1095 1442 OFFCURVE",
"1202 1351 CURVE SMOOTH",
"1280 1284 OFFCURVE",
"1342 1183 OFFCURVE",
"1340 1033 CURVE",
"1171 1033 LINE",
"1158 1170 OFFCURVE",
"1129 1216 OFFCURVE",
"1056 1264 CURVE SMOOTH",
"978 1315 OFFCURVE",
"895 1322 OFFCURVE",
"774 1322 CURVE SMOOTH",
"678 1322 OFFCURVE",
"604 1305 OFFCURVE",
"549 1282 CURVE SMOOTH",
"439 1237 OFFCURVE",
"386 1174 OFFCURVE",
"349 1055 CURVE SMOOTH",
"324 975 OFFCURVE",
"305 863 OFFCURVE",
"305 714 CURVE SMOOTH",
"305 566 OFFCURVE",
"322 457 OFFCURVE",
"345 380 CURVE SMOOTH",
"381 258 OFFCURVE",
"430 196 OFFCURVE",
"548 151 CURVE SMOOTH",
"608 128 OFFCURVE",
"682 110 OFFCURVE",
"770 110 CURVE SMOOTH",
"859 110 OFFCURVE",
"955 132 OFFCURVE",
"1021 166 CURVE SMOOTH",
"1142 229 OFFCURVE",
"1177 334 OFFCURVE",
"1177 465 CURVE SMOOTH",
"1177 544 LINE",
"740 544 LINE",
"740 704 LINE",
"1351 704 LINE",
"1351 -10 LINE",
"1227 -10 LINE",
"1210 193 LINE",
"1146 71 OFFCURVE",
"1082 16 OFFCURVE",
"935 -24 CURVE SMOOTH",
"888 -37 OFFCURVE",
"832 -39 OFFCURVE",
"770 -39 CURVE SMOOTH",
"638 -39 OFFCURVE",
"534 -13 OFFCURVE",
"458 20 CURVE SMOOTH",
"305 84 OFFCURVE",
"230 178 OFFCURVE",
"179 337 CURVE SMOOTH",
"146 436 OFFCURVE",
"125 559 OFFCURVE",
"125 699 CURVE SMOOTH"
);
}
);
};
layerId = "2F8B9CD4-7B7F-4ACC-ADF3-B6E0F7033A19";
paths = (
{
closed = 1;
nodes = (
"996 -39 OFFCURVE",
"1142 45 OFFCURVE",
"1225 224 CURVE",
"1206 238 LINE",
"1227 -10 LINE",
"1351 -10 LINE",
"1351 704 LINE",
"740 704 LINE",
"740 544 LINE",
"1177 544 LINE",
"1177 465 LINE SMOOTH",
"1177 238 OFFCURVE",
"1030 110 OFFCURVE",
"770 110 CURVE SMOOTH",
"405 110 OFFCURVE",
"305 323 OFFCURVE",
"305 714 CURVE SMOOTH",
"305 1127 OFFCURVE",
"455 1322 OFFCURVE",
"774 1322 CURVE SMOOTH",
"1028 1322 OFFCURVE",
"1171 1218 OFFCURVE",
"1171 1033 CURVE",
"1340 1033 LINE",
"1344 1314 OFFCURVE",
"1139 1472 OFFCURVE",
"771 1472 CURVE SMOOTH",
"332 1472 OFFCURVE",
"125 1228 OFFCURVE",
"125 708 CURVE SMOOTH",
"125 197 OFFCURVE",
"331 -39 OFFCURVE",
"770 -39 CURVE SMOOTH"
);
}
);
width = 1526;
}
);
leftKerningGroup = O;
leftMetricsKey = "=O";
note = G;
rightKerningGroup = G;
unicode = 0047;
},
{
glyphname = H;
layers = (
{
anchors = (
{
name = bottom;
position = "{795, 0}";
},
{
name = center;
position = "{795, 721}";
},
{
name = top;
position = "{795, 1441}";
},
{
name = topleft;
position = "{53, 1441}";
}
);
layerId = "2F8B9CD4-7B7F-4ACC-ADF3-B6E0F7033A19";
paths = (
{
closed = 1;
nodes = (
"394 0 LINE",
"393 677 LINE",
"1195 677 LINE",
"1196 0 LINE",
"1370 0 LINE",
"1370 1441 LINE",
"1196 1441 LINE",
"1196 829 LINE",
"394 829 LINE",
"394 1441 LINE",
"220 1441 LINE",
"220 0 LINE"
);
}
);
width = 1590;
}
);
leftKerningGroup = H;
note = H;
rightKerningGroup = H;
unicode = 0048;
},
{
glyphname = Hbar;
layers = (
{
components = (
{
name = H;
}
);
layerId = "2F8B9CD4-7B7F-4ACC-ADF3-B6E0F7033A19";
paths = (
{
closed = 1;
nodes = (
"1528 1088 LINE",
"1528 1234 LINE",
"62 1234 LINE",
"62 1088 LINE"
);
}
);
width = 1590;
}
);
leftKerningGroup = H;
rightKerningGroup = H;
unicode = 0126;
},
{
glyphname = I;
layers = (
{
anchors = (
{
name = bottom;
position = "{496, 0}";
},
{
name = ogonek;
position = "{785, 0}";
},
{
name = top;
position = "{496, 1441}";
},
{
name = topleft;
position = "{145, 1441}";
}
);
layerId = "2F8B9CD4-7B7F-4ACC-ADF3-B6E0F7033A19";
paths = (
{
closed = 1;
nodes = (
"785 0 LINE",
"785 147 LINE",
"585 147 LINE",
"585 1294 LINE",
"792 1294 LINE",
"792 1441 LINE",
"200 1441 LINE",
"200 1294 LINE",
"411 1294 LINE",
"411 147 LINE",
"211 147 LINE",
"211 0 LINE"
);
}
);
width = 992;
}
);
leftKerningGroup = I;
note = I;
rightKerningGroup = I;
unicode = 0049;
},
{
glyphname = J;
layers = (
{
anchors = (
{
name = bottom;
position = "{409, -42}";
},
{
name = top;
position = "{652, 1441}";
}
);
background = {
paths = (
{
closed = 1;
nodes = (
"564 191 OFFCURVE",
"561 95 OFFCURVE",
"410 95 CURVE SMOOTH",
"283 95 OFFCURVE",
"243 147 OFFCURVE",
"241 275 CURVE",
"81 275 LINE",
"81 266 OFFCURVE",
"80 258 OFFCURVE",
"80 250 CURVE SMOOTH",
"80 56 OFFCURVE",
"205 -42 OFFCURVE",
"409 -42 CURVE SMOOTH",
"652 -42 OFFCURVE",
"738 96 OFFCURVE",
"738 348 CURVE SMOOTH",
"738 1441 LINE",
"564 1441 LINE",
"564 396 LINE SMOOTH"
);
}
);
};
guideLines = (
{
position = "{321, -45}";
}
);
layerId = "2F8B9CD4-7B7F-4ACC-ADF3-B6E0F7033A19";
paths = (
{
closed = 1;
nodes = (
"623 -42 OFFCURVE",
"738 73 OFFCURVE",
"738 318 CURVE SMOOTH",
"738 1441 LINE",
"564 1441 LINE",
"564 316 LINE SMOOTH",
"564 175 OFFCURVE",
"515 95 OFFCURVE",
"400 95 CURVE SMOOTH",
"294 95 OFFCURVE",
"243 148 OFFCURVE",
"241 275 CURVE",
"81 275 LINE",
"80 250 LINE SMOOTH",
"80 51 OFFCURVE",
"185 -42 OFFCURVE",
"402 -42 CURVE SMOOTH"
);
}
);
width = 948;
}
);
leftKerningGroup = J;
note = J;
rightKerningGroup = U;
rightMetricsKey = "=U";
unicode = 004A;
},
{
glyphname = K;
layers = (
{
anchors = (
{
name = bottom;
position = "{732, 50}";
},
{
name = top;
position = "{686, 1391}";
}
);
background = {
paths = (
{
closed = 1;
nodes = (
"391 791 LINE",
"391 1441 LINE",
"220 1441 LINE",
"220 0 LINE",
"391 0 LINE",
"391 638 LINE",
"519 638 LINE SMOOTH",
"715 638 OFFCURVE",
"849 602 OFFCURVE",
"932 384 CURVE SMOOTH",
"1078 0 LINE",
"1252 -2 LINE",
"1105 372 LINE SMOOTH",
"1020 589 OFFCURVE",
"982 703 OFFCURVE",
"609 745 CURVE",
"609 695 LINE",
"996 751 OFFCURVE",
"1046 879 OFFCURVE",
"1107 1094 CURVE SMOOTH",
"1205 1442 LINE",
"1031 1440 LINE",
"928 1081 LINE SMOOTH",
"875 894 OFFCURVE",
"707 791 OFFCURVE",
"519 791 CURVE SMOOTH"
);
}
);
};
guideLines = (
{
position = "{690, 835}";
},
{
position = "{740, 695}";
}
);
layerId = "2F8B9CD4-7B7F-4ACC-ADF3-B6E0F7033A19";
paths = (
{
closed = 1;
nodes = (
"1115 372 LINE SMOOTH",
"983 623 OFFCURVE",
"902 711 OFFCURVE",
"609 745 CURVE",
"609 695 LINE",
"930 741 OFFCURVE",
"994 839 OFFCURVE",
"1117 1094 CURVE SMOOTH",
"1285 1442 LINE",
"1091 1440 LINE",
"918 1081 LINE SMOOTH",
"822 881 OFFCURVE",
"750 791 OFFCURVE",
"509 791 CURVE SMOOTH",
"391 791 LINE",
"391 1441 LINE",
"220 1441 LINE",
"220 0 LINE",
"391 0 LINE",
"391 638 LINE",
"509 638 LINE SMOOTH",
"762 638 OFFCURVE",
"824 577 OFFCURVE",
"922 384 CURVE SMOOTH",
"1118 0 LINE",
"1312 -2 LINE"
);
}
);
width = 1392;
}
);
leftKerningGroup = H;
leftMetricsKey = "=H";
note = K;
rightKerningGroup = K;
unicode = 004B;
},
{
glyphname = L;
layers = (
{
anchors = (
{
name = bottom;
position = "{679, 0}";
},
{
name = center;
position = "{793, 811}";
},
{
name = top;
position = "{324, 1441}";
},
{
name = topright;
position = "{498, 981}";
}
);
layerId = "2F8B9CD4-7B7F-4ACC-ADF3-B6E0F7033A19";
paths = (
{
closed = 1;
nodes = (
"1069 0 LINE",
"1069 147 LINE",
"394 147 LINE",
"394 1441 LINE",
"220 1441 LINE",
"220 0 LINE"
);
}
);
width = 1109;
}
);
leftKerningGroup = H;
leftMetricsKey = "=H";
note = L;
rightKerningGroup = L;
unicode = 004C;
},
{
glyphname = Lslash;
layers = (
{
components = (
{
name = L;
}
);
layerId = "2F8B9CD4-7B7F-4ACC-ADF3-B6E0F7033A19";
paths = (
{
closed = 1;
nodes = (
"762 873 LINE",
"762 1037 LINE",
"0 541 LINE",
"-4 375 LINE"
);
}
);
width = 1109;
}
);
leftKerningGroup = H;
note = Lslash;
rightKerningGroup = L;
unicode = 0141;
},
{
glyphname = M;
layers = (
{
anchors = (
{
name = bottom;
position = "{940, 0}";
},
{
name = top;
position = "{940, 1441}";
}
);
layerId = "2F8B9CD4-7B7F-4ACC-ADF3-B6E0F7033A19";
paths = (
{
closed = 1;
nodes = (
"376 0 LINE",
"376 1286 LINE",
"412 1286 LINE",
"828 174 LINE",
"1059 174 LINE",
"1478 1286 LINE",
"1514 1286 LINE",
"1514 0 LINE",
"1670 0 LINE",
"1670 1441 LINE",
"1373 1441 LINE",
"961 346 LINE",
"926 346 LINE",
"516 1441 LINE",
"220 1441 LINE",
"220 0 LINE"
);
}
);
width = 1890;
}
);
leftKerningGroup = H;
leftMetricsKey = "=H";
note = M;
rightKerningGroup = H;
rightMetricsKey = "=H";
unicode = 004D;
},
{
glyphname = N;
layers = (
{
anchors = (
{
name = bottom;
position = "{787, 10}";
},
{
name = top;
position = "{917, 1421}";
}
);
layerId = "2F8B9CD4-7B7F-4ACC-ADF3-B6E0F7033A19";
paths = (
{
closed = 1;
nodes = (
"376 0 LINE",
"366 1285 LINE",
"399 1285 LINE",
"1204 0 LINE",
"1462 0 LINE",
"1462 1441 LINE",
"1306 1441 LINE",
"1306 173 LINE",
"1274 173 LINE",
"484 1441 LINE",
"220 1441 LINE",
"220 0 LINE"
);
}
);
width = 1682;
}
);
leftKerningGroup = H;
leftMetricsKey = "=H";
note = N;
rightKerningGroup = H;
rightMetricsKey = "=H";
unicode = 004E;
},
{
glyphname = Eng;
layers = (
{
anchors = (
{
name = bottom;
position = "{837, 0}";
},
{
name = top;
position = "{837, 1441}";
}
);
background = {
paths = (
{
closed = 1;
nodes = (
"1306 1441 LINE",
"1306 128 LINE",
"1351 173 LINE",
"1274 173 LINE",
"484 1441 LINE",
"220 1441 LINE",
"220 0 LINE",
"376 0 LINE",
"366 1285 LINE",
"399 1285 LINE",
"1204 0 LINE",
"1307 0 LINE",
"1307 -108 LINE SMOOTH",
"1307 -167 OFFCURVE",
"1303 -215 OFFCURVE",
"1274 -240 CURVE SMOOTH",
"1247 -263 OFFCURVE",
"1201 -266 OFFCURVE",
"1143 -266 CURVE SMOOTH",
"1103 -266 OFFCURVE",
"1083 -265 OFFCURVE",
"1037 -255 CURVE",
"1037 -388 LINE",
"1069 -396 OFFCURVE",
"1103 -402 OFFCURVE",
"1163 -402 CURVE SMOOTH",
"1256 -402 OFFCURVE",
"1328 -383 OFFCURVE",
"1368 -358 CURVE SMOOTH",
"1423 -324 OFFCURVE",
"1461 -268 OFFCURVE",
"1461 -87 CURVE SMOOTH",
"1461 0 LINE",
"1462 0 LINE",
"1462 1441 LINE"
);
}
);
};
layerId = "2F8B9CD4-7B7F-4ACC-ADF3-B6E0F7033A19";
paths = (
{
closed = 1;
nodes = (
"1389 -402 OFFCURVE",
"1461 -326 OFFCURVE",
"1461 -87 CURVE SMOOTH",
"1461 0 LINE",
"1462 0 LINE",
"1462 1441 LINE",
"1306 1441 LINE",
"1306 128 LINE",
"1351 173 LINE",
"1274 173 LINE",
"484 1441 LINE",
"220 1441 LINE",
"220 0 LINE",
"376 0 LINE",
"366 1285 LINE",
"399 1285 LINE",
"1204 0 LINE",
"1307 0 LINE",
"1307 -108 LINE SMOOTH",
"1307 -222 OFFCURVE",
"1261 -266 OFFCURVE",
"1143 -266 CURVE SMOOTH",
"1103 -266 OFFCURVE",
"1083 -265 OFFCURVE",
"1037 -255 CURVE",
"1037 -388 LINE",
"1069 -396 OFFCURVE",
"1103 -402 OFFCURVE",
"1163 -402 CURVE SMOOTH"
);
}
);
width = 1506;
}
);
leftKerningGroup = H;
rightKerningGroup = H;
unicode = 014A;
},
{
glyphname = O;
layers = (
{
anchors = (
{
name = bottom;
position = "{775, 0}";
},
{
name = center;
position = "{775, 721}";
},
{
name = ogonek;
position = "{855, -18}";
},
{
name = top;
position = "{775, 1441}";
},
{
name = topleft;
position = "{24, 1441}";
},
{
name = topright;
position = "{1108, 1409}";
}
);
background = {
paths = (
{
closed = 1;
nodes = (
"876 1323 OFFCURVE",
"957 1306 OFFCURVE",
"1018 1281 CURVE SMOOTH",
"1206 1203 OFFCURVE",
"1245 1010 OFFCURVE",
"1245 729 CURVE SMOOTH",
"1245 438 OFFCURVE",
"1210 236 OFFCURVE",
"1021 157 CURVE SMOOTH",
"961 132 OFFCURVE",
"873 110 OFFCURVE",
"775 110 CURVE SMOOTH",
"677 110 OFFCURVE",
"588 132 OFFCURVE",
"527 157 CURVE SMOOTH",
"342 232 OFFCURVE",
"304 430 OFFCURVE",
"304 721 CURVE SMOOTH",
"304 1007 OFFCURVE",
"342 1203 OFFCURVE",
"532 1281 CURVE SMOOTH",
"593 1306 OFFCURVE",
"675 1323 OFFCURVE",
"775 1323 CURVE SMOOTH"
);
},
{
closed = 1;
nodes = (
"125 230 OFFCURVE",
"288 -38 OFFCURVE",
"775 -38 CURVE SMOOTH",
"1262 -38 OFFCURVE",
"1424 230 OFFCURVE",
"1424 728 CURVE SMOOTH",
"1424 1060 OFFCURVE",
"1356 1295 OFFCURVE",
"1108 1409 CURVE SMOOTH",
"1027 1444 OFFCURVE",
"919 1472 OFFCURVE",
"775 1472 CURVE SMOOTH",
"633 1472 OFFCURVE",
"522 1445 OFFCURVE",
"442 1409 CURVE SMOOTH",
"194 1299 OFFCURVE",
"125 1060 OFFCURVE",
"125 727 CURVE SMOOTH"
);
}
);
};
layerId = "2F8B9CD4-7B7F-4ACC-ADF3-B6E0F7033A19";
paths = (
{
closed = 1;
nodes = (
"1262 -38 OFFCURVE",
"1424 230 OFFCURVE",
"1424 728 CURVE SMOOTH",
"1424 1215 OFFCURVE",
"1251 1472 OFFCURVE",
"775 1472 CURVE SMOOTH",
"300 1472 OFFCURVE",
"125 1218 OFFCURVE",
"125 727 CURVE SMOOTH",
"125 230 OFFCURVE",
"288 -38 OFFCURVE",
"775 -38 CURVE SMOOTH"
);
},
{
closed = 1;
nodes = (
"391 110 OFFCURVE",
"304 316 OFFCURVE",
"304 721 CURVE SMOOTH",
"304 1122 OFFCURVE",
"389 1323 OFFCURVE",
"775 1323 CURVE SMOOTH",
"1155 1323 OFFCURVE",
"1245 1128 OFFCURVE",
"1245 729 CURVE SMOOTH",
"1245 325 OFFCURVE",
"1162 110 OFFCURVE",
"775 110 CURVE SMOOTH"
);
}
);
width = 1549;
}
);
leftKerningGroup = O;
note = O;
rightKerningGroup = O;
unicode = 004F;
},
{
glyphname = OE;
layers = (
{
anchors = (
{
name = bottom;
position = "{1215, 0}";
},
{
name = top;
position = "{1215, 1441}";
}
);
background = {
paths = (
{
closed = 1;
nodes = (
"1046 132 OFFCURVE",
"1013 127 OFFCURVE",
"981 122 CURVE SMOOTH",
"925 114 OFFCURVE",
"857 107 OFFCURVE",
"805 107 CURVE SMOOTH",
"688 107 OFFCURVE",
"603 123 OFFCURVE",
"541 144 CURVE SMOOTH",
"479 165 OFFCURVE",
"440 194 OFFCURVE",
"417 218 CURVE",
"393 246 OFFCURVE",
"364 289 OFFCURVE",
"341 367 CURVE SMOOTH",
"317 445 OFFCURVE",
"301 557 OFFCURVE",
"301 724 CURVE SMOOTH",
"301 880 OFFCURVE",
"315 989 OFFCURVE",
"341 1065 CURVE SMOOTH",
"366 1139 OFFCURVE",
"395 1184 OFFCURVE",
"419 1212 CURVE SMOOTH",
"440 1236 OFFCURVE",
"482 1264 OFFCURVE",
"544 1287 CURVE SMOOTH",
"607 1310 OFFCURVE",
"697 1323 OFFCURVE",
"814 1323 CURVE SMOOTH",
"837 1323 OFFCURVE",
"863 1322 OFFCURVE",
"894 1319 CURVE SMOOTH",
"954 1313 OFFCURVE",
"1012 1305 OFFCURVE",
"1079 1296 CURVE",
"1079 138 LINE"
);
},
{
closed = 1;
nodes = (
"629 1472 OFFCURVE",
"519 1450 OFFCURVE",
"440 1411 CURVE SMOOTH",
"362 1373 OFFCURVE",
"309 1330 OFFCURVE",
"277 1294 CURVE SMOOTH",
"246 1259 OFFCURVE",
"208 1204 OFFCURVE",
"175 1115 CURVE SMOOTH",
"141 1023 OFFCURVE",
"121 896 OFFCURVE",
"121 720 CURVE SMOOTH",
"121 529 OFFCURVE",
"146 396 OFFCURVE",
"180 301 CURVE SMOOTH",
"214 206 OFFCURVE",
"257 150 OFFCURVE",
"294 117 CURVE SMOOTH",
"323 90 OFFCURVE",
"372 50 OFFCURVE",
"448 18 CURVE SMOOTH",
"524 -15 OFFCURVE",
"628 -41 OFFCURVE",
"768 -41 CURVE SMOOTH",
"801 -41 OFFCURVE",
"837 -39 OFFCURVE",
"874 -34 CURVE SMOOTH",
"948 -26 OFFCURVE",
"1014 -15 OFFCURVE",
"1087 1 CURVE",
"1928 1 LINE",
"1928 141 LINE",
"1248 141 LINE",
"1248 686 LINE",
"1862 686 LINE",
"1862 822 LINE",
"1248 822 LINE",
"1248 1303 LINE",
"1928 1303 LINE",
"1928 1441 LINE",
"1081 1441 LINE",
"1046 1446 OFFCURVE",
"1011 1451 OFFCURVE",
"975 1456 CURVE SMOOTH",
"914 1464 OFFCURVE",
"839 1471 OFFCURVE",
"776 1472 CURVE SMOOTH"
);
}
);
};
components = (
{
name = D;
transform = "{-1, 0, 0, -1, 1487, 1441}";
},
{
alignment = -1;
name = E;
transform = "{1, 0, 0, 1, 875, 0}";
}
);
layerId = "2F8B9CD4-7B7F-4ACC-ADF3-B6E0F7033A19";
width = 2168;
}
);
leftKerningGroup = O;
leftMetricsKey = "=O";
note = OE;
rightKerningGroup = E;
rightMetricsKey = "=E";
unicode = 0152;
},
{
glyphname = P;
layers = (
{
anchors = (
{
name = bottom;
position = "{661, 0}";
},
{
name = top;
position = "{661, 1441}";
}
);
background = {
paths = (
{
closed = 1;
nodes = (
"394 0 LINE",
"394 584 LINE",
"703 584 LINE SMOOTH",
"944 584 OFFCURVE",
"1113 626 OFFCURVE",
"1180 758 CURVE SMOOTH",
"1206 809 OFFCURVE",
"1227 904 OFFCURVE",
"1227 1010 CURVE SMOOTH",
"1227 1100 OFFCURVE",
"1211 1197 OFFCURVE",
"1188 1249 CURVE SMOOTH",
"1115 1415 OFFCURVE",
"930 1441 OFFCURVE",
"659 1441 CURVE SMOOTH",
"220 1441 LINE",
"220 0 LINE"
);
},
{
closed = 1;
nodes = (
"951 747 OFFCURVE",
"898 730 OFFCURVE",
"659 730 CURVE SMOOTH",
"394 730 LINE",
"394 1300 LINE",
"659 1300 LINE SMOOTH",
"898 1300 OFFCURVE",
"951 1283 OFFCURVE",
"999 1235 CURVE SMOOTH",
"1043 1191 OFFCURVE",
"1062 1123 OFFCURVE",
"1062 1010 CURVE SMOOTH",
"1062 907 OFFCURVE",
"1048 840 OFFCURVE",
"999 795 CURVE"
);
}
);
};
guideLines = (
{
angle = 180;
position = "{532, 1293}";
},
{
position = "{791, 732}";
},
{
position = "{1093, 586}";
}
);
layerId = "2F8B9CD4-7B7F-4ACC-ADF3-B6E0F7033A19";
paths = (
{
closed = 1;
nodes = (
"394 0 LINE",
"394 524 LINE",
"659 524 LINE SMOOTH",
"1068 524 OFFCURVE",
"1227 643 OFFCURVE",
"1227 980 CURVE SMOOTH",
"1227 1338 OFFCURVE",
"1091 1441 OFFCURVE",
"659 1441 CURVE SMOOTH",
"220 1441 LINE",
"220 0 LINE"
);
},
{
closed = 1;
nodes = (
"394 1300 LINE",
"659 1300 LINE SMOOTH",
"981 1300 OFFCURVE",
"1062 1242 OFFCURVE",
"1062 980 CURVE SMOOTH",
"1062 726 OFFCURVE",
"981 670 OFFCURVE",
"659 670 CURVE SMOOTH",
"394 670 LINE"
);
}
);
width = 1307;
}
);
leftKerningGroup = H;
leftMetricsKey = "=H";
note = P;
rightKerningGroup = P;
unicode = 0050;
},
{
glyphname = Thorn;
layers = (
{
background = {
paths = (
{
closed = 1;
nodes = (
"726 1087 OFFCURVE",
"782 1081 OFFCURVE",
"822 1071 CURVE SMOOTH",
"862 1061 OFFCURVE",
"885 1046 OFFCURVE",
"904 1033 CURVE",
"927 1016 OFFCURVE",
"948 994 OFFCURVE",
"964 958 CURVE SMOOTH",
"980 922 OFFCURVE",
"990 872 OFFCURVE",
"990 799 CURVE SMOOTH",
"990 727 OFFCURVE",
"981 681 OFFCURVE",
"966 648 CURVE SMOOTH",
"951 615 OFFCURVE",
"932 596 OFFCURVE",
"912 580 CURVE SMOOTH",
"885 559 OFFCURVE",
"852 544 OFFCURVE",
"796 534 CURVE SMOOTH",
"740 524 OFFCURVE",
"661 518 OFFCURVE",
"548 518 CURVE SMOOTH",
"365 518 LINE",
"365 1087 LINE",
"641 1087 LINE SMOOTH"
);
},
{
closed = 1;
nodes = (
"365 0 LINE",
"365 378 LINE",
"628 378 LINE SMOOTH",
"749 378 OFFCURVE",
"839 390 OFFCURVE",
"906 410 CURVE SMOOTH",
"973 430 OFFCURVE",
"1017 456 OFFCURVE",
"1049 484 CURVE SMOOTH",
"1078 509 OFFCURVE",
"1109 545 OFFCURVE",
"1133 596 CURVE SMOOTH",
"1157 647 OFFCURVE",
"1173 714 OFFCURVE",
"1173 802 CURVE SMOOTH",
"1173 890 OFFCURVE",
"1157 957 OFFCURVE",
"1134 1009 CURVE SMOOTH",
"1110 1061 OFFCURVE",
"1080 1097 OFFCURVE",
"1051 1124 CURVE SMOOTH",
"1011 1161 OFFCURVE",
"959 1188 OFFCURVE",
"881 1205 CURVE SMOOTH",
"803 1222 OFFCURVE",
"701 1231 OFFCURVE",
"561 1231 CURVE SMOOTH",
"365 1231 LINE",
"365 1441 LINE",
"191 1441 LINE",
"191 0 LINE"
);
}
);
};
layerId = "2F8B9CD4-7B7F-4ACC-ADF3-B6E0F7033A19";
paths = (
{
closed = 1;
nodes = (
"629 359 LINE SMOOTH",
"1018 359 OFFCURVE",
"1177 478 OFFCURVE",
"1177 795 CURVE SMOOTH",
"1177 1133 OFFCURVE",
"1041 1236 OFFCURVE",
"629 1236 CURVE SMOOTH",
"310 1236 LINE",
"310 1095 LINE",
"629 1095 LINE SMOOTH",
"931 1095 OFFCURVE",
"1012 1037 OFFCURVE",
"1012 795 CURVE SMOOTH",
"1012 561 OFFCURVE",
"931 505 OFFCURVE",
"629 505 CURVE SMOOTH",
"310 505 LINE",
"310 359 LINE"
);
},
{
closed = 1;
nodes = (
"394 0 LINE",
"394 1441 LINE",
"220 1441 LINE",
"220 0 LINE"
);
}
);
width = 1307;
}
);
leftKerningGroup = H;
leftMetricsKey = "=H";
note = Thorn;
rightKerningGroup = Thorn;
unicode = 00DE;
},
{
glyphname = Q;
layers = (
{
anchors = (
{
name = bottom;
position = "{769, 0}";
},
{
name = top;
position = "{769, 1441}";
}
);
components = (
{
name = O;
}
);
layerId = "2F8B9CD4-7B7F-4ACC-ADF3-B6E0F7033A19";
paths = (
{
closed = 1;
nodes = (
"1429 -297 LINE",
"1429 -158 LINE",
"774 -158 LINE",
"774 -297 LINE"
);
}
);
width = 1554;
}
);
leftKerningGroup = O;
leftMetricsKey = "=O";
note = Q;
rightKerningGroup = O;
rightMetricsKey = "=O";
unicode = 0051;
},
{
glyphname = R;
layers = (
{
anchors = (
{
name = bottom;
position = "{735, 20}";
},
{
name = top;
position = "{705, 1441}";
}
);
background = {
paths = (
{
closed = 1;
nodes = (
"394 0 LINE",
"394 639 LINE",
"742 639 LINE SMOOTH",
"869 639 OFFCURVE",
"917 627 OFFCURVE",
"971 590 CURVE SMOOTH",
"1037 545 OFFCURVE",
"1039 487 OFFCURVE",
"1053 365 CURVE SMOOTH",
"1096 0 LINE",
"1272 0 LINE",
"1228 361 LINE SMOOTH",
"1211 498 OFFCURVE",
"1202 571 OFFCURVE",
"1152 627 CURVE SMOOTH",
"1119 664 OFFCURVE",
"1057 696 OFFCURVE",
"978 716 CURVE",
"1057 735 OFFCURVE",
"1119 775 OFFCURVE",
"1152 811 CURVE SMOOTH",
"1204 868 OFFCURVE",
"1227 954 OFFCURVE",
"1227 1040 CURVE SMOOTH",
"1227 1120 OFFCURVE",
"1211 1197 OFFCURVE",
"1188 1249 CURVE SMOOTH",
"1139 1361 OFFCURVE",
"1051 1400 OFFCURVE",
"956 1420 CURVE SMOOTH",
"877 1437 OFFCURVE",
"795 1441 OFFCURVE",
"625 1441 CURVE SMOOTH",
"220 1441 LINE",
"220 0 LINE"
);
},
{
closed = 1;
nodes = (
"394 1293 LINE",
"691 1293 LINE SMOOTH",
"838 1293 OFFCURVE",
"924 1291 OFFCURVE",
"986 1244 CURVE",
"1033 1203 OFFCURVE",
"1059 1151 OFFCURVE",
"1059 1040 CURVE SMOOTH",
"1059 965 OFFCURVE",
"1043 898 OFFCURVE",
"996 853 CURVE",
"930 783 OFFCURVE",
"823 785 OFFCURVE",
"661 785 CURVE SMOOTH",
"394 785 LINE"
);
}
);
};
layerId = "2F8B9CD4-7B7F-4ACC-ADF3-B6E0F7033A19";
paths = (
{
closed = 1;
nodes = (
"394 0 LINE",
"394 639 LINE",
"682 639 LINE SMOOTH",
"907 639 OFFCURVE",
"969 584 OFFCURVE",
"1015 371 CURVE SMOOTH",
"1096 0 LINE",
"1272 0 LINE",
"1190 366 LINE SMOOTH",
"1136 609 OFFCURVE",
"1138 682 OFFCURVE",
"877 725 CURVE",
"884 709 LINE",
"1136 742 OFFCURVE",
"1227 848 OFFCURVE",
"1227 1040 CURVE SMOOTH",
"1227 1345 OFFCURVE",
"1099 1441 OFFCURVE",
"695 1441 CURVE SMOOTH",
"220 1441 LINE",
"220 0 LINE"
);
},
{
closed = 1;
nodes = (
"394 1293 LINE",
"691 1293 LINE SMOOTH",
"971 1293 OFFCURVE",
"1059 1232 OFFCURVE",
"1059 1040 CURVE SMOOTH",
"1059 856 OFFCURVE",
"910 785 OFFCURVE",
"682 785 CURVE SMOOTH",
"394 785 LINE"
);
}
);
width = 1397;
}
);
leftKerningGroup = H;
leftMetricsKey = "=H";
note = R;
rightKerningGroup = R;
unicode = 0052;
},
{
glyphname = S;
layers = (
{
anchors = (
{
name = bottom;
position = "{645, 0}";
},
{
name = top;
position = "{645, 1441}";
}
);
background = {
paths = (
{
closed = 1;
nodes = (
"140 259 OFFCURVE",
"158 145 OFFCURVE",
"261 69 CURVE SMOOTH",
"358 -3 OFFCURVE",
"462 -29 OFFCURVE",
"677 -29 CURVE SMOOTH",
"1003 -29 OFFCURVE",
"1174 83 OFFCURVE",
"1174 400 CURVE SMOOTH",
"1174 674 OFFCURVE",
"1056 776 OFFCURVE",
"666 833 CURVE SMOOTH",
"374 876 OFFCURVE",
"318 925 OFFCURVE",
"318 1101 CURVE SMOOTH",
"318 1304 OFFCURVE",
"470 1325 OFFCURVE",
"651 1325 CURVE SMOOTH",
"804 1325 OFFCURVE",
"898 1317 OFFCURVE",
"944 1248 CURVE SMOOTH",
"970 1209 OFFCURVE",
"975 1162 OFFCURVE",
"975 1111 CURVE",
"1134 1111 LINE",
"1134 1186 OFFCURVE",
"1131 1243 OFFCURVE",
"1099 1302 CURVE SMOOTH",
"1036 1428 OFFCURVE",
"891 1477 OFFCURVE",
"666 1477 CURVE SMOOTH",
"363 1477 OFFCURVE",
"144 1398 OFFCURVE",
"144 1097 CURVE SMOOTH",
"144 839 OFFCURVE",
"248 733 OFFCURVE",
"597 680 CURVE SMOOTH",
"918 632 OFFCURVE",
"1000 582 OFFCURVE",
"1000 392 CURVE SMOOTH",
"1000 184 OFFCURVE",
"892 122 OFFCURVE",
"684 122 CURVE SMOOTH",
"536 122 OFFCURVE",
"449 123 OFFCURVE",
"372 180 CURVE SMOOTH",
"318 220 OFFCURVE",
"305 288 OFFCURVE",
"305 366 CURVE",
"140 366 LINE"
);
}
);
};
layerId = "2F8B9CD4-7B7F-4ACC-ADF3-B6E0F7033A19";
paths = (
{
closed = 1;
nodes = (
"1015 -29 OFFCURVE",
"1174 108 OFFCURVE",
"1174 400 CURVE SMOOTH",
"1174 640 OFFCURVE",
"1041 775 OFFCURVE",
"727 824 CURVE SMOOTH",
"402 875 OFFCURVE",
"318 936 OFFCURVE",
"318 1101 CURVE SMOOTH",
"318 1262 OFFCURVE",
"411 1325 OFFCURVE",
"651 1325 CURVE SMOOTH",
"897 1325 OFFCURVE",
"975 1274 OFFCURVE",
"975 1111 CURVE",
"1134 1111 LINE",
"1134 1375 OFFCURVE",
"1003 1477 OFFCURVE",
"666 1477 CURVE SMOOTH",
"311 1477 OFFCURVE",
"144 1355 OFFCURVE",
"144 1097 CURVE SMOOTH",
"144 860 OFFCURVE",
"273 728 OFFCURVE",
"577 684 CURVE SMOOTH",
"903 637 OFFCURVE",
"1000 565 OFFCURVE",
"1000 392 CURVE SMOOTH",
"1000 198 OFFCURVE",
"912 122 OFFCURVE",
"664 122 CURVE SMOOTH",
"396 122 OFFCURVE",
"305 181 OFFCURVE",
"305 366 CURVE",
"140 366 LINE",
"140 82 OFFCURVE",
"290 -29 OFFCURVE",
"657 -29 CURVE SMOOTH"
);
}
);
width = 1294;
}
);
leftKerningGroup = S;
note = S;
rightKerningGroup = S;
unicode = 0053;
},
{
glyphname = Germandbls;
layers = (
{
anchors = (
{
name = bottom;
position = "{310, 0}";
},
{
name = top;
position = "{310, 1011}";
}
);
layerId = "2F8B9CD4-7B7F-4ACC-ADF3-B6E0F7033A19";
paths = (
{
closed = 1;
nodes = (
"1415 -29 OFFCURVE",
"1606 83 OFFCURVE",
"1606 350 CURVE SMOOTH",
"1606 594 OFFCURVE",
"1486 723 OFFCURVE",
"1237 782 CURVE SMOOTH",
"967 847 OFFCURVE",
"910 945 OFFCURVE",
"910 1081 CURVE SMOOTH",
"910 1240 OFFCURVE",
"1015 1329 OFFCURVE",
"1201 1329 CURVE SMOOTH",
"1408 1329 LINE",
"1407 1478 LINE",
"845 1477 LINE SMOOTH",
"361 1476 OFFCURVE",
"210 1266 OFFCURVE",
"210 905 CURVE SMOOTH",
"210 0 LINE",
"384 0 LINE",
"385 901 LINE SMOOTH",
"385 1191 OFFCURVE",
"468 1331 OFFCURVE",
"855 1331 CURVE SMOOTH",
"1005 1331 LINE",
"1005 1387 LINE",
"848 1353 OFFCURVE",
"736 1227 OFFCURVE",
"736 1057 CURVE SMOOTH",
"736 839 OFFCURVE",
"861 715 OFFCURVE",
"1125 651 CURVE SMOOTH",
"1371 592 OFFCURVE",
"1432 502 OFFCURVE",
"1432 342 CURVE SMOOTH",
"1432 184 OFFCURVE",
"1324 122 OFFCURVE",
"1146 122 CURVE SMOOTH",
"942 122 OFFCURVE",
"867 197 OFFCURVE",
"867 366 CURVE",
"702 366 LINE",
"702 111 OFFCURVE",
"838 -29 OFFCURVE",
"1139 -29 CURVE SMOOTH"
);
}
);
width = 1696;
}
);
leftKerningGroup = H;
rightKerningGroup = S;
unicode = 1E9E;
},
{
glyphname = Schwa;
layers = (
{
background = {
paths = (
{
closed = 1;
nodes = (
"1177 458 OFFCURVE",
"1159 383 OFFCURVE",
"1139 327 CURVE SMOOTH",
"1085 177 OFFCURVE",
"961 128 OFFCURVE",
"758 128 CURVE SMOOTH",
"566 128 OFFCURVE",
"452 167 OFFCURVE",
"399 301 CURVE SMOOTH",
"375 362 OFFCURVE",
"353 446 OFFCURVE",
"356 576 CURVE",
"1181 576 LINE"
);
},
{
closed = 1;
nodes = (
"346 1257 OFFCURVE",
"530 1279 OFFCURVE",
"741 1279 CURVE SMOOTH",
"824 1279 OFFCURVE",
"946 1268 OFFCURVE",
"1005 1234 CURVE",
"1133 1164 OFFCURVE",
"1184 948 OFFCURVE",
"1184 737 CURVE",
"127 737 LINE",
"127 606 OFFCURVE",
"112 428 OFFCURVE",
"165 289 CURVE SMOOTH",
"191 221 OFFCURVE",
"215 175 OFFCURVE",
"236 147 CURVE SMOOTH",
"346 1 OFFCURVE",
"542 -46 OFFCURVE",
"753 -46 CURVE SMOOTH",
"1054 -46 OFFCURVE",
"1255 50 OFFCURVE",
"1351 297 CURVE SMOOTH",
"1386 387 OFFCURVE",
"1413 516 OFFCURVE",
"1413 702 CURVE SMOOTH",
"1413 887 OFFCURVE",
"1387 1018 OFFCURVE",
"1353 1109 CURVE SMOOTH",
"1298 1257 OFFCURVE",
"1222 1343 OFFCURVE",
"1088 1395 CURVE SMOOTH",
"1010 1425 OFFCURVE",
"899 1450 OFFCURVE",
"747 1450 CURVE SMOOTH",
"559 1450 OFFCURVE",
"343 1421 OFFCURVE",
"241 1304 CURVE SMOOTH",
"174 1227 OFFCURVE",
"138 1141 OFFCURVE",
"138 1023 CURVE",
"334 1023 LINE"
);
}
);
};
layerId = "2F8B9CD4-7B7F-4ACC-ADF3-B6E0F7033A19";
paths = (
{
closed = 1;
nodes = (
"1232 -38 OFFCURVE",
"1394 230 OFFCURVE",
"1394 728 CURVE SMOOTH",
"1394 1215 OFFCURVE",
"1221 1472 OFFCURVE",
"755 1472 CURVE SMOOTH",
"434 1472 OFFCURVE",
"179 1322 OFFCURVE",
"179 1021 CURVE",
"350 1022 LINE",
"354 1237 OFFCURVE",
"516 1323 OFFCURVE",
"755 1323 CURVE SMOOTH",
"1121 1323 OFFCURVE",
"1210 1132 OFFCURVE",
"1210 730 CURVE SMOOTH",
"1210 268 OFFCURVE",
"1079 110 OFFCURVE",
"755 110 CURVE SMOOTH",
"434 110 OFFCURVE",
"324 262 OFFCURVE",
"300 570 CURVE",
"1324 570 LINE",
"1319 742 LINE",
"125 742 LINE",
"115 230 OFFCURVE",
"278 -38 OFFCURVE",
"755 -38 CURVE SMOOTH"
);
}
);
width = 1519;
}
);
leftKerningGroup = O;
leftMetricsKey = "=O";
rightKerningGroup = O;
rightMetricsKey = "=O";
unicode = 018F;
},
{
glyphname = T;
layers = (
{
anchors = (
{
name = bottom;
position = "{580, 0}";
},
{
name = center;
position = "{580, 721}";
},
{
name = top;
position = "{580, 1441}";
}
);
layerId = "2F8B9CD4-7B7F-4ACC-ADF3-B6E0F7033A19";
paths = (
{
closed = 1;
nodes = (
"665 -1 LINE",
"665 1288 LINE",
"1112 1288 LINE",
"1112 1441 LINE",
"45 1441 LINE",
"45 1288 LINE",
"492 1288 LINE",
"492 -1 LINE"
);
}
);
width = 1157;
}
);
leftKerningGroup = T;
note = T;
rightKerningGroup = T;
unicode = 0054;
},
{
glyphname = U;
layers = (
{
anchors = (
{
name = bottom;
position = "{790, 0}";
},
{
name = ogonek;
position = "{830, -8}";
},
{
name = top;
position = "{790, 1441}";
},
{
name = topright;
position = "{1369, 1441}";
}
);
background = {
paths = (
{
closed = 1;
nodes = (
"384 1441 LINE",
"210 1441 LINE",
"210 684 LINE SMOOTH",
"210 497 OFFCURVE",
"226 373 OFFCURVE",
"251 279 CURVE SMOOTH",
"278 176 OFFCURVE",
"337 60 OFFCURVE",
"490 3 CURVE SMOOTH",
"563 -24 OFFCURVE",
"667 -48 OFFCURVE",
"790 -48 CURVE SMOOTH",
"911 -48 OFFCURVE",
"1020 -25 OFFCURVE",
"1093 3 CURVE SMOOTH",
"1242 60 OFFCURVE",
"1301 176 OFFCURVE",
"1328 279 CURVE SMOOTH",
"1353 376 OFFCURVE",
"1369 497 OFFCURVE",
"1369 684 CURVE SMOOTH",
"1369 1441 LINE",
"1195 1441 LINE",
"1195 681 LINE SMOOTH",
"1195 425 OFFCURVE",
"1183 211 OFFCURVE",
"1027 151 CURVE SMOOTH",
"971 130 OFFCURVE",
"892 109 OFFCURVE",
"790 109 CURVE SMOOTH",
"690 109 OFFCURVE",
"607 130 OFFCURVE",
"552 151 CURVE SMOOTH",
"396 212 OFFCURVE",
"384 425 OFFCURVE",
"384 681 CURVE SMOOTH"
);
}
);
};
layerId = "2F8B9CD4-7B7F-4ACC-ADF3-B6E0F7033A19";
paths = (
{
closed = 1;
nodes = (
"1161 -48 OFFCURVE",
"1369 162 OFFCURVE",
"1369 534 CURVE SMOOTH",
"1369 1441 LINE",
"1195 1441 LINE",
"1195 531 LINE SMOOTH",
"1195 261 OFFCURVE",
"1049 109 OFFCURVE",
"790 109 CURVE SMOOTH",
"530 109 OFFCURVE",
"384 261 OFFCURVE",
"384 531 CURVE SMOOTH",
"384 1441 LINE",
"210 1441 LINE",
"210 534 LINE SMOOTH",
"210 162 OFFCURVE",
"419 -48 OFFCURVE",
"790 -48 CURVE SMOOTH"
);
}
);
width = 1579;
}
);
leftKerningGroup = U;
note = U;
rightKerningGroup = U;
unicode = 0055;
},
{
glyphname = V;
layers = (
{
anchors = (
{
name = bottom;
position = "{645, 0}";
},
{
name = top;
position = "{645, 1441}";
}
);
layerId = "2F8B9CD4-7B7F-4ACC-ADF3-B6E0F7033A19";
paths = (
{
closed = 1;
nodes = (
"745 0 LINE",
"1249 1441 LINE",
"1075 1441 LINE",
"719 372 LINE",
"661 189 LINE",
"628 189 LINE",
"570 372 LINE",
"209 1441 LINE",
"35 1441 LINE",
"551 0 LINE"
);
}
);
width = 1284;
}
);
leftKerningGroup = V;
note = V;
rightKerningGroup = V;
unicode = 0056;
},
{
glyphname = W;
layers = (
{
anchors = (
{
name = bottom;
position = "{940, 0}";
},
{
name = top;
position = "{940, 1441}";
}
);
layerId = "2F8B9CD4-7B7F-4ACC-ADF3-B6E0F7033A19";
paths = (
{
closed = 1;
nodes = (
"645 0 LINE",
"941 1235 LINE",
"976 1235 LINE",
"1261 0 LINE",
"1475 0 LINE",
"1827 1441 LINE",
"1663 1441 LINE",
"1378 193 LINE",
"1349 193 LINE",
"1289 474 LINE",
"1066 1441 LINE",
"841 1441 LINE",
"617 476 LINE",
"559 194 LINE",
"530 194 LINE",
"244 1441 LINE",
"80 1441 LINE",
"431 0 LINE"
);
}
);
width = 1907;
}
);
leftKerningGroup = W;
note = W;
rightKerningGroup = W;
unicode = 0057;
},
{
glyphname = X;
layers = (
{
anchors = (
{
name = bottom;
position = "{607, 0}";
},
{
name = top;
position = "{607, 1441}";
}
);
background = {
paths = (
{
closed = 1;
nodes = (
"29 0 LINE",
"206 0 LINE",
"607 614 LINE",
"1018 0 LINE",
"1195 0 LINE",
"704 747 LINE",
"1164 1441 LINE",
"990 1441 LINE",
"607 871 LINE",
"220 1441 LINE",
"46 1441 LINE",
"511 745 LINE"
);
}
);
};
layerId = "2F8B9CD4-7B7F-4ACC-ADF3-B6E0F7033A19";
paths = (
{
closed = 1;
nodes = (
"1199 0 LINE",
"665 784 LINE",
"649 784 LINE",
"219 1441 LINE",
"25 1441 LINE",
"539 665 LINE",
"556 665 LINE",
"1005 0 LINE"
);
},
{
closed = 1;
nodes = (
"217 0 LINE",
"663 661 LINE",
"683 661 LINE",
"1197 1441 LINE",
"1006 1441 LINE",
"575 779 LINE",
"555 779 LINE",
"26 0 LINE"
);
}
);
width = 1224;
}
);
leftKerningGroup = X;
note = X;
rightKerningGroup = X;
unicode = 0058;
},
{
glyphname = Y;
layers = (
{
anchors = (
{
name = bottom;
position = "{572, 0}";
},
{
name = top;
position = "{572, 1411}";
},
{
name = topleft;
position = "{18, 1441}";
}
);
layerId = "2F8B9CD4-7B7F-4ACC-ADF3-B6E0F7033A19";
paths = (
{
closed = 1;
nodes = (
"657 0 LINE",
"657 596 LINE",
"1150 1441 LINE",
"969 1441 LINE",
"585 773 LINE",
"557 773 LINE",
"178 1441 LINE",
"-6 1441 LINE",
"483 596 LINE",
"483 0 LINE"
);
}
);
width = 1144;
}
);
leftKerningGroup = Y;
note = Y;
rightKerningGroup = Y;
unicode = 0059;
},
{
glyphname = Z;
layers = (
{
anchors = (
{
name = bottom;
position = "{623, 0}";
},
{
name = top;
position = "{593, 1441}";
}
);
layerId = "2F8B9CD4-7B7F-4ACC-ADF3-B6E0F7033A19";
paths = (
{
closed = 1;
nodes = (
"1125 0 LINE",
"1125 152 LINE",
"244 152 LINE",
"273 115 LINE",
"1122 1313 LINE",
"1122 1441 LINE",
"94 1441 LINE",
"94 1289 LINE",
"974 1289 LINE",
"946 1325 LINE",
"80 126 LINE",
"80 0 LINE"
);
}
);
width = 1205;
}
);
leftKerningGroup = Z;
note = Z;
rightKerningGroup = Z;
unicode = 005A;
},
{
glyphname = a;
layers = (
{
anchors = (
{
name = bottom;
position = "{546, 0}";
},
{
name = ogonek;
position = "{1032, -14}";
},
{
name = top;
position = "{546, 1011}";
}
);
background = {
paths = (
{
closed = 1;
nodes = (
"272 793 OFFCURVE",
"301 849 OFFCURVE",
"333 871 CURVE SMOOTH",
"375 900 OFFCURVE",
"432 909 OFFCURVE",
"529 909 CURVE SMOOTH",
"632 909 OFFCURVE",
"690 899 OFFCURVE",
"725 871 CURVE SMOOTH",
"760 844 OFFCURVE",
"777 819 OFFCURVE",
"777 738 CURVE SMOOTH",
"777 701 OFFCURVE",
"777 652 OFFCURVE",
"777 593 CURVE",
"669 593 OFFCURVE",
"623 593 OFFCURVE",
"534 593 CURVE SMOOTH",
"271 593 OFFCURVE",
"99 520 OFFCURVE",
"99 282 CURVE SMOOTH",
"99 77 OFFCURVE",
"253 -23 OFFCURVE",
"450 -23 CURVE SMOOTH",
"581 -23 OFFCURVE",
"731 26 OFFCURVE",
"799 118 CURVE",
"799 42 OFFCURVE",
"865 -24 OFFCURVE",
"961 -24 CURVE SMOOTH",
"989 -24 OFFCURVE",
"1005 -24 OFFCURVE",
"1031 -15 CURVE",
"1031 107 LINE",
"941 99 OFFCURVE",
"931 122 OFFCURVE",
"931 211 CURVE SMOOTH",
"931 727 LINE SMOOTH",
"931 926 OFFCURVE",
"829 1033 OFFCURVE",
"529 1033 CURVE SMOOTH",
"296 1033 OFFCURVE",
"133 953 OFFCURVE",
"133 738 CURVE",
"272 738 LINE"
);
},
{
closed = 1;
nodes = (
"778 233 OFFCURVE",
"751 194 OFFCURVE",
"702 158 CURVE SMOOTH",
"653 122 OFFCURVE",
"580 99 OFFCURVE",
"487 99 CURVE SMOOTH",
"354 99 OFFCURVE",
"257 159 OFFCURVE",
"257 285 CURVE SMOOTH",
"257 472 OFFCURVE",
"389 479 OFFCURVE",
"711 479 CURVE SMOOTH",
"732 479 OFFCURVE",
"755 479 OFFCURVE",
"778 479 CURVE",
"778 305 LINE SMOOTH"
);
}
);
};
layerId = "2F8B9CD4-7B7F-4ACC-ADF3-B6E0F7033A19";
paths = (
{
closed = 1;
nodes = (
"989 -24 OFFCURVE",
"1005 -24 OFFCURVE",
"1031 -15 CURVE",
"1031 107 LINE",
"951 100 OFFCURVE",
"931 121 OFFCURVE",
"931 211 CURVE SMOOTH",
"931 727 LINE SMOOTH",
"931 935 OFFCURVE",
"802 1033 OFFCURVE",
"529 1033 CURVE SMOOTH",
"260 1033 OFFCURVE",
"133 939 OFFCURVE",
"133 738 CURVE",
"272 738 LINE",
"272 861 OFFCURVE",
"344 909 OFFCURVE",
"529 909 CURVE SMOOTH",
"708 909 OFFCURVE",
"777 858 OFFCURVE",
"777 728 CURVE SMOOTH",
"777 593 LINE",
"567 593 LINE SMOOTH",
"230 593 OFFCURVE",
"99 506 OFFCURVE",
"99 282 CURVE SMOOTH",
"99 87 OFFCURVE",
"225 -23 OFFCURVE",
"450 -23 CURVE SMOOTH",
"607 -23 OFFCURVE",
"732 28 OFFCURVE",
"799 118 CURVE",
"799 33 OFFCURVE",
"864 -24 OFFCURVE",
"961 -24 CURVE SMOOTH"
);
},
{
closed = 1;
nodes = (
"340 99 OFFCURVE",
"257 166 OFFCURVE",
"257 285 CURVE SMOOTH",
"257 425 OFFCURVE",
"344 479 OFFCURVE",
"566 479 CURVE SMOOTH",
"778 479 LINE",
"778 305 LINE SMOOTH",
"778 173 OFFCURVE",
"673 99 OFFCURVE",
"487 99 CURVE SMOOTH"
);
}
);
width = 1091;
}
);
leftKerningGroup = a;
note = a;
rightKerningGroup = n;
unicode = 0061;
},
{
glyphname = ae;
layers = (
{
anchors = (
{
name = bottom;
position = "{866, 0}";
},
{
name = top;
position = "{866, 1011}";
}
);
background = {
paths = (
{
closed = 1;
nodes = (
"99 520 OFFCURVE",
"271 593 OFFCURVE",
"534 593 CURVE SMOOTH",
"623 593 OFFCURVE",
"669 593 OFFCURVE",
"777 593 CURVE",
"777 738 LINE SMOOTH",
"777 819 OFFCURVE",
"760 844 OFFCURVE",
"725 871 CURVE SMOOTH",
"690 899 OFFCURVE",
"632 909 OFFCURVE",
"529 909 CURVE SMOOTH",
"432 909 OFFCURVE",
"375 900 OFFCURVE",
"333 871 CURVE SMOOTH",
"301 849 OFFCURVE",
"272 793 OFFCURVE",
"272 738 CURVE",
"133 738 LINE",
"133 953 OFFCURVE",
"296 1033 OFFCURVE",
"529 1033 CURVE SMOOTH",
"712 1033 OFFCURVE",
"827 990 OFFCURVE",
"878 908 CURVE",
"949 990 OFFCURVE",
"1034 1034 OFFCURVE",
"1218 1034 CURVE SMOOTH",
"1352 1034 OFFCURVE",
"1484 999 OFFCURVE",
"1560 898 CURVE SMOOTH",
"1575 878 OFFCURVE",
"1592 845 OFFCURVE",
"1609 797 CURVE SMOOTH",
"1644 699 OFFCURVE",
"1635 573 OFFCURVE",
"1635 480 CURVE",
"934 480 LINE",
"934 321 OFFCURVE",
"968 179 OFFCURVE",
"1057 129 CURVE",
"1096 105 OFFCURVE",
"1179 97 OFFCURVE",
"1236 97 CURVE SMOOTH",
"1360 97 OFFCURVE",
"1486 113 OFFCURVE",
"1493 278 CURVE",
"1627 278 LINE",
"1627 195 OFFCURVE",
"1603 134 OFFCURVE",
"1557 80 CURVE SMOOTH",
"1487 -3 OFFCURVE",
"1340 -23 OFFCURVE",
"1232 -23 CURVE SMOOTH",
"1128 -23 OFFCURVE",
"1051 -7 OFFCURVE",
"997 15 CURVE SMOOTH",
"927 43 OFFCURVE",
"896 86 OFFCURVE",
"865 151 CURVE",
"799 47 OFFCURVE",
"653 -25 OFFCURVE",
"450 -23 CURVE SMOOTH",
"253 -21 OFFCURVE",
"99 77 OFFCURVE",
"99 282 CURVE SMOOTH"
);
},
{
closed = 1;
nodes = (
"257 159 OFFCURVE",
"354 99 OFFCURVE",
"487 99 CURVE SMOOTH",
"641 99 OFFCURVE",
"778 164 OFFCURVE",
"778 305 CURVE SMOOTH",
"778 480 LINE",
"711 479 LINE SMOOTH",
"389 479 OFFCURVE",
"257 472 OFFCURVE",
"257 285 CURVE SMOOTH"
);
},
{
closed = 1;
nodes = (
"1479 594 LINE",
"1481 686 OFFCURVE",
"1465 746 OFFCURVE",
"1449 789 CURVE SMOOTH",
"1414 884 OFFCURVE",
"1335 911 OFFCURVE",
"1214 911 CURVE SMOOTH",
"1086 911 OFFCURVE",
"998 877 OFFCURVE",
"964 771 CURVE SMOOTH",
"951 731 OFFCURVE",
"939 678 OFFCURVE",
"936 594 CURVE"
);
}
);
};
layerId = "2F8B9CD4-7B7F-4ACC-ADF3-B6E0F7033A19";
paths = (
{
closed = 1;
nodes = (
"660 -23 OFFCURVE",
"799 51 OFFCURVE",
"841 217 CURVE",
"820 216 LINE",
"885 55 OFFCURVE",
"1019 -23 OFFCURVE",
"1228 -23 CURVE SMOOTH",
"1494 -23 OFFCURVE",
"1643 85 OFFCURVE",
"1643 278 CURVE",
"1486 278 LINE",
"1481 155 OFFCURVE",
"1399 97 OFFCURVE",
"1232 97 CURVE SMOOTH",
"1015 97 OFFCURVE",
"930 204 OFFCURVE",
"930 480 CURVE",
"1651 480 LINE",
"1651 510 OFFCURVE",
"1652 543 OFFCURVE",
"1652 577 CURVE SMOOTH",
"1652 906 OFFCURVE",
"1532 1034 OFFCURVE",
"1224 1034 CURVE SMOOTH",
"1046 1034 OFFCURVE",
"934 984 OFFCURVE",
"866 858 CURVE",
"891 861 LINE",
"847 978 OFFCURVE",
"735 1033 OFFCURVE",
"529 1033 CURVE SMOOTH",
"260 1033 OFFCURVE",
"133 939 OFFCURVE",
"133 738 CURVE",
"272 738 LINE",
"272 861 OFFCURVE",
"344 909 OFFCURVE",
"529 909 CURVE SMOOTH",
"708 909 OFFCURVE",
"777 858 OFFCURVE",
"777 728 CURVE SMOOTH",
"777 593 LINE",
"567 593 LINE SMOOTH",
"230 593 OFFCURVE",
"99 506 OFFCURVE",
"99 282 CURVE SMOOTH",
"99 87 OFFCURVE",
"225 -23 OFFCURVE",
"450 -23 CURVE SMOOTH"
);
},
{
closed = 1;
nodes = (
"340 99 OFFCURVE",
"257 166 OFFCURVE",
"257 285 CURVE SMOOTH",
"257 425 OFFCURVE",
"344 479 OFFCURVE",
"566 479 CURVE SMOOTH",
"778 479 LINE",
"778 305 LINE SMOOTH",
"778 173 OFFCURVE",
"673 99 OFFCURVE",
"487 99 CURVE SMOOTH"
);
},
{
closed = 1;
nodes = (
"940 824 OFFCURVE",
"1003 911 OFFCURVE",
"1220 911 CURVE SMOOTH",
"1423 911 OFFCURVE",
"1500 822 OFFCURVE",
"1495 594 CURVE",
"932 594 LINE"
);
}
);
width = 1742;
}
);
leftKerningGroup = a;
leftMetricsKey = "=a";
note = ae;
rightKerningGroup = e;
rightMetricsKey = "=e";
unicode = 00E6;
},
{
glyphname = b;
layers = (
{
anchors = (
{
name = bottom;
position = "{639, 0}";
},
{
name = top;
position = "{639, 1011}";
}
);
background = {
paths = (
{
closed = 1;
nodes = (
"790 909 OFFCURVE",
"866 871 OFFCURVE",
"896 732 CURVE SMOOTH",
"907 681 OFFCURVE",
"915 607 OFFCURVE",
"915 495 CURVE SMOOTH",
"915 218 OFFCURVE",
"884 102 OFFCURVE",
"632 102 CURVE SMOOTH",
"377 102 OFFCURVE",
"334 218 OFFCURVE",
"334 505 CURVE SMOOTH",
"334 804 OFFCURVE",
"367 909 OFFCURVE",
"629 909 CURVE SMOOTH"
);
},
{
closed = 1;
nodes = (
"334 1441 LINE",
"180 1441 LINE",
"180 0 LINE",
"303 0 LINE",
"321 134 LINE",
"369 59 OFFCURVE",
"449 -23 OFFCURVE",
"667 -23 CURVE SMOOTH",
"871 -23 OFFCURVE",
"1002 55 OFFCURVE",
"1046 236 CURVE SMOOTH",
"1063 303 OFFCURVE",
"1071 399 OFFCURVE",
"1071 497 CURVE SMOOTH",
"1071 611 OFFCURVE",
"1060 727 OFFCURVE",
"1037 803 CURVE SMOOTH",
"1010 897 OFFCURVE",
"963 955 OFFCURVE",
"873 995 CURVE SMOOTH",
"825 1017 OFFCURVE",
"757 1033 OFFCURVE",
"665 1033 CURVE SMOOTH",
"444 1033 OFFCURVE",
"381 966 OFFCURVE",
"334 898 CURVE"
);
}
);
};
layerId = "2F8B9CD4-7B7F-4ACC-ADF3-B6E0F7033A19";
paths = (
{
closed = 1;
nodes = (
"958 -23 OFFCURVE",
"1071 123 OFFCURVE",
"1071 497 CURVE SMOOTH",
"1071 904 OFFCURVE",
"974 1033 OFFCURVE",
"665 1033 CURVE SMOOTH",
"494 1033 OFFCURVE",
"401 995 OFFCURVE",
"334 898 CURVE",
"334 1441 LINE",
"180 1441 LINE",
"180 0 LINE",
"303 0 LINE",
"321 134 LINE",
"369 59 OFFCURVE",
"449 -23 OFFCURVE",
"667 -23 CURVE SMOOTH"
);
},
{
closed = 1;
nodes = (
"406 102 OFFCURVE",
"334 199 OFFCURVE",
"334 505 CURVE SMOOTH",
"334 828 OFFCURVE",
"393 909 OFFCURVE",
"629 909 CURVE SMOOTH",
"846 909 OFFCURVE",
"915 810 OFFCURVE",
"915 495 CURVE SMOOTH",
"915 196 OFFCURVE",
"847 102 OFFCURVE",
"632 102 CURVE SMOOTH"
);
}
);
width = 1171;
}
);
leftKerningGroup = h;
leftMetricsKey = "=h";
note = b;
rightKerningGroup = o;
rightMetricsKey = "=o";
unicode = 0062;
},
{
glyphname = c;
layers = (
{
anchors = (
{
name = bottom;
position = "{525, 0}";
},
{
name = top;
position = "{525, 1011}";
}
);
background = {
paths = (
{
closed = 1;
nodes = (
"802 226 OFFCURVE",
"783 150 OFFCURVE",
"698 122 CURVE SMOOTH",
"662 110 OFFCURVE",
"629 97 OFFCURVE",
"568 97 CURVE SMOOTH",
"487 97 OFFCURVE",
"432 109 OFFCURVE",
"393 125 CURVE SMOOTH",
"331 150 OFFCURVE",
"297 187 OFFCURVE",
"278 266 CURVE SMOOTH",
"266 315 OFFCURVE",
"256 390 OFFCURVE",
"256 507 CURVE SMOOTH",
"256 620 OFFCURVE",
"266 693 OFFCURVE",
"278 741 CURVE SMOOTH",
"296 814 OFFCURVE",
"324 855 OFFCURVE",
"388 882 CURVE SMOOTH",
"426 898 OFFCURVE",
"480 910 OFFCURVE",
"563 910 CURVE SMOOTH",
"639 910 OFFCURVE",
"717 895 OFFCURVE",
"759 846 CURVE SMOOTH",
"790 810 OFFCURVE",
"800 757 OFFCURVE",
"804 702 CURVE",
"961 702 LINE",
"959 812 OFFCURVE",
"930 888 OFFCURVE",
"880 938 CURVE SMOOTH",
"809 1009 OFFCURVE",
"682 1035 OFFCURVE",
"567 1035 CURVE SMOOTH",
"463 1035 OFFCURVE",
"384 1016 OFFCURVE",
"325 991 CURVE SMOOTH",
"148 916 OFFCURVE",
"100 749 OFFCURVE",
"100 509 CURVE SMOOTH",
"100 380 OFFCURVE",
"116 290 OFFCURVE",
"137 226 CURVE SMOOTH",
"169 123 OFFCURVE",
"225 60 OFFCURVE",
"324 21 CURVE SMOOTH",
"383 -4 OFFCURVE",
"462 -23 OFFCURVE",
"566 -23 CURVE SMOOTH",
"666 -23 OFFCURVE",
"740 -9 OFFCURVE",
"792 13 CURVE SMOOTH",
"909 62 OFFCURVE",
"960 167 OFFCURVE",
"961 310 CURVE",
"804 310 LINE"
);
}
);
};
layerId = "2F8B9CD4-7B7F-4ACC-ADF3-B6E0F7033A19";
paths = (
{
closed = 1;
nodes = (
"848 -23 OFFCURVE",
"959 70 OFFCURVE",
"961 310 CURVE",
"804 310 LINE",
"801 157 OFFCURVE",
"735 97 OFFCURVE",
"568 97 CURVE SMOOTH",
"318 97 OFFCURVE",
"256 179 OFFCURVE",
"256 507 CURVE SMOOTH",
"256 813 OFFCURVE",
"330 910 OFFCURVE",
"563 910 CURVE SMOOTH",
"726 910 OFFCURVE",
"793 852 OFFCURVE",
"804 702 CURVE",
"961 702 LINE",
"957 928 OFFCURVE",
"831 1035 OFFCURVE",
"567 1035 CURVE SMOOTH",
"231 1035 OFFCURVE",
"100 888 OFFCURVE",
"100 509 CURVE SMOOTH",
"100 126 OFFCURVE",
"230 -23 OFFCURVE",
"566 -23 CURVE SMOOTH"
);
}
);
width = 1046;
}
);
leftKerningGroup = o;
leftMetricsKey = "=o";
note = c;
rightKerningGroup = c;
unicode = 0063;
},
{
glyphname = d;
layers = (
{
anchors = (
{
name = bottom;
position = "{568, 0}";
},
{
name = center;
position = "{786, 1214}";
},
{
name = top;
position = "{568, 1011}";
},
{
name = topright;
position = "{1039, 1011}";
}
);
background = {
paths = (
{
closed = 1;
nodes = (
"804 909 OFFCURVE",
"837 804 OFFCURVE",
"837 505 CURVE SMOOTH",
"837 218 OFFCURVE",
"794 102 OFFCURVE",
"539 102 CURVE SMOOTH",
"287 102 OFFCURVE",
"256 218 OFFCURVE",
"256 495 CURVE SMOOTH",
"256 607 OFFCURVE",
"264 681 OFFCURVE",
"275 732 CURVE SMOOTH",
"305 871 OFFCURVE",
"381 909 OFFCURVE",
"542 909 CURVE SMOOTH"
);
},
{
closed = 1;
nodes = (
"787 973 OFFCURVE",
"727 1033 OFFCURVE",
"506 1033 CURVE SMOOTH",
"414 1033 OFFCURVE",
"346 1017 OFFCURVE",
"298 995 CURVE SMOOTH",
"208 955 OFFCURVE",
"161 897 OFFCURVE",
"134 803 CURVE SMOOTH",
"111 727 OFFCURVE",
"100 611 OFFCURVE",
"100 497 CURVE SMOOTH",
"100 399 OFFCURVE",
"108 303 OFFCURVE",
"125 236 CURVE SMOOTH",
"169 55 OFFCURVE",
"300 -23 OFFCURVE",
"504 -23 CURVE SMOOTH",
"722 -23 OFFCURVE",
"802 59 OFFCURVE",
"850 134 CURVE",
"868 0 LINE",
"991 0 LINE",
"991 1441 LINE",
"837 1441 LINE",
"837 905 LINE"
);
}
);
};
layerId = "2F8B9CD4-7B7F-4ACC-ADF3-B6E0F7033A19";
paths = (
{
closed = 1;
nodes = (
"722 -23 OFFCURVE",
"802 59 OFFCURVE",
"850 134 CURVE",
"868 0 LINE",
"991 0 LINE",
"991 1441 LINE",
"837 1441 LINE",
"837 905 LINE",
"769 997 OFFCURVE",
"677 1033 OFFCURVE",
"506 1033 CURVE SMOOTH",
"197 1033 OFFCURVE",
"100 904 OFFCURVE",
"100 497 CURVE SMOOTH",
"100 123 OFFCURVE",
"213 -23 OFFCURVE",
"504 -23 CURVE SMOOTH"
);
},
{
closed = 1;
nodes = (
"324 102 OFFCURVE",
"256 196 OFFCURVE",
"256 495 CURVE SMOOTH",
"256 826 OFFCURVE",
"313 909 OFFCURVE",
"542 909 CURVE SMOOTH",
"778 909 OFFCURVE",
"837 828 OFFCURVE",
"837 505 CURVE SMOOTH",
"837 199 OFFCURVE",
"765 102 OFFCURVE",
"539 102 CURVE SMOOTH"
);
}
);
width = 1171;
}
);
leftKerningGroup = o;
leftMetricsKey = "=o";
note = d;
rightKerningGroup = d;
unicode = 0064;
},
{
glyphname = eth;
layers = (
{
background = {
paths = (
{
closed = 1;
nodes = (
"255 984 LINE",
"255 1146 OFFCURVE",
"333 1209 OFFCURVE",
"532 1209 CURVE SMOOTH",
"735 1209 OFFCURVE",
"815 1135 OFFCURVE",
"817 944 CURVE SMOOTH",
"817 680 LINE",
"753 774 OFFCURVE",
"660 810 OFFCURVE",
"484 810 CURVE SMOOTH",
"177 810 OFFCURVE",
"80 711 OFFCURVE",
"80 398 CURVE SMOOTH",
"80 71 OFFCURVE",
"185 -32 OFFCURVE",
"517 -32 CURVE SMOOTH",
"857 -32 OFFCURVE",
"964 80 OFFCURVE",
"964 433 CURVE SMOOTH",
"964 956 LINE SMOOTH",
"964 1213 OFFCURVE",
"824 1334 OFFCURVE",
"528 1334 CURVE SMOOTH",
"246 1334 OFFCURVE",
"113 1222 OFFCURVE",
"113 984 CURVE"
);
},
{
closed = 1;
nodes = (
"289 93 OFFCURVE",
"232 154 OFFCURVE",
"232 397 CURVE SMOOTH",
"232 625 OFFCURVE",
"283 680 OFFCURVE",
"505 680 CURVE SMOOTH",
"688 680 OFFCURVE",
"775 637 OFFCURVE",
"816 528 CURVE",
"817 366 LINE SMOOTH",
"818 169 OFFCURVE",
"735 93 OFFCURVE",
"519 93 CURVE SMOOTH"
);
},
{
closed = 1;
nodes = (
"643 965 LINE",
"1057 1267 LINE",
"978 1379 LINE",
"571 1065 LINE"
);
}
);
};
guideLines = (
{
position = "{818, 1011}";
}
);
layerId = "2F8B9CD4-7B7F-4ACC-ADF3-B6E0F7033A19";
paths = (
{
closed = 1;
nodes = (
"821 -32 OFFCURVE",
"964 117 OFFCURVE",
"964 433 CURVE SMOOTH",
"964 776 LINE SMOOTH",
"964 1127 OFFCURVE",
"674 1356 OFFCURVE",
"324 1356 CURVE",
"324 1215 LINE",
"664 1215 OFFCURVE",
"813 1010 OFFCURVE",
"816 764 CURVE SMOOTH",
"817 680 LINE",
"753 774 OFFCURVE",
"660 810 OFFCURVE",
"484 810 CURVE SMOOTH",
"209 810 OFFCURVE",
"80 678 OFFCURVE",
"80 398 CURVE SMOOTH",
"80 106 OFFCURVE",
"220 -32 OFFCURVE",
"517 -32 CURVE SMOOTH"
);
},
{
closed = 1;
nodes = (
"324 93 OFFCURVE",
"232 190 OFFCURVE",
"232 397 CURVE SMOOTH",
"232 589 OFFCURVE",
"319 680 OFFCURVE",
"505 680 CURVE SMOOTH",
"688 680 OFFCURVE",
"775 637 OFFCURVE",
"816 528 CURVE",
"817 366 LINE SMOOTH",
"818 180 OFFCURVE",
"723 93 OFFCURVE",
"519 93 CURVE SMOOTH"
);
},
{
closed = 1;
nodes = (
"1008 1253 LINE",
"936 1359 LINE",
"461 1026 LINE",
"533 920 LINE"
);
}
);
width = 1144;
}
);
leftKerningGroup = o;
note = eth;
rightKerningGroup = d;
unicode = 00F0;
},
{
glyphname = e;
layers = (
{
anchors = (
{
name = bottom;
position = "{538, 0}";
},
{
name = ogonek;
position = "{899, 80}";
},
{
name = top;
position = "{538, 1011}";
}
);
background = {
paths = (
{
closed = 1;
nodes = (
"261 678 OFFCURVE",
"273 731 OFFCURVE",
"286 771 CURVE SMOOTH",
"320 877 OFFCURVE",
"408 911 OFFCURVE",
"546 911 CURVE SMOOTH",
"677 911 OFFCURVE",
"756 884 OFFCURVE",
"791 789 CURVE SMOOTH",
"806 746 OFFCURVE",
"823 686 OFFCURVE",
"821 594 CURVE",
"258 594 LINE"
);
},
{
closed = 1;
nodes = (
"805 113 OFFCURVE",
"679 97 OFFCURVE",
"558 97 CURVE SMOOTH",
"501 97 OFFCURVE",
"418 105 OFFCURVE",
"379 129 CURVE",
"290 179 OFFCURVE",
"256 331 OFFCURVE",
"256 480 CURVE",
"977 480 LINE",
"977 510 OFFCURVE",
"978 543 OFFCURVE",
"978 577 CURVE SMOOTH",
"978 651 OFFCURVE",
"974 730 OFFCURVE",
"951 797 CURVE SMOOTH",
"934 845 OFFCURVE",
"917 878 OFFCURVE",
"902 898 CURVE SMOOTH",
"829 1001 OFFCURVE",
"694 1034 OFFCURVE",
"550 1034 CURVE SMOOTH",
"344 1034 OFFCURVE",
"205 967 OFFCURVE",
"142 792 CURVE SMOOTH",
"118 728 OFFCURVE",
"100 637 OFFCURVE",
"100 505 CURVE SMOOTH",
"100 374 OFFCURVE",
"117 282 OFFCURVE",
"141 217 CURVE SMOOTH",
"178 113 OFFCURVE",
"230 52 OFFCURVE",
"321 15 CURVE SMOOTH",
"375 -7 OFFCURVE",
"450 -23 OFFCURVE",
"554 -23 CURVE SMOOTH",
"682 -23 OFFCURVE",
"829 -3 OFFCURVE",
"899 80 CURVE SMOOTH",
"944 135 OFFCURVE",
"969 195 OFFCURVE",
"969 278 CURVE",
"812 278 LINE"
);
}
);
};
guideLines = (
{
position = "{707, 129}";
}
);
layerId = "2F8B9CD4-7B7F-4ACC-ADF3-B6E0F7033A19";
paths = (
{
closed = 1;
nodes = (
"836 -23 OFFCURVE",
"969 73 OFFCURVE",
"969 278 CURVE",
"812 278 LINE",
"806 148 OFFCURVE",
"735 97 OFFCURVE",
"558 97 CURVE SMOOTH",
"341 97 OFFCURVE",
"256 204 OFFCURVE",
"256 480 CURVE",
"977 480 LINE",
"977 510 OFFCURVE",
"978 543 OFFCURVE",
"978 577 CURVE SMOOTH",
"978 906 OFFCURVE",
"858 1034 OFFCURVE",
"550 1034 CURVE SMOOTH",
"223 1034 OFFCURVE",
"100 858 OFFCURVE",
"100 505 CURVE SMOOTH",
"100 125 OFFCURVE",
"227 -23 OFFCURVE",
"554 -23 CURVE SMOOTH"
);
},
{
closed = 1;
nodes = (
"266 835 OFFCURVE",
"336 911 OFFCURVE",
"546 911 CURVE SMOOTH",
"749 911 OFFCURVE",
"826 822 OFFCURVE",
"821 594 CURVE",
"258 594 LINE"
);
}
);
width = 1068;
}
);
leftKerningGroup = o;
leftMetricsKey = "=o";
note = e;
rightKerningGroup = e;
unicode = 0065;
},
{
glyphname = schwa;
layers = (
{
background = {
paths = (
{
closed = 1;
nodes = (
"767 333 OFFCURVE",
"755 280 OFFCURVE",
"742 240 CURVE SMOOTH",
"708 134 OFFCURVE",
"620 100 OFFCURVE",
"482 100 CURVE SMOOTH",
"351 100 OFFCURVE",
"272 127 OFFCURVE",
"237 222 CURVE SMOOTH",
"221 265 OFFCURVE",
"205 325 OFFCURVE",
"207 417 CURVE",
"770 417 LINE"
);
},
{
closed = 1;
nodes = (
"200 898 OFFCURVE",
"326 914 OFFCURVE",
"470 914 CURVE SMOOTH",
"527 914 OFFCURVE",
"610 906 OFFCURVE",
"649 882 CURVE",
"738 832 OFFCURVE",
"772 680 OFFCURVE",
"772 531 CURVE",
"51 531 LINE",
"51 438 OFFCURVE",
"42 312 OFFCURVE",
"77 214 CURVE SMOOTH",
"94 166 OFFCURVE",
"111 133 OFFCURVE",
"126 113 CURVE SMOOTH",
"202 12 OFFCURVE",
"334 -23 OFFCURVE",
"478 -23 CURVE SMOOTH",
"684 -23 OFFCURVE",
"823 44 OFFCURVE",
"886 219 CURVE SMOOTH",
"909 283 OFFCURVE",
"928 374 OFFCURVE",
"928 506 CURVE SMOOTH",
"928 637 OFFCURVE",
"911 729 OFFCURVE",
"887 794 CURVE SMOOTH",
"849 898 OFFCURVE",
"798 959 OFFCURVE",
"707 996 CURVE SMOOTH",
"653 1018 OFFCURVE",
"578 1034 OFFCURVE",
"474 1034 CURVE SMOOTH",
"346 1034 OFFCURVE",
"199 1014 OFFCURVE",
"129 931 CURVE SMOOTH",
"83 877 OFFCURVE",
"59 816 OFFCURVE",
"59 733 CURVE",
"193 733 LINE"
);
}
);
};
components = (
{
name = e;
transform = "{-1, 0, 0, -1, 1068, 1011}";
}
);
layerId = "2F8B9CD4-7B7F-4ACC-ADF3-B6E0F7033A19";
width = 1068;
}
);
leftKerningGroup = o;
rightKerningGroup = e;
unicode = 0259;
},
{
glyphname = f;
layers = (
{
anchors = (
{
name = bottom;
position = "{312, 0}";
},
{
name = top;
position = "{312, 1011}";
}
);
background = {
paths = (
{
closed = 1;
nodes = (
"386 1011 LINE",
"386 1196 LINE",
"386 1255 OFFCURVE",
"397 1279 OFFCURVE",
"424 1300 CURVE SMOOTH",
"445 1316 OFFCURVE",
"492 1321 OFFCURVE",
"534 1321 CURVE SMOOTH",
"596 1321 OFFCURVE",
"607 1318 OFFCURVE",
"651 1313 CURVE",
"651 1437 LINE",
"627 1441 OFFCURVE",
"592 1448 OFFCURVE",
"530 1448 CURVE SMOOTH",
"417 1448 OFFCURVE",
"363 1431 OFFCURVE",
"323 1406 CURVE SMOOTH",
"268 1372 OFFCURVE",
"232 1316 OFFCURVE",
"232 1135 CURVE SMOOTH",
"232 1011 LINE",
"50 1011 LINE",
"50 889 LINE",
"232 889 LINE",
"232 0 LINE",
"385 0 LINE",
"385 889 LINE",
"634 889 LINE",
"634 1011 LINE"
);
}
);
};
layerId = "2F8B9CD4-7B7F-4ACC-ADF3-B6E0F7033A19";
paths = (
{
closed = 1;
nodes = (
"385 0 LINE",
"385 889 LINE",
"634 889 LINE",
"634 1011 LINE",
"386 1011 LINE",
"386 1196 LINE SMOOTH",
"386 1291 OFFCURVE",
"422 1321 OFFCURVE",
"534 1321 CURVE SMOOTH",
"564 1321 OFFCURVE",
"606 1318 OFFCURVE",
"651 1313 CURVE",
"651 1437 LINE",
"609 1444 OFFCURVE",
"565 1448 OFFCURVE",
"530 1448 CURVE SMOOTH",
"304 1448 OFFCURVE",
"232 1373 OFFCURVE",
"232 1135 CURVE SMOOTH",
"232 1011 LINE",
"50 1011 LINE",
"50 889 LINE",
"232 889 LINE",
"232 0 LINE"
);
}
);
width = 716;
}
);
leftKerningGroup = f;
note = f;
rightKerningGroup = f;
unicode = 0066;
},
{
glyphname = g;
layers = (
{
anchors = (
{
name = bottom;
position = "{566, 0}";
},
{
name = top;
position = "{566, 1011}";
}
);
background = {
paths = (
{
closed = 1;
nodes = (
"619 911 OFFCURVE",
"670 901 OFFCURVE",
"706 888 CURVE SMOOTH",
"760 868 OFFCURVE",
"799 807 OFFCURVE",
"816 731 CURVE SMOOTH",
"828 676 OFFCURVE",
"837 608 OFFCURVE",
"837 496 CURVE SMOOTH",
"837 389 OFFCURVE",
"827 340 OFFCURVE",
"816 293 CURVE SMOOTH",
"789 174 OFFCURVE",
"701 115 OFFCURVE",
"545 115 CURVE SMOOTH",
"466 115 OFFCURVE",
"414 126 OFFCURVE",
"378 140 CURVE SMOOTH",
"318 163 OFFCURVE",
"293 207 OFFCURVE",
"276 283 CURVE SMOOTH",
"264 332 OFFCURVE",
"257 406 OFFCURVE",
"257 518 CURVE SMOOTH",
"257 632 OFFCURVE",
"264 773 OFFCURVE",
"312 837 CURVE SMOOTH",
"357 897 OFFCURVE",
"449 911 OFFCURVE",
"542 911 CURVE SMOOTH"
);
},
{
closed = 1;
nodes = (
"855 7 OFFCURVE",
"853 -33 OFFCURVE",
"849 -64 CURVE SMOOTH",
"835 -174 OFFCURVE",
"799 -231 OFFCURVE",
"716 -262 CURVE SMOOTH",
"665 -281 OFFCURVE",
"615 -282 OFFCURVE",
"546 -282 CURVE SMOOTH",
"492 -282 OFFCURVE",
"449 -283 OFFCURVE",
"400 -262 CURVE SMOOTH",
"326 -230 OFFCURVE",
"302 -193 OFFCURVE",
"300 -120 CURVE",
"143 -120 LINE",
"144 -253 OFFCURVE",
"218 -342 OFFCURVE",
"317 -377 CURVE SMOOTH",
"370 -396 OFFCURVE",
"438 -407 OFFCURVE",
"548 -407 CURVE SMOOTH",
"669 -407 OFFCURVE",
"792 -394 OFFCURVE",
"874 -316 CURVE SMOOTH",
"958 -236 OFFCURVE",
"990 -108 OFFCURVE",
"990 62 CURVE SMOOTH",
"990 1011 LINE",
"872 1011 LINE",
"856 876 LINE",
"772 1012 OFFCURVE",
"683 1034 OFFCURVE",
"507 1034 CURVE SMOOTH",
"410 1034 OFFCURVE",
"339 1015 OFFCURVE",
"287 991 CURVE SMOOTH",
"235 966 OFFCURVE",
"202 935 OFFCURVE",
"185 911 CURVE",
"114 821 OFFCURVE",
"100 660 OFFCURVE",
"100 507 CURVE SMOOTH",
"100 380 OFFCURVE",
"112 293 OFFCURVE",
"129 232 CURVE SMOOTH",
"154 138 OFFCURVE",
"197 72 OFFCURVE",
"283 32 CURVE SMOOTH",
"334 7 OFFCURVE",
"405 -12 OFFCURVE",
"501 -12 CURVE SMOOTH",
"665 -12 OFFCURVE",
"790 20 OFFCURVE",
"853 140 CURVE",
"854 56 LINE SMOOTH"
);
}
);
};
layerId = "2F8B9CD4-7B7F-4ACC-ADF3-B6E0F7033A19";
paths = (
{
closed = 1;
nodes = (
"866 -407 OFFCURVE",
"990 -276 OFFCURVE",
"990 62 CURVE SMOOTH",
"990 1011 LINE",
"872 1011 LINE",
"856 876 LINE",
"786 990 OFFCURVE",
"688 1034 OFFCURVE",
"507 1034 CURVE SMOOTH",
"198 1034 OFFCURVE",
"100 910 OFFCURVE",
"100 517 CURVE SMOOTH",
"100 136 OFFCURVE",
"212 -12 OFFCURVE",
"501 -12 CURVE SMOOTH",
"665 -12 OFFCURVE",
"790 20 OFFCURVE",
"853 140 CURVE",
"854 56 LINE SMOOTH",
"859 -201 OFFCURVE",
"785 -282 OFFCURVE",
"546 -282 CURVE SMOOTH",
"372 -282 OFFCURVE",
"304 -237 OFFCURVE",
"300 -120 CURVE",
"143 -120 LINE",
"145 -315 OFFCURVE",
"274 -407 OFFCURVE",
"548 -407 CURVE SMOOTH"
);
},
{
closed = 1;
nodes = (
"315 115 OFFCURVE",
"257 196 OFFCURVE",
"257 518 CURVE SMOOTH",
"257 832 OFFCURVE",
"314 911 OFFCURVE",
"542 911 CURVE SMOOTH",
"766 911 OFFCURVE",
"837 811 OFFCURVE",
"837 496 CURVE SMOOTH",
"837 235 OFFCURVE",
"777 115 OFFCURVE",
"545 115 CURVE SMOOTH"
);
}
);
width = 1170;
}
);
leftKerningGroup = o;
leftMetricsKey = "=o";
note = g;
rightKerningGroup = u;
rightMetricsKey = "=u";
unicode = 0067;
},
{
glyphname = h;
layers = (
{
anchors = (
{
name = bottom;
position = "{594, 0}";
},
{
name = center;
position = "{386, 1216}";
},
{
name = top;
position = "{694, 1011}";
}
);
background = {
paths = (
{
closed = 1;
nodes = (
"927 994 OFFCURVE",
"830 1038 OFFCURVE",
"675 1038 CURVE SMOOTH",
"580 1038 OFFCURVE",
"510 1033 OFFCURVE",
"445 998 CURVE SMOOTH",
"395 971 OFFCURVE",
"355 916 OFFCURVE",
"330 871 CURVE",
"333 1442 LINE",
"180 1442 LINE",
"181 1 LINE",
"335 1 LINE",
"335 598 LINE SMOOTH",
"335 698 OFFCURVE",
"360 783 OFFCURVE",
"397 822 CURVE SMOOTH",
"454 883 OFFCURVE",
"515 909 OFFCURVE",
"630 909 CURVE SMOOTH",
"672 909 OFFCURVE",
"696 906 OFFCURVE",
"720 902 CURVE SMOOTH",
"839 882 OFFCURVE",
"880 784 OFFCURVE",
"880 618 CURVE SMOOTH",
"880 1 LINE",
"1034 1 LINE",
"1034 588 LINE SMOOTH",
"1034 751 OFFCURVE",
"1020 838 OFFCURVE",
"975 909 CURVE"
);
}
);
};
layerId = "2F8B9CD4-7B7F-4ACC-ADF3-B6E0F7033A19";
paths = (
{
closed = 1;
nodes = (
"335 1 LINE",
"335 598 LINE SMOOTH",
"335 809 OFFCURVE",
"429 909 OFFCURVE",
"630 909 CURVE SMOOTH",
"810 909 OFFCURVE",
"880 828 OFFCURVE",
"880 618 CURVE SMOOTH",
"880 1 LINE",
"1034 1 LINE",
"1034 588 LINE SMOOTH",
"1034 900 OFFCURVE",
"948 1038 OFFCURVE",
"675 1038 CURVE SMOOTH",
"484 1038 OFFCURVE",
"401 998 OFFCURVE",
"330 871 CURVE",
"333 1442 LINE",
"180 1442 LINE",
"181 1 LINE"
);
}
);
width = 1209;
}
);
leftKerningGroup = h;
leftMetricsKey = "=n";
note = h;
rightKerningGroup = n;
rightMetricsKey = "=n";
unicode = 0068;
},
{
glyphname = i;
layers = (
{
anchors = (
{
name = bottom;
position = "{284, 0}";
}
);
background = {
paths = (
{
closed = 1;
nodes = (
"382 1211 OFFCURVE",
"358 1184 OFFCURVE",
"285 1184 CURVE",
"211 1184 OFFCURVE",
"180 1211 OFFCURVE",
"180 1282 CURVE",
"180 1353 OFFCURVE",
"210 1381 OFFCURVE",
"285 1381 CURVE",
"358 1381 OFFCURVE",
"382 1353 OFFCURVE",
"382 1282 CURVE"
);
}
);
};
layerId = "2F8B9CD4-7B7F-4ACC-ADF3-B6E0F7033A19";
paths = (
{
closed = 1;
nodes = (
"358 0 LINE",
"358 1011 LINE",
"205 1011 LINE",
"205 0 LINE"
);
},
{
closed = 1;
nodes = (
"384 1194 LINE",
"384 1386 LINE",
"179 1386 LINE",
"179 1194 LINE"
);
}
);
width = 563;
}
);
leftKerningGroup = i;
note = i;
rightKerningGroup = i;
unicode = 0069;
},
{
glyphname = idotless;
layers = (
{
anchors = (
{
name = bottom;
position = "{239, 0}";
},
{
name = ogonek;
position = "{312, 0}";
},
{
name = top;
position = "{235, 1011}";
}
);
layerId = "2F8B9CD4-7B7F-4ACC-ADF3-B6E0F7033A19";
paths = (
{
closed = 1;
nodes = (
"312 0 LINE",
"312 1011 LINE",
"158 1011 LINE",
"158 0 LINE"
);
}
);
width = 470;
}
);
leftKerningGroup = i;
note = dotlessi;
rightKerningGroup = i;
unicode = 0131;
},
{
glyphname = j;
layers = (
{
background = {
paths = (
{
closed = 1;
nodes = (
"387 1211 OFFCURVE",
"363 1184 OFFCURVE",
"290 1184 CURVE",
"216 1184 OFFCURVE",
"185 1211 OFFCURVE",
"185 1282 CURVE",
"185 1353 OFFCURVE",
"215 1381 OFFCURVE",
"290 1381 CURVE",
"363 1381 OFFCURVE",
"387 1353 OFFCURVE",
"387 1282 CURVE"
);
}
);
};
guideLines = (
{
position = "{306, -402}";
}
);
layerId = "2F8B9CD4-7B7F-4ACC-ADF3-B6E0F7033A19";
paths = (
{
closed = 1;
nodes = (
"276 -402 OFFCURVE",
"359 -314 OFFCURVE",
"359 -87 CURVE SMOOTH",
"359 1011 LINE",
"206 1011 LINE",
"205 -108 LINE SMOOTH",
"205 -234 OFFCURVE",
"172 -266 OFFCURVE",
"41 -266 CURVE SMOOTH",
"6 -266 OFFCURVE",
"-33 -262 OFFCURVE",
"-65 -255 CURVE",
"-65 -388 LINE",
"-29 -397 OFFCURVE",
"16 -402 OFFCURVE",
"61 -402 CURVE SMOOTH"
);
},
{
closed = 1;
nodes = (
"388 1194 LINE",
"388 1386 LINE",
"183 1386 LINE",
"183 1194 LINE"
);
}
);
width = 564;
}
);
leftKerningGroup = j;
note = j;
rightKerningGroup = i;
unicode = 006A;
},
{
glyphname = jdotless;
layers = (
{
anchors = (
{
name = bottom;
position = "{280, 0}";
},
{
name = top;
position = "{280, 1011}";
}
);
layerId = "2F8B9CD4-7B7F-4ACC-ADF3-B6E0F7033A19";
paths = (
{
closed = 1;
nodes = (
"276 -402 OFFCURVE",
"359 -314 OFFCURVE",
"359 -87 CURVE SMOOTH",
"359 1011 LINE",
"206 1011 LINE",
"205 -108 LINE SMOOTH",
"205 -234 OFFCURVE",
"172 -266 OFFCURVE",
"41 -266 CURVE SMOOTH",
"6 -266 OFFCURVE",
"-33 -262 OFFCURVE",
"-65 -255 CURVE",
"-65 -388 LINE",
"-29 -397 OFFCURVE",
"16 -402 OFFCURVE",
"61 -402 CURVE SMOOTH"
);
}
);
width = 564;
}
);
leftKerningGroup = j;
rightKerningGroup = i;
unicode = 0237;
},
{
glyphname = k;
layers = (
{
anchors = (
{
name = bottom;
position = "{520, 0}";
},
{
name = top;
position = "{520, 1011}";
}
);
background = {
paths = (
{
closed = 1;
nodes = (
"333 0 LINE",
"333 474 LINE",
"547 474 LINE",
"706 474 OFFCURVE",
"738 457 OFFCURVE",
"825 0 CURVE",
"985 0 LINE",
"891 436 OFFCURVE",
"865 504 OFFCURVE",
"715 547 CURVE",
"910 597 OFFCURVE",
"942 656 OFFCURVE",
"942 1011 CURVE",
"789 1011 LINE",
"789 933 OFFCURVE",
"789 875 OFFCURVE",
"789 830 CURVE SMOOTH",
"789 752 OFFCURVE",
"757 697 OFFCURVE",
"727 671 CURVE SMOOTH",
"686 636 OFFCURVE",
"619 620 OFFCURVE",
"514 620 CURVE",
"333 620 LINE",
"333 1441 LINE",
"180 1441 LINE",
"180 0 LINE"
);
}
);
};
layerId = "2F8B9CD4-7B7F-4ACC-ADF3-B6E0F7033A19";
paths = (
{
closed = 1;
nodes = (
"333 0 LINE",
"333 474 LINE",
"427 474 LINE SMOOTH",
"565 474 OFFCURVE",
"621 428 OFFCURVE",
"708 246 CURVE SMOOTH",
"825 0 LINE",
"995 0 LINE",
"870 259 LINE SMOOTH",
"768 471 OFFCURVE",
"729 530 OFFCURVE",
"569 554 CURVE",
"561 539 LINE",
"739 566 OFFCURVE",
"781 628 OFFCURVE",
"860 805 CURVE SMOOTH",
"952 1011 LINE",
"789 1011 LINE",
"697 813 LINE SMOOTH",
"630 667 OFFCURVE",
"572 620 OFFCURVE",
"426 620 CURVE SMOOTH",
"333 620 LINE",
"333 1441 LINE",
"180 1441 LINE",
"180 0 LINE"
);
}
);
width = 1115;
}
);
leftKerningGroup = h;
leftMetricsKey = "=h";
note = k;
rightKerningGroup = k;
unicode = 006B;
},
{
glyphname = kgreenlandic;
layers = (
{
anchors = (
{
name = bottom;
position = "{542, 0}";
},
{
name = top;
position = "{542, 1011}";
}
);
background = {
paths = (
{
closed = 1;
nodes = (
"211 0 LINE",
"211 474 LINE",
"425 474 LINE",
"584 474 OFFCURVE",
"616 457 OFFCURVE",
"703 0 CURVE",
"853 0 LINE",
"759 436 OFFCURVE",
"733 504 OFFCURVE",
"593 547 CURVE",
"778 597 OFFCURVE",
"810 656 OFFCURVE",
"810 1011 CURVE",
"667 1011 LINE",
"667 933 OFFCURVE",
"667 875 OFFCURVE",
"667 830 CURVE SMOOTH",
"667 752 OFFCURVE",
"650 697 OFFCURVE",
"620 671 CURVE SMOOTH",
"579 636 OFFCURVE",
"517 620 OFFCURVE",
"412 620 CURVE",
"211 620 LINE",
"211 1011 LINE",
"58 1011 LINE",
"58 0 LINE"
);
}
);
};
layerId = "2F8B9CD4-7B7F-4ACC-ADF3-B6E0F7033A19";
paths = (
{
closed = 1;
nodes = (
"333 0 LINE",
"333 414 LINE",
"427 414 LINE SMOOTH",
"565 414 OFFCURVE",
"600 358 OFFCURVE",
"708 186 CURVE SMOOTH",
"825 0 LINE",
"995 0 LINE",
"870 199 LINE SMOOTH",
"746 397 OFFCURVE",
"729 470 OFFCURVE",
"569 494 CURVE",
"561 479 LINE",
"739 506 OFFCURVE",
"772 568 OFFCURVE",
"867 790 CURVE SMOOTH",
"962 1011 LINE",
"799 1011 LINE",
"705 798 LINE SMOOTH",
"620 606 OFFCURVE",
"572 560 OFFCURVE",
"426 560 CURVE SMOOTH",
"333 560 LINE",
"333 1011 LINE",
"180 1011 LINE",
"180 0 LINE"
);
}
);
width = 1045;
}
);
leftKerningGroup = n;
leftMetricsKey = "=k";
rightKerningGroup = kgreenlandic;
unicode = 0138;
},
{
glyphname = l;
layers = (
{
anchors = (
{
name = bottom;
position = "{257, 0}";
},
{
name = center;
position = "{448, 662}";
},
{
name = top;
position = "{257, 1441}";
},
{
name = topright;
position = "{379, 1011}";
}
);
layerId = "2F8B9CD4-7B7F-4ACC-ADF3-B6E0F7033A19";
paths = (
{
closed = 1;
nodes = (
"333 0 LINE",
"333 1441 LINE",
"180 1441 LINE",
"180 0 LINE"
);
}
);
width = 513;
}
);
leftKerningGroup = h;
leftMetricsKey = "=h";
note = l;
rightKerningGroup = d;
rightMetricsKey = "=d";
unicode = 006C;
},
{
glyphname = lslash;
layers = (
{
components = (
{
name = l;
}
);
layerId = "2F8B9CD4-7B7F-4ACC-ADF3-B6E0F7033A19";
paths = (
{
closed = 1;
nodes = (
"508 895 LINE",
"504 1037 LINE",
"5 722 LINE",
"5 578 LINE"
);
}
);
width = 513;
}
);
leftKerningGroup = l;
note = lslash;
rightKerningGroup = l;
unicode = 0142;
},
{
glyphname = m;
layers = (
{
anchors = (
{
name = bottom;
position = "{887, 0}";
},
{
name = top;
position = "{887, 1011}";
}
);
background = {
paths = (
{
closed = 1;
nodes = (
"1581 851 OFFCURVE",
"1563 924 OFFCURVE",
"1499 972 CURVE SMOOTH",
"1458 1003 OFFCURVE",
"1389 1034 OFFCURVE",
"1276 1034 CURVE SMOOTH",
"1186 1034 OFFCURVE",
"1096 1024 OFFCURVE",
"1024 972 CURVE SMOOTH",
"991 948 OFFCURVE",
"953 900 OFFCURVE",
"937 865 CURVE",
"884 986 OFFCURVE",
"796 1034 OFFCURVE",
"640 1034 CURVE SMOOTH",
"544 1034 OFFCURVE",
"474 1017 OFFCURVE",
"423 982 CURVE SMOOTH",
"372 946 OFFCURVE",
"340 910 OFFCURVE",
"318 868 CURVE",
"307 1011 LINE",
"180 1011 LINE",
"180 0 LINE",
"333 0 LINE",
"333 538 LINE SMOOTH",
"333 595 OFFCURVE",
"335 642 OFFCURVE",
"339 679 CURVE SMOOTH",
"347 754 OFFCURVE",
"361 800 OFFCURVE",
"379 825 CURVE SMOOTH",
"426 890 OFFCURVE",
"500 910 OFFCURVE",
"596 910 CURVE SMOOTH",
"697 910 OFFCURVE",
"769 883 OFFCURVE",
"794 799 CURVE SMOOTH",
"806 759 OFFCURVE",
"814 698 OFFCURVE",
"814 603 CURVE SMOOTH",
"814 0 LINE",
"968 0 LINE",
"968 582 LINE SMOOTH",
"968 730 OFFCURVE",
"985 847 OFFCURVE",
"1083 886 CURVE SMOOTH",
"1115 899 OFFCURVE",
"1161 909 OFFCURVE",
"1232 909 CURVE SMOOTH",
"1414 909 OFFCURVE",
"1450 823 OFFCURVE",
"1450 619 CURVE SMOOTH",
"1450 0 LINE",
"1603 0 LINE",
"1603 586 LINE SMOOTH",
"1603 651 OFFCURVE",
"1600 704 OFFCURVE",
"1595 745 CURVE SMOOTH"
);
}
);
};
layerId = "2F8B9CD4-7B7F-4ACC-ADF3-B6E0F7033A19";
paths = (
{
closed = 1;
nodes = (
"333 0 LINE",
"333 658 LINE SMOOTH",
"333 829 OFFCURVE",
"417 910 OFFCURVE",
"596 910 CURVE SMOOTH",
"753 910 OFFCURVE",
"814 839 OFFCURVE",
"814 658 CURVE SMOOTH",
"814 0 LINE",
"968 0 LINE",
"968 658 LINE SMOOTH",
"968 829 OFFCURVE",
"1052 909 OFFCURVE",
"1232 909 CURVE SMOOTH",
"1389 909 OFFCURVE",
"1450 839 OFFCURVE",
"1450 658 CURVE SMOOTH",
"1450 0 LINE",
"1603 0 LINE",
"1603 658 LINE SMOOTH",
"1603 913 OFFCURVE",
"1511 1034 OFFCURVE",
"1276 1034 CURVE SMOOTH",
"1099 1034 OFFCURVE",
"990 980 OFFCURVE",
"937 865 CURVE",
"884 986 OFFCURVE",
"796 1034 OFFCURVE",
"640 1034 CURVE SMOOTH",
"490 1034 OFFCURVE",
"374 974 OFFCURVE",
"318 868 CURVE",
"307 1011 LINE",
"180 1011 LINE",
"180 0 LINE"
);
}
);
width = 1778;
}
);
leftKerningGroup = n;
leftMetricsKey = "=n";
note = m;
rightKerningGroup = n;
rightMetricsKey = "=n";
unicode = 006D;
},
{
glyphname = n;
layers = (
{
anchors = (
{
name = bottom;
position = "{602, 0}";
},
{
name = top;
position = "{602, 1011}";
}
);
background = {
paths = (
{
closed = 1;
nodes = (
"926 993 OFFCURVE",
"829 1037 OFFCURVE",
"674 1037 CURVE SMOOTH",
"579 1037 OFFCURVE",
"509 1032 OFFCURVE",
"444 997 CURVE SMOOTH",
"394 970 OFFCURVE",
"343 913 OFFCURVE",
"318 868 CURVE",
"306 1011 LINE",
"180 1011 LINE",
"180 0 LINE",
"334 0 LINE",
"334 609 LINE SMOOTH",
"334 709 OFFCURVE",
"357 791 OFFCURVE",
"394 830 CURVE SMOOTH",
"451 891 OFFCURVE",
"514 908 OFFCURVE",
"629 908 CURVE SMOOTH",
"671 908 OFFCURVE",
"695 905 OFFCURVE",
"719 901 CURVE SMOOTH",
"838 883 OFFCURVE",
"879 783 OFFCURVE",
"879 617 CURVE SMOOTH",
"879 0 LINE",
"1033 0 LINE",
"1033 587 LINE SMOOTH",
"1033 750 OFFCURVE",
"1019 837 OFFCURVE",
"974 908 CURVE"
);
}
);
};
layerId = "2F8B9CD4-7B7F-4ACC-ADF3-B6E0F7033A19";
paths = (
{
closed = 1;
nodes = (
"334 0 LINE",
"334 609 LINE SMOOTH",
"334 824 OFFCURVE",
"417 908 OFFCURVE",
"629 908 CURVE SMOOTH",
"809 908 OFFCURVE",
"879 827 OFFCURVE",
"879 617 CURVE SMOOTH",
"879 0 LINE",
"1033 0 LINE",
"1033 617 LINE SMOOTH",
"1033 919 OFFCURVE",
"932 1037 OFFCURVE",
"674 1037 CURVE SMOOTH",
"484 1037 OFFCURVE",
"385 990 OFFCURVE",
"318 868 CURVE",
"306 1011 LINE",
"180 1011 LINE",
"180 0 LINE"
);
}
);
width = 1208;
}
);
leftKerningGroup = n;
note = n;
rightKerningGroup = n;
unicode = 006E;
},
{
glyphname = eng;
layers = (
{
anchors = (
{
name = bottom;
position = "{602, 0}";
},
{
name = top;
position = "{602, 1011}";
}
);
layerId = "2F8B9CD4-7B7F-4ACC-ADF3-B6E0F7033A19";
paths = (
{
closed = 1;
nodes = (
"950 -402 OFFCURVE",
"1033 -314 OFFCURVE",
"1033 -87 CURVE SMOOTH",
"1033 617 LINE SMOOTH",
"1033 919 OFFCURVE",
"932 1037 OFFCURVE",
"674 1037 CURVE SMOOTH",
"484 1037 OFFCURVE",
"385 990 OFFCURVE",
"318 868 CURVE",
"306 1011 LINE",
"180 1011 LINE",
"180 0 LINE",
"334 0 LINE",
"334 609 LINE SMOOTH",
"334 824 OFFCURVE",
"417 908 OFFCURVE",
"629 908 CURVE SMOOTH",
"809 908 OFFCURVE",
"879 827 OFFCURVE",
"879 617 CURVE SMOOTH",
"879 -108 LINE SMOOTH",
"879 -234 OFFCURVE",
"846 -266 OFFCURVE",
"715 -266 CURVE SMOOTH",
"680 -266 OFFCURVE",
"641 -262 OFFCURVE",
"609 -255 CURVE",
"609 -388 LINE",
"645 -397 OFFCURVE",
"690 -402 OFFCURVE",
"735 -402 CURVE SMOOTH"
);
}
);
width = 1209;
}
);
leftKerningGroup = n;
leftMetricsKey = "=n";
rightKerningGroup = n;
rightMetricsKey = "=j";
unicode = 014B;
},
{
glyphname = o;
layers = (
{
anchors = (
{
name = bottom;
position = "{568, 0}";
},
{
name = center;
position = "{568, 506}";
},
{
name = ogonek;
position = "{645, -3}";
},
{
name = top;
position = "{568, 1011}";
},
{
name = topright;
position = "{740, 1012}";
}
);
background = {
paths = (
{
closed = 1;
nodes = (
"665 909 OFFCURVE",
"748 898 OFFCURVE",
"800 836 CURVE SMOOTH",
"856 769 OFFCURVE",
"877 634 OFFCURVE",
"877 504 CURVE SMOOTH",
"877 393 OFFCURVE",
"869 321 OFFCURVE",
"856 272 CURVE SMOOTH",
"822 141 OFFCURVE",
"733 102 OFFCURVE",
"571 102 CURVE SMOOTH",
"409 102 OFFCURVE",
"314 137 OFFCURVE",
"280 270 CURVE SMOOTH",
"268 319 OFFCURVE",
"257 391 OFFCURVE",
"257 502 CURVE SMOOTH",
"257 636 OFFCURVE",
"267 746 OFFCURVE",
"332 831 CURVE SMOOTH",
"379 893 OFFCURVE",
"469 909 OFFCURVE",
"565 909 CURVE"
);
},
{
closed = 1;
nodes = (
"432 1034 OFFCURVE",
"280 997 OFFCURVE",
"205 912 CURVE SMOOTH",
"123 819 OFFCURVE",
"100 663 OFFCURVE",
"100 506 CURVE SMOOTH",
"100 379 OFFCURVE",
"116 289 OFFCURVE",
"137 225 CURVE SMOOTH",
"195 46 OFFCURVE",
"348 -23 OFFCURVE",
"565 -23 CURVE SMOOTH",
"781 -23 OFFCURVE",
"937 38 OFFCURVE",
"997 225 CURVE SMOOTH",
"1018 289 OFFCURVE",
"1034 381 OFFCURVE",
"1034 509 CURVE SMOOTH",
"1034 663 OFFCURVE",
"1013 816 OFFCURVE",
"928 913 CURVE SMOOTH",
"852 996 OFFCURVE",
"702 1034 OFFCURVE",
"565 1034 CURVE SMOOTH"
);
}
);
};
layerId = "2F8B9CD4-7B7F-4ACC-ADF3-B6E0F7033A19";
paths = (
{
closed = 1;
nodes = (
"903 -23 OFFCURVE",
"1034 126 OFFCURVE",
"1034 509 CURVE SMOOTH",
"1034 887 OFFCURVE",
"903 1034 OFFCURVE",
"565 1034 CURVE SMOOTH",
"230 1034 OFFCURVE",
"100 886 OFFCURVE",
"100 506 CURVE SMOOTH",
"100 125 OFFCURVE",
"230 -23 OFFCURVE",
"565 -23 CURVE SMOOTH"
);
},
{
closed = 1;
nodes = (
"332 102 OFFCURVE",
"257 198 OFFCURVE",
"257 502 CURVE SMOOTH",
"257 811 OFFCURVE",
"331 909 OFFCURVE",
"565 909 CURVE",
"802 909 OFFCURVE",
"877 812 OFFCURVE",
"877 504 CURVE SMOOTH",
"877 198 OFFCURVE",
"804 102 OFFCURVE",
"571 102 CURVE SMOOTH"
);
}
);
width = 1134;
}
);
leftKerningGroup = o;
note = o;
rightKerningGroup = o;
unicode = 006F;
},
{
glyphname = oe;
layers = (
{
anchors = (
{
name = bottom;
position = "{921, 0}";
},
{
name = center;
position = "{568, 506}";
},
{
name = ogonek;
position = "{645, -3}";
},
{
name = top;
position = "{921, 1011}";
},
{
name = topright;
position = "{740, 1012}";
}
);
background = {
paths = (
{
closed = 1;
nodes = (
"96 379 OFFCURVE",
"112 289 OFFCURVE",
"133 225 CURVE SMOOTH",
"192 46 OFFCURVE",
"344 -23 OFFCURVE",
"561 -23 CURVE SMOOTH",
"737.915 -23 OFFCURVE",
"872 18 OFFCURVE",
"950 135 CURVE",
"983 79 OFFCURVE",
"1031 41 OFFCURVE",
"1095 15 CURVE SMOOTH",
"1149 -7 OFFCURVE",
"1222 -23 OFFCURVE",
"1326 -23 CURVE SMOOTH",
"1454 -23 OFFCURVE",
"1601 -3 OFFCURVE",
"1671 80 CURVE SMOOTH",
"1717 134 OFFCURVE",
"1741 195 OFFCURVE",
"1741 278 CURVE",
"1607 278 LINE",
"1600 113 OFFCURVE",
"1474 97 OFFCURVE",
"1330 97 CURVE SMOOTH",
"1273 97 OFFCURVE",
"1190 105 OFFCURVE",
"1151 129 CURVE",
"1068.847 175.153 OFFCURVE",
"1033.557 308.216 OFFCURVE",
"1028.613 445.605 CURVE",
"1029.719 480 LINE",
"1749 480 LINE",
"1749 573 OFFCURVE",
"1758 699 OFFCURVE",
"1723 797 CURVE SMOOTH",
"1706 845 OFFCURVE",
"1689 878 OFFCURVE",
"1674 898 CURVE SMOOTH",
"1598 999 OFFCURVE",
"1466 1034 OFFCURVE",
"1322 1034 CURVE SMOOTH",
"1151.626 1034 OFFCURVE",
"1018 988 OFFCURVE",
"943 873 CURVE",
"886 987 OFFCURVE",
"714 1034 OFFCURVE",
"561 1034 CURVE SMOOTH",
"428 1034 OFFCURVE",
"276 997 OFFCURVE",
"201 912 CURVE SMOOTH",
"119 819 OFFCURVE",
"96 663 OFFCURVE",
"96 506 CURVE SMOOTH"
);
},
{
closed = 1;
nodes = (
"253 636 OFFCURVE",
"263 746 OFFCURVE",
"328 831 CURVE SMOOTH",
"375 893 OFFCURVE",
"465 909 OFFCURVE",
"561 909 CURVE SMOOTH",
"661 909 OFFCURVE",
"744 898 OFFCURVE",
"796 836 CURVE SMOOTH",
"846.856 775.155 OFFCURVE",
"866 658 OFFCURVE",
"869 540 CURVE",
"869 529 OFFCURVE",
"869 517 OFFCURVE",
"869 505 CURVE SMOOTH",
"870 463 LINE SMOOTH",
"872 375 OFFCURVE",
"863.326 314.691 OFFCURVE",
"852 272 CURVE SMOOTH",
"817 141 OFFCURVE",
"729 102 OFFCURVE",
"567 102 CURVE SMOOTH",
"405 102 OFFCURVE",
"309 137 OFFCURVE",
"276 270 CURVE SMOOTH",
"264 319 OFFCURVE",
"253 391 OFFCURVE",
"253 502 CURVE SMOOTH"
);
},
{
closed = 1;
nodes = (
"1033 678 OFFCURVE",
"1045 731 OFFCURVE",
"1058 771 CURVE SMOOTH",
"1092 877 OFFCURVE",
"1180 911 OFFCURVE",
"1318 911 CURVE SMOOTH",
"1449 911 OFFCURVE",
"1528 884 OFFCURVE",
"1563 789 CURVE SMOOTH",
"1579 746 OFFCURVE",
"1595 686 OFFCURVE",
"1593 594 CURVE",
"1030 594 LINE"
);
}
);
};
layerId = "2F8B9CD4-7B7F-4ACC-ADF3-B6E0F7033A19";
paths = (
{
closed = 1;
nodes = (
"903 -23 OFFCURVE",
"1014 126 OFFCURVE",
"1014 509 CURVE SMOOTH",
"1014 887 OFFCURVE",
"903 1034 OFFCURVE",
"565 1034 CURVE SMOOTH",
"230 1034 OFFCURVE",
"100 886 OFFCURVE",
"100 506 CURVE SMOOTH",
"100 125 OFFCURVE",
"230 -23 OFFCURVE",
"565 -23 CURVE SMOOTH"
);
},
{
closed = 1;
nodes = (
"332 102 OFFCURVE",
"257 198 OFFCURVE",
"257 502 CURVE SMOOTH",
"257 811 OFFCURVE",
"331 909 OFFCURVE",
"565 909 CURVE",
"802 909 OFFCURVE",
"877 812 OFFCURVE",
"877 504 CURVE SMOOTH",
"877 198 OFFCURVE",
"804 102 OFFCURVE",
"571 102 CURVE SMOOTH"
);
},
{
closed = 1;
nodes = (
"1615 -23 OFFCURVE",
"1748 73 OFFCURVE",
"1748 278 CURVE",
"1591 278 LINE",
"1585 148 OFFCURVE",
"1514 97 OFFCURVE",
"1337 97 CURVE SMOOTH",
"1120 97 OFFCURVE",
"1035 204 OFFCURVE",
"1035 480 CURVE",
"1756 480 LINE",
"1756 510 OFFCURVE",
"1757 543 OFFCURVE",
"1757 577 CURVE SMOOTH",
"1757 906 OFFCURVE",
"1637 1034 OFFCURVE",
"1329 1034 CURVE SMOOTH",
"1002 1034 OFFCURVE",
"899 858 OFFCURVE",
"899 505 CURVE SMOOTH",
"899 125 OFFCURVE",
"1006 -23 OFFCURVE",
"1333 -23 CURVE SMOOTH"
);
},
{
closed = 1;
nodes = (
"1045 835 OFFCURVE",
"1115 911 OFFCURVE",
"1325 911 CURVE SMOOTH",
"1528 911 OFFCURVE",
"1605 822 OFFCURVE",
"1600 594 CURVE",
"1037 594 LINE"
);
}
);
width = 1847;
}
);
leftKerningGroup = o;
leftMetricsKey = "=o";
note = oe;
rightKerningGroup = e;
rightMetricsKey = "=e";
unicode = 0153;
},
{
glyphname = p;
layers = (
{
anchors = (
{
name = bottom;
position = "{599, 0}";
},
{
name = top;
position = "{599, 1011}";
}
);
background = {
paths = (
{
closed = 1;
nodes = (
"560 102 OFFCURVE",
"523 109 OFFCURVE",
"500 117 CURVE SMOOTH",
"447 135 OFFCURVE",
"396 191 OFFCURVE",
"368 262 CURVE SMOOTH",
"344 321 OFFCURVE",
"329 401 OFFCURVE",
"329 510 CURVE SMOOTH",
"329 622 OFFCURVE",
"338 693 OFFCURVE",
"350 741 CURVE SMOOTH",
"384 871 OFFCURVE",
"468 907 OFFCURVE",
"627 907 CURVE SMOOTH",
"704 907 OFFCURVE",
"755 897 OFFCURVE",
"790 882 CURVE SMOOTH",
"845 858 OFFCURVE",
"870 822 OFFCURVE",
"889 747 CURVE SMOOTH",
"900 699 OFFCURVE",
"908 628 OFFCURVE",
"908 517 CURVE SMOOTH",
"908 404 OFFCURVE",
"900 327 OFFCURVE",
"889 275 CURVE SMOOTH",
"871 195 OFFCURVE",
"856 152 OFFCURVE",
"797 127 CURVE SMOOTH",
"761 112 OFFCURVE",
"700 102 OFFCURVE",
"623 102 CURVE SMOOTH"
);
},
{
closed = 1;
nodes = (
"380 35 OFFCURVE",
"439 -23 OFFCURVE",
"660 -23 CURVE SMOOTH",
"752 -23 OFFCURVE",
"820 -7 OFFCURVE",
"868 15 CURVE SMOOTH",
"958 56 OFFCURVE",
"1005 113 OFFCURVE",
"1032 207 CURVE SMOOTH",
"1054 285 OFFCURVE",
"1066 403 OFFCURVE",
"1066 518 CURVE SMOOTH",
"1066 614 OFFCURVE",
"1057 709 OFFCURVE",
"1041 774 CURVE SMOOTH",
"995 955 OFFCURVE",
"866 1033 OFFCURVE",
"662 1033 CURVE SMOOTH",
"444 1033 OFFCURVE",
"363 950 OFFCURVE",
"316 875 CURVE",
"298 1010 LINE",
"175 1010 LINE",
"175 -389 LINE",
"329 -389 LINE",
"329 103 LINE"
);
}
);
};
layerId = "2F8B9CD4-7B7F-4ACC-ADF3-B6E0F7033A19";
paths = (
{
closed = 1;
nodes = (
"329 -389 LINE",
"329 103 LINE",
"397 12 OFFCURVE",
"490 -23 OFFCURVE",
"660 -23 CURVE SMOOTH",
"952 -23 OFFCURVE",
"1066 128 OFFCURVE",
"1066 518 CURVE SMOOTH",
"1066 889 OFFCURVE",
"953 1033 OFFCURVE",
"662 1033 CURVE SMOOTH",
"484 1033 OFFCURVE",
"387 989 OFFCURVE",
"316 875 CURVE",
"298 1010 LINE",
"175 1010 LINE",
"175 -389 LINE"
);
},
{
closed = 1;
nodes = (
"400 102 OFFCURVE",
"329 251 OFFCURVE",
"329 510 CURVE SMOOTH",
"329 828 OFFCURVE",
"389 907 OFFCURVE",
"627 907 CURVE SMOOTH",
"852 907 OFFCURVE",
"908 829 OFFCURVE",
"908 517 CURVE SMOOTH",
"908 185 OFFCURVE",
"851 102 OFFCURVE",
"623 102 CURVE SMOOTH"
);
}
);
width = 1166;
}
);
leftKerningGroup = n;
note = p;
rightKerningGroup = o;
rightMetricsKey = "=o";
unicode = 0070;
},
{
glyphname = thorn;
layers = (
{
anchors = (
{
name = bottom;
position = "{581, 0}";
},
{
name = top;
position = "{581, 1011}";
}
);
background = {
paths = (
{
closed = 1;
nodes = (
"362 35 OFFCURVE",
"421 -23 OFFCURVE",
"642 -23 CURVE SMOOTH",
"734 -23 OFFCURVE",
"802 -7 OFFCURVE",
"850 15 CURVE SMOOTH",
"940 56 OFFCURVE",
"987 113 OFFCURVE",
"1014 207 CURVE SMOOTH",
"1055 351 OFFCURVE",
"1059 631 OFFCURVE",
"1023 774 CURVE SMOOTH",
"977 955 OFFCURVE",
"848 1033 OFFCURVE",
"644 1033 CURVE SMOOTH",
"426 1033 OFFCURVE",
"350 950 OFFCURVE",
"300 875 CURVE",
"300 1441 LINE",
"157 1441 LINE",
"157 -302 LINE",
"311 -302 LINE",
"311 103 LINE"
);
},
{
closed = 1;
nodes = (
"542 102 OFFCURVE",
"505 109 OFFCURVE",
"482 117 CURVE SMOOTH",
"429 135 OFFCURVE",
"378 191 OFFCURVE",
"350 262 CURVE SMOOTH",
"326 321 OFFCURVE",
"311 401 OFFCURVE",
"311 510 CURVE SMOOTH",
"311 622 OFFCURVE",
"320 693 OFFCURVE",
"332 741 CURVE SMOOTH",
"366 871 OFFCURVE",
"450 907 OFFCURVE",
"609 907 CURVE SMOOTH",
"686 907 OFFCURVE",
"737 897 OFFCURVE",
"772 882 CURVE SMOOTH",
"827 858 OFFCURVE",
"852 822 OFFCURVE",
"871 747 CURVE SMOOTH",
"882 699 OFFCURVE",
"890 628 OFFCURVE",
"890 517 CURVE SMOOTH",
"890 404 OFFCURVE",
"882 327 OFFCURVE",
"871 275 CURVE SMOOTH",
"853 195 OFFCURVE",
"838 152 OFFCURVE",
"779 127 CURVE SMOOTH",
"743 112 OFFCURVE",
"682 102 OFFCURVE",
"605 102 CURVE SMOOTH"
);
}
);
};
layerId = "2F8B9CD4-7B7F-4ACC-ADF3-B6E0F7033A19";
paths = (
{
closed = 1;
nodes = (
"311 -302 LINE",
"311 103 LINE",
"375 17 OFFCURVE",
"481 -23 OFFCURVE",
"642 -23 CURVE SMOOTH",
"936 -23 OFFCURVE",
"1050 126 OFFCURVE",
"1050 510 CURVE SMOOTH",
"1050 887 OFFCURVE",
"936 1033 OFFCURVE",
"644 1033 CURVE SMOOTH",
"426 1033 OFFCURVE",
"350 950 OFFCURVE",
"300 875 CURVE",
"300 1441 LINE",
"157 1441 LINE",
"157 -302 LINE"
);
},
{
closed = 1;
nodes = (
"405 102 OFFCURVE",
"311 233 OFFCURVE",
"311 510 CURVE SMOOTH",
"311 812 OFFCURVE",
"383 907 OFFCURVE",
"609 907 CURVE SMOOTH",
"834 907 OFFCURVE",
"890 829 OFFCURVE",
"890 517 CURVE SMOOTH",
"890 185 OFFCURVE",
"833 102 OFFCURVE",
"605 102 CURVE SMOOTH"
);
}
);
width = 1162;
}
);
leftKerningGroup = h;
note = thorn;
rightKerningGroup = o;
unicode = 00FE;
},
{
glyphname = q;
layers = (
{
anchors = (
{
name = bottom;
position = "{584, 0}";
},
{
name = top;
position = "{584, 1011}";
}
);
background = {
paths = (
{
closed = 1;
nodes = (
"466 102 OFFCURVE",
"415 111 OFFCURVE",
"379 126 CURVE SMOOTH",
"320 151 OFFCURVE",
"295 195 OFFCURVE",
"277 275 CURVE SMOOTH",
"265 327 OFFCURVE",
"258 404 OFFCURVE",
"258 517 CURVE SMOOTH",
"258 628 OFFCURVE",
"266 699 OFFCURVE",
"277 747 CURVE SMOOTH",
"294 822 OFFCURVE",
"318 857 OFFCURVE",
"373 881 CURVE SMOOTH",
"408 896 OFFCURVE",
"462 907 OFFCURVE",
"539 907 CURVE SMOOTH",
"698 907 OFFCURVE",
"781 871 OFFCURVE",
"816 741 CURVE SMOOTH",
"829 693 OFFCURVE",
"837 622 OFFCURVE",
"837 510 CURVE SMOOTH",
"837 401 OFFCURVE",
"822 321 OFFCURVE",
"798 262 CURVE SMOOTH",
"769 191 OFFCURVE",
"719 135 OFFCURVE",
"666 117 CURVE SMOOTH",
"643 109 OFFCURVE",
"606 102 OFFCURVE",
"543 102 CURVE SMOOTH"
);
},
{
closed = 1;
nodes = (
"837 -389 LINE",
"991 -389 LINE",
"991 1010 LINE",
"868 1010 LINE",
"850 875 LINE",
"803 950 OFFCURVE",
"722 1033 OFFCURVE",
"504 1033 CURVE SMOOTH",
"300 1033 OFFCURVE",
"171 955 OFFCURVE",
"125 774 CURVE SMOOTH",
"109 709 OFFCURVE",
"100 614 OFFCURVE",
"100 518 CURVE SMOOTH",
"100 403 OFFCURVE",
"112 285 OFFCURVE",
"134 207 CURVE SMOOTH",
"161 113 OFFCURVE",
"208 56 OFFCURVE",
"298 15 CURVE SMOOTH",
"346 -7 OFFCURVE",
"414 -23 OFFCURVE",
"506 -23 CURVE SMOOTH",
"727 -23 OFFCURVE",
"786 35 OFFCURVE",
"837 103 CURVE"
);
}
);
};
layerId = "2F8B9CD4-7B7F-4ACC-ADF3-B6E0F7033A19";
paths = (
{
closed = 1;
nodes = (
"991 -389 LINE",
"991 1010 LINE",
"868 1010 LINE",
"850 875 LINE",
"783 982 OFFCURVE",
"672 1033 OFFCURVE",
"504 1033 CURVE SMOOTH",
"213 1033 OFFCURVE",
"100 889 OFFCURVE",
"100 518 CURVE SMOOTH",
"100 107 OFFCURVE",
"197 -23 OFFCURVE",
"506 -23 CURVE SMOOTH",
"676 -23 OFFCURVE",
"769 12 OFFCURVE",
"837 103 CURVE",
"837 -389 LINE"
);
},
{
closed = 1;
nodes = (
"315 102 OFFCURVE",
"258 185 OFFCURVE",
"258 517 CURVE SMOOTH",
"258 829 OFFCURVE",
"314 907 OFFCURVE",
"539 907 CURVE SMOOTH",
"765 907 OFFCURVE",
"837 812 OFFCURVE",
"837 510 CURVE SMOOTH",
"837 233 OFFCURVE",
"743 102 OFFCURVE",
"543 102 CURVE SMOOTH"
);
}
);
width = 1171;
}
);
leftKerningGroup = o;
leftMetricsKey = "=o";
note = q;
rightKerningGroup = u;
rightMetricsKey = "=u";
unicode = 0071;
},
{
glyphname = r;
layers = (
{
anchors = (
{
name = bottom;
position = "{416, 0}";
},
{
name = top;
position = "{416, 1011}";
}
);
background = {
paths = (
{
closed = 1;
nodes = (
"180 1011 LINE",
"180 817 LINE",
"180 0 LINE",
"328 0 LINE",
"328 698 LINE",
"352 771 OFFCURVE",
"402 818 OFFCURVE",
"461 846 CURVE SMOOTH",
"520 873 OFFCURVE",
"587 882 OFFCURVE",
"643 882 CURVE SMOOTH",
"652 882 OFFCURVE",
"652 882 OFFCURVE",
"665 881 CURVE",
"665 1034 LINE",
"646 1034 LINE SMOOTH",
"567 1034 OFFCURVE",
"506 1014 OFFCURVE",
"455 982 CURVE SMOOTH",
"404 950 OFFCURVE",
"362 905 OFFCURVE",
"325 854 CURVE",
"319 1011 LINE"
);
}
);
};
layerId = "2F8B9CD4-7B7F-4ACC-ADF3-B6E0F7033A19";
paths = (
{
closed = 1;
nodes = (
"328 0 LINE",
"328 698 LINE",
"371 827 OFFCURVE",
"497 881 OFFCURVE",
"643 881 CURVE SMOOTH",
"665 881 LINE",
"665 1034 LINE",
"646 1034 LINE SMOOTH",
"510 1034 OFFCURVE",
"413 975 OFFCURVE",
"325 854 CURVE",
"319 1011 LINE",
"180 1011 LINE",
"180 0 LINE"
);
}
);
width = 730;
}
);
leftKerningGroup = n;
leftMetricsKey = "=n";
note = r;
rightKerningGroup = r;
unicode = 0072;
},
{
glyphname = s;
layers = (
{
anchors = (
{
name = bottom;
position = "{462, 0}";
},
{
name = top;
position = "{462, 1011}";
}
);
background = {
paths = (
{
closed = 1;
nodes = (
"100 60 OFFCURVE",
"210 -23 OFFCURVE",
"493 -23 CURVE SMOOTH",
"754 -23 OFFCURVE",
"856 62 OFFCURVE",
"856 279 CURVE SMOOTH",
"856 468 OFFCURVE",
"762 541 OFFCURVE",
"465 582 CURVE SMOOTH",
"302 605 OFFCURVE",
"239 649 OFFCURVE",
"239 741 CURVE SMOOTH",
"239 868 OFFCURVE",
"305 918 OFFCURVE",
"474 918 CURVE SMOOTH",
"636 918 OFFCURVE",
"699 868 OFFCURVE",
"699 739 CURVE",
"837 739 LINE",
"845 951 OFFCURVE",
"744 1034 OFFCURVE",
"474 1034 CURVE SMOOTH",
"213 1034 OFFCURVE",
"90 943 OFFCURVE",
"90 749 CURVE SMOOTH",
"90 573 OFFCURVE",
"192 491 OFFCURVE",
"456 455 CURVE SMOOTH",
"642 429 OFFCURVE",
"714 380 OFFCURVE",
"714 279 CURVE SMOOTH",
"714 139 OFFCURVE",
"660 95 OFFCURVE",
"489 95 CURVE SMOOTH",
"299 95 OFFCURVE",
"238 137 OFFCURVE",
"236 272 CURVE",
"100 272 LINE"
);
}
);
};
layerId = "2F8B9CD4-7B7F-4ACC-ADF3-B6E0F7033A19";
paths = (
{
closed = 1;
nodes = (
"754 -23 OFFCURVE",
"856 62 OFFCURVE",
"856 279 CURVE SMOOTH",
"856 468 OFFCURVE",
"762 541 OFFCURVE",
"525 575 CURVE SMOOTH",
"312 605 OFFCURVE",
"249 649 OFFCURVE",
"249 741 CURVE SMOOTH",
"249 868 OFFCURVE",
"315 918 OFFCURVE",
"484 918 CURVE SMOOTH",
"646 918 OFFCURVE",
"709 868 OFFCURVE",
"709 739 CURVE",
"847 739 LINE",
"855 951 OFFCURVE",
"754 1034 OFFCURVE",
"484 1034 CURVE SMOOTH",
"223 1034 OFFCURVE",
"100 943 OFFCURVE",
"100 749 CURVE SMOOTH",
"100 573 OFFCURVE",
"202 491 OFFCURVE",
"426 459 CURVE SMOOTH",
"642 429 OFFCURVE",
"714 380 OFFCURVE",
"714 279 CURVE SMOOTH",
"714 139 OFFCURVE",
"660 95 OFFCURVE",
"489 95 CURVE SMOOTH",
"299 95 OFFCURVE",
"238 137 OFFCURVE",
"236 272 CURVE",
"100 272 LINE",
"100 60 OFFCURVE",
"210 -23 OFFCURVE",
"493 -23 CURVE SMOOTH"
);
}
);
width = 961;
}
);
leftKerningGroup = s;
note = s;
rightKerningGroup = s;
unicode = 0073;
},
{
glyphname = germandbls;
layers = (
{
anchors = (
{
name = bottom;
position = "{613, 0}";
},
{
name = top;
position = "{613, 1011}";
}
);
background = {
paths = (
{
closed = 1;
nodes = (
"1010 -23 OFFCURVE",
"1122 115 OFFCURVE",
"1122 432 CURVE SMOOTH",
"1122 686 OFFCURVE",
"1046 796 OFFCURVE",
"849 838 CURVE",
"847 820 LINE",
"999 858 OFFCURVE",
"1031 957 OFFCURVE",
"1031 1117 CURVE SMOOTH",
"1031 1389 OFFCURVE",
"873 1472 OFFCURVE",
"589 1472 CURVE SMOOTH",
"293 1472 OFFCURVE",
"157 1389 OFFCURVE",
"157 1105 CURVE SMOOTH",
"157 0 LINE",
"310 0 LINE",
"310 1087 LINE SMOOTH",
"310 1305 OFFCURVE",
"368 1348 OFFCURVE",
"589 1348 CURVE SMOOTH",
"808 1348 OFFCURVE",
"872 1315 OFFCURVE",
"872 1114 CURVE SMOOTH",
"872 990 OFFCURVE",
"837 891 OFFCURVE",
"710 891 CURVE SMOOTH",
"531 891 LINE",
"531 755 LINE",
"709 755 LINE SMOOTH",
"905 755 OFFCURVE",
"961 626 OFFCURVE",
"961 429 CURVE SMOOTH",
"961 189 OFFCURVE",
"937 105 OFFCURVE",
"709 105 CURVE SMOOTH",
"659 105 LINE SMOOTH",
"597 105 OFFCURVE",
"531 113 OFFCURVE",
"431 127 CURVE",
"431 0 LINE",
"486 -9 OFFCURVE",
"588 -23 OFFCURVE",
"710 -23 CURVE SMOOTH"
);
}
);
};
layerId = "2F8B9CD4-7B7F-4ACC-ADF3-B6E0F7033A19";
paths = (
{
closed = 1;
nodes = (
"1007 -23 OFFCURVE",
"1122 104 OFFCURVE",
"1122 432 CURVE SMOOTH",
"1122 669 OFFCURVE",
"1035 798 OFFCURVE",
"799 838 CURVE",
"797 820 LINE",
"965 849 OFFCURVE",
"1031 956 OFFCURVE",
"1031 1117 CURVE SMOOTH",
"1031 1389 OFFCURVE",
"873 1472 OFFCURVE",
"589 1472 CURVE SMOOTH",
"278 1472 OFFCURVE",
"157 1369 OFFCURVE",
"157 1105 CURVE SMOOTH",
"157 0 LINE",
"310 0 LINE",
"310 1087 LINE SMOOTH",
"310 1296 OFFCURVE",
"366 1348 OFFCURVE",
"589 1348 CURVE SMOOTH",
"804 1348 OFFCURVE",
"872 1292 OFFCURVE",
"872 1114 CURVE SMOOTH",
"872 962 OFFCURVE",
"820 891 OFFCURVE",
"660 891 CURVE SMOOTH",
"531 891 LINE",
"531 755 LINE",
"659 755 LINE SMOOTH",
"890 755 OFFCURVE",
"961 664 OFFCURVE",
"961 429 CURVE SMOOTH",
"961 170 OFFCURVE",
"911 105 OFFCURVE",
"709 105 CURVE SMOOTH",
"634 105 OFFCURVE",
"533 113 OFFCURVE",
"431 127 CURVE",
"431 0 LINE",
"521 -15 OFFCURVE",
"621 -23 OFFCURVE",
"710 -23 CURVE SMOOTH"
);
}
);
width = 1226;
}
);
leftKerningGroup = h;
note = germandbls;
rightKerningGroup = B;
unicode = 00DF;
},
{
glyphname = t;
layers = (
{
anchors = (
{
name = bottom;
position = "{475, 0}";
},
{
name = center;
position = "{332, 506}";
},
{
name = top;
position = "{425, 1011}";
},
{
name = topright;
position = "{425, 1084}";
}
);
layerId = "2F8B9CD4-7B7F-4ACC-ADF3-B6E0F7033A19";
paths = (
{
closed = 1;
nodes = (
"576 -26 OFFCURVE",
"621 -19 OFFCURVE",
"656 -12 CURVE",
"656 121 LINE",
"623 115 OFFCURVE",
"582 110 OFFCURVE",
"540 110 CURVE SMOOTH",
"432 110 OFFCURVE",
"386 154 OFFCURVE",
"386 268 CURVE",
"386 892 LINE",
"634 892 LINE",
"634 1014 LINE",
"385 1014 LINE",
"385 1291 LINE",
"232 1291 LINE",
"232 1014 LINE",
"50 1014 LINE",
"50 892 LINE",
"232 892 LINE",
"232 289 LINE SMOOTH",
"232 75 OFFCURVE",
"327 -26 OFFCURVE",
"510 -26 CURVE SMOOTH"
);
}
);
width = 721;
}
);
leftKerningGroup = t;
note = t;
rightKerningGroup = t;
unicode = 0074;
},
{
glyphname = u;
layers = (
{
anchors = (
{
name = bottom;
position = "{589, 0}";
},
{
name = ogonek;
position = "{1015, 0}";
},
{
name = top;
position = "{589, 1011}";
},
{
name = topright;
position = "{1015, 1011}";
}
);
background = {
paths = (
{
closed = 1;
nodes = (
"175 269 OFFCURVE",
"186 199 OFFCURVE",
"200 152 CURVE SMOOTH",
"221 82 OFFCURVE",
"255 43 OFFCURVE",
"334 10 CURVE SMOOTH",
"380 -9 OFFCURVE",
"449 -23 OFFCURVE",
"529 -23 CURVE SMOOTH",
"651 -23 OFFCURVE",
"724 4 OFFCURVE",
"779 41 CURVE SMOOTH",
"834 78 OFFCURVE",
"861 115 OFFCURVE",
"874 135 CURVE",
"887 0 LINE",
"1015 0 LINE",
"1015 1011 LINE",
"862 1011 LINE",
"862 422 LINE SMOOTH",
"862 250 OFFCURVE",
"825 183 OFFCURVE",
"731 137 CURVE SMOOTH",
"696 120 OFFCURVE",
"651 102 OFFCURVE",
"571 102 CURVE SMOOTH",
"507 102 OFFCURVE",
"453 113 OFFCURVE",
"422 128 CURVE SMOOTH",
"341 167 OFFCURVE",
"329 273 OFFCURVE",
"329 403 CURVE SMOOTH",
"329 1011 LINE",
"175 1011 LINE",
"175 376 LINE SMOOTH"
);
}
);
};
layerId = "2F8B9CD4-7B7F-4ACC-ADF3-B6E0F7033A19";
paths = (
{
closed = 1;
nodes = (
"684 -23 OFFCURVE",
"808 34 OFFCURVE",
"874 135 CURVE",
"887 0 LINE",
"1015 0 LINE",
"1015 1011 LINE",
"862 1011 LINE",
"862 422 LINE SMOOTH",
"862 204 OFFCURVE",
"769 102 OFFCURVE",
"571 102 CURVE SMOOTH",
"387 102 OFFCURVE",
"329 174 OFFCURVE",
"329 403 CURVE SMOOTH",
"329 1011 LINE",
"175 1011 LINE",
"175 376 LINE SMOOTH",
"175 73 OFFCURVE",
"260 -23 OFFCURVE",
"529 -23 CURVE SMOOTH"
);
}
);
width = 1195;
}
);
leftKerningGroup = u;
note = u;
rightKerningGroup = u;
unicode = 0075;
},
{
glyphname = v;
layers = (
{
anchors = (
{
name = bottom;
position = "{521, 0}";
},
{
name = top;
position = "{521, 1011}";
}
);
layerId = "2F8B9CD4-7B7F-4ACC-ADF3-B6E0F7033A19";
paths = (
{
closed = 1;
nodes = (
"622 0 LINE",
"991 1011 LINE",
"833 1011 LINE",
"523 141 LINE",
"210 1011 LINE",
"50 1011 LINE",
"423 0 LINE"
);
}
);
width = 1041;
}
);
leftKerningGroup = v;
note = v;
rightKerningGroup = v;
unicode = 0076;
},
{
glyphname = w;
layers = (
{
anchors = (
{
name = bottom;
position = "{796, 0}";
},
{
name = top;
position = "{796, 1011}";
}
);
layerId = "2F8B9CD4-7B7F-4ACC-ADF3-B6E0F7033A19";
paths = (
{
closed = 1;
nodes = (
"536 0 LINE",
"792 874 LINE",
"1046 0 LINE",
"1221 0 LINE",
"1511 1011 LINE",
"1353 1011 LINE",
"1199 383 LINE",
"1140 127 LINE",
"1077 383 LINE",
"888 1011 LINE",
"698 1011 LINE",
"505 376 LINE",
"446 125 LINE",
"389 387 LINE",
"231 1011 LINE",
"70 1011 LINE",
"360 0 LINE"
);
}
);
width = 1581;
}
);
leftKerningGroup = w;
note = w;
rightKerningGroup = w;
unicode = 0077;
},
{
glyphname = x;
layers = (
{
anchors = (
{
name = bottom;
position = "{501, 0}";
},
{
name = top;
position = "{501, 1011}";
}
);
background = {
paths = (
{
closed = 1;
nodes = (
"35 0 LINE",
"209 0 LINE",
"966 1011 LINE",
"792 1011 LINE"
);
},
{
closed = 1;
nodes = (
"451 453 LINE",
"797 0 LINE",
"976 0 LINE",
"541 570 LINE"
);
},
{
closed = 1;
nodes = (
"541 570 LINE",
"204 1011 LINE",
"25 1011 LINE",
"451 453 LINE"
);
}
);
};
layerId = "2F8B9CD4-7B7F-4ACC-ADF3-B6E0F7033A19";
paths = (
{
closed = 1;
nodes = (
"966 0 LINE",
"550 568 LINE",
"531 568 LINE",
"214 1011 LINE",
"35 1011 LINE",
"441 451 LINE",
"460 451 LINE",
"787 0 LINE"
);
},
{
closed = 1;
nodes = (
"212 0 LINE",
"539 451 LINE",
"558 451 LINE",
"964 1011 LINE",
"790 1011 LINE",
"473 568 LINE",
"454 568 LINE",
"38 0 LINE"
);
}
);
width = 1001;
}
);
leftKerningGroup = x;
note = x;
rightKerningGroup = x;
unicode = 0078;
},
{
glyphname = y;
layers = (
{
anchors = (
{
name = bottom;
position = "{605, -364}";
},
{
name = top;
position = "{605, 1001}";
}
);
background = {
paths = (
{
closed = 1;
nodes = (
"889 47 OFFCURVE",
"887 -23 OFFCURVE",
"883 -54 CURVE SMOOTH",
"869 -163 OFFCURVE",
"838 -224 OFFCURVE",
"757 -252 CURVE SMOOTH",
"717 -266 OFFCURVE",
"656 -269 OFFCURVE",
"587 -269 CURVE SMOOTH",
"508 -269 OFFCURVE",
"486 -263 OFFCURVE",
"451 -251 CURVE SMOOTH",
"357 -218 OFFCURVE",
"343 -180 OFFCURVE",
"341 -106 CURVE",
"184 -106 LINE",
"185 -239 OFFCURVE",
"265 -330 OFFCURVE",
"368 -367 CURVE SMOOTH",
"420 -386 OFFCURVE",
"501 -394 OFFCURVE",
"603 -394 CURVE SMOOTH",
"725 -394 OFFCURVE",
"836 -380 OFFCURVE",
"915 -305 CURVE SMOOTH",
"1013 -211 OFFCURVE",
"1025 -109 OFFCURVE",
"1025 122 CURVE SMOOTH",
"1025 1011 LINE",
"872 1011 LINE",
"872 462 LINE SMOOTH",
"872 380 OFFCURVE",
"871 325 OFFCURVE",
"839 265 CURVE SMOOTH",
"818 225 OFFCURVE",
"779 190 OFFCURVE",
"731 171 CURVE SMOOTH",
"696 157 OFFCURVE",
"644 142 OFFCURVE",
"573 142 CURVE SMOOTH",
"501 142 OFFCURVE",
"453 153 OFFCURVE",
"422 168 CURVE SMOOTH",
"341 207 OFFCURVE",
"329 313 OFFCURVE",
"329 443 CURVE SMOOTH",
"329 1011 LINE",
"175 1011 LINE",
"175 416 LINE SMOOTH",
"175 309 OFFCURVE",
"186 239 OFFCURVE",
"200 192 CURVE SMOOTH",
"221 122 OFFCURVE",
"255 83 OFFCURVE",
"334 50 CURVE SMOOTH",
"380 31 OFFCURVE",
"473 17 OFFCURVE",
"561 17 CURVE SMOOTH",
"721 17 OFFCURVE",
"816 49 OFFCURVE",
"889 169 CURVE",
"889 96 LINE SMOOTH"
);
}
);
};
layerId = "2F8B9CD4-7B7F-4ACC-ADF3-B6E0F7033A19";
paths = (
{
closed = 1;
nodes = (
"921 -394 OFFCURVE",
"1025 -291 OFFCURVE",
"1025 92 CURVE SMOOTH",
"1025 1011 LINE",
"872 1011 LINE",
"872 462 LINE SMOOTH",
"872 232 OFFCURVE",
"788 142 OFFCURVE",
"573 142 CURVE SMOOTH",
"388 142 OFFCURVE",
"329 214 OFFCURVE",
"329 443 CURVE SMOOTH",
"329 1011 LINE",
"175 1011 LINE",
"175 416 LINE SMOOTH",
"175 113 OFFCURVE",
"268 17 OFFCURVE",
"561 17 CURVE SMOOTH",
"731 17 OFFCURVE",
"822 60 OFFCURVE",
"889 169 CURVE",
"889 96 LINE SMOOTH",
"889 -188 OFFCURVE",
"859 -269 OFFCURVE",
"587 -269 CURVE SMOOTH",
"422 -269 OFFCURVE",
"344 -217 OFFCURVE",
"341 -106 CURVE",
"184 -106 LINE",
"186 -302 OFFCURVE",
"320 -394 OFFCURVE",
"583 -394 CURVE SMOOTH"
);
}
);
width = 1205;
}
);
leftKerningGroup = u;
leftMetricsKey = "=u";
note = y;
rightKerningGroup = u;
rightMetricsKey = "=u";
unicode = 0079;
},
{
glyphname = z;
layers = (
{
anchors = (
{
name = bottom;
position = "{458, 0}";
},
{
name = top;
position = "{458, 1011}";
}
);
layerId = "2F8B9CD4-7B7F-4ACC-ADF3-B6E0F7033A19";
paths = (
{
closed = 1;
nodes = (
"812 0 LINE",
"812 124 LINE",
"216 124 LINE",
"250 87 LINE",
"809 914 LINE",
"809 1011 LINE",
"99 1011 LINE",
"99 890 LINE",
"690 890 LINE",
"656 927 LINE",
"90 107 LINE",
"90 0 LINE"
);
}
);
width = 908;
}
);
leftKerningGroup = z;
note = z;
rightKerningGroup = z;
unicode = 007A;
},
{
glyphname = f_f_i;
layers = (
{
anchors = (
{
name = caret_1;
position = "{514, 0}";
},
{
name = caret_2;
position = "{1055, 0}";
}
);
background = {
paths = (
{
closed = 1;
nodes = (
"386 1011 LINE",
"386 1196 LINE",
"386 1255 OFFCURVE",
"397 1279 OFFCURVE",
"424 1300 CURVE SMOOTH",
"445 1316 OFFCURVE",
"492 1321 OFFCURVE",
"534 1321 CURVE SMOOTH",
"596 1321 OFFCURVE",
"607 1318 OFFCURVE",
"651 1313 CURVE",
"651 1437 LINE",
"627 1441 OFFCURVE",
"592 1448 OFFCURVE",
"530 1448 CURVE SMOOTH",
"417 1448 OFFCURVE",
"363 1431 OFFCURVE",
"323 1406 CURVE SMOOTH",
"268 1372 OFFCURVE",
"232 1316 OFFCURVE",
"232 1135 CURVE SMOOTH",
"232 1011 LINE",
"50 1011 LINE",
"50 889 LINE",
"232 889 LINE",
"232 0 LINE",
"385 0 LINE",
"385 889 LINE",
"634 889 LINE",
"634 1011 LINE"
);
},
{
closed = 1;
nodes = (
"1295 0 LINE",
"1449 0 LINE",
"1449 1011 LINE",
"1295 1011 LINE"
);
},
{
closed = 1;
nodes = (
"1299 1370 OFFCURVE",
"1279 1336 OFFCURVE",
"1279 1271 CURVE SMOOTH",
"1279 1207 OFFCURVE",
"1303 1185 OFFCURVE",
"1371 1185 CURVE SMOOTH",
"1447 1185 OFFCURVE",
"1465 1207 OFFCURVE",
"1465 1271 CURVE SMOOTH",
"1465 1303 OFFCURVE",
"1461 1328 OFFCURVE",
"1448 1345 CURVE SMOOTH",
"1435 1361 OFFCURVE",
"1411 1370 OFFCURVE",
"1371 1370 CURVE SMOOTH"
);
},
{
closed = 1;
nodes = (
"918 1011 LINE",
"918 1196 LINE",
"918 1255 OFFCURVE",
"929 1279 OFFCURVE",
"956 1300 CURVE SMOOTH",
"977 1316 OFFCURVE",
"1020 1321 OFFCURVE",
"1062 1321 CURVE SMOOTH",
"1124 1321 OFFCURVE",
"1139 1318 OFFCURVE",
"1183 1313 CURVE",
"1183 1437 LINE",
"1159 1441 OFFCURVE",
"1124 1448 OFFCURVE",
"1062 1448 CURVE SMOOTH",
"949 1448 OFFCURVE",
"895 1431 OFFCURVE",
"855 1406 CURVE SMOOTH",
"800 1372 OFFCURVE",
"764 1316 OFFCURVE",
"764 1135 CURVE SMOOTH",
"764 1011 LINE",
"582 1011 LINE",
"582 889 LINE",
"764 889 LINE",
"764 0 LINE",
"917 0 LINE",
"917 889 LINE",
"1380 889 LINE",
"1380 1011 LINE"
);
}
);
};
layerId = "2F8B9CD4-7B7F-4ACC-ADF3-B6E0F7033A19";
paths = (
{
closed = 1;
nodes = (
"917 0 LINE",
"917 889 LINE",
"1380 889 LINE",
"1380 1011 LINE",
"918 1011 LINE",
"918 1196 LINE",
"918 1255 OFFCURVE",
"929 1279 OFFCURVE",
"956 1300 CURVE SMOOTH",
"977 1316 OFFCURVE",
"1020 1321 OFFCURVE",
"1062 1321 CURVE SMOOTH",
"1124 1321 OFFCURVE",
"1139 1318 OFFCURVE",
"1183 1313 CURVE",
"1183 1437 LINE",
"1159 1441 OFFCURVE",
"1124 1448 OFFCURVE",
"1062 1448 CURVE SMOOTH",
"949 1448 OFFCURVE",
"895 1431 OFFCURVE",
"855 1406 CURVE SMOOTH",
"800 1372 OFFCURVE",
"764 1316 OFFCURVE",
"764 1135 CURVE SMOOTH",
"764 1011 LINE",
"582 1011 LINE",
"582 889 LINE",
"764 889 LINE",
"764 0 LINE"
);
},
{
closed = 1;
nodes = (
"385 0 LINE",
"385 889 LINE",
"634 889 LINE",
"634 1011 LINE",
"386 1011 LINE",
"386 1196 LINE",
"386 1255 OFFCURVE",
"397 1279 OFFCURVE",
"424 1300 CURVE SMOOTH",
"445 1316 OFFCURVE",
"492 1321 OFFCURVE",
"534 1321 CURVE SMOOTH",
"596 1321 OFFCURVE",
"607 1318 OFFCURVE",
"651 1313 CURVE",
"651 1437 LINE",
"627 1441 OFFCURVE",
"592 1448 OFFCURVE",
"530 1448 CURVE SMOOTH",
"417 1448 OFFCURVE",
"363 1431 OFFCURVE",
"323 1406 CURVE SMOOTH",
"268 1372 OFFCURVE",
"232 1316 OFFCURVE",
"232 1135 CURVE SMOOTH",
"232 1011 LINE",
"50 1011 LINE",
"50 889 LINE",
"232 889 LINE",
"232 0 LINE"
);
},
{
closed = 1;
nodes = (
"1449 0 LINE",
"1449 1011 LINE",
"1295 1011 LINE",
"1295 0 LINE"
);
},
{
closed = 1;
nodes = (
"1447 1185 OFFCURVE",
"1465 1207 OFFCURVE",
"1465 1271 CURVE SMOOTH",
"1465 1303 OFFCURVE",
"1461 1328 OFFCURVE",
"1448 1345 CURVE SMOOTH",
"1435 1361 OFFCURVE",
"1411 1370 OFFCURVE",
"1371 1370 CURVE SMOOTH",
"1299 1370 OFFCURVE",
"1279 1336 OFFCURVE",
"1279 1271 CURVE SMOOTH",
"1279 1207 OFFCURVE",
"1303 1185 OFFCURVE",
"1371 1185 CURVE SMOOTH"
);
}
);
width = 1644;
}
);
leftKerningGroup = f;
leftMetricsKey = f;
rightKerningGroup = i;
rightMetricsKey = i;
},
{
glyphname = fi;
layers = (
{
anchors = (
{
name = caret_1;
position = "{556.5, 0}";
}
);
layerId = "2F8B9CD4-7B7F-4ACC-ADF3-B6E0F7033A19";
paths = (
{
closed = 1;
nodes = (
"423 0 LINE",
"423 889 LINE",
"886 889 LINE",
"886 1011 LINE",
"424 1011 LINE",
"424 1196 LINE",
"424 1255 OFFCURVE",
"435 1279 OFFCURVE",
"462 1300 CURVE SMOOTH",
"483 1316 OFFCURVE",
"526 1321 OFFCURVE",
"568 1321 CURVE SMOOTH",
"630 1321 OFFCURVE",
"645 1318 OFFCURVE",
"689 1313 CURVE",
"689 1437 LINE",
"665 1441 OFFCURVE",
"630 1448 OFFCURVE",
"568 1448 CURVE SMOOTH",
"455 1448 OFFCURVE",
"401 1431 OFFCURVE",
"361 1406 CURVE SMOOTH",
"306 1372 OFFCURVE",
"270 1316 OFFCURVE",
"270 1135 CURVE SMOOTH",
"270 1011 LINE",
"88 1011 LINE",
"88 889 LINE",
"270 889 LINE",
"270 0 LINE"
);
},
{
closed = 1;
nodes = (
"955 0 LINE",
"955 1011 LINE",
"801 1011 LINE",
"801 0 LINE"
);
},
{
closed = 1;
nodes = (
"953 1185 OFFCURVE",
"971 1207 OFFCURVE",
"971 1271 CURVE SMOOTH",
"971 1303 OFFCURVE",
"967 1328 OFFCURVE",
"954 1345 CURVE SMOOTH",
"941 1361 OFFCURVE",
"917 1370 OFFCURVE",
"877 1370 CURVE SMOOTH",
"805 1370 OFFCURVE",
"785 1336 OFFCURVE",
"785 1271 CURVE SMOOTH",
"785 1207 OFFCURVE",
"809 1185 OFFCURVE",
"877 1185 CURVE SMOOTH"
);
}
);
width = 1113;
}
);
leftKerningGroup = f;
note = fi;
rightKerningGroup = i;
unicode = FB01;
},
{
glyphname = ordfeminine;
layers = (
{
layerId = "2F8B9CD4-7B7F-4ACC-ADF3-B6E0F7033A19";
paths = (
{
closed = 1;
nodes = (
"446 690 OFFCURVE",
"572 754 OFFCURVE",
"600 818 CURVE",
"563 813 LINE",
"573 741 OFFCURVE",
"630 690 OFFCURVE",
"704 690 CURVE SMOOTH",
"724 690 OFFCURVE",
"738 690 OFFCURVE",
"759 697 CURVE",
"759 824 LINE",
"701 819 OFFCURVE",
"697 824 OFFCURVE",
"697 883 CURVE SMOOTH",
"697 1244 LINE SMOOTH",
"697 1407 OFFCURVE",
"603 1479 OFFCURVE",
"389 1479 CURVE SMOOTH",
"198 1479 OFFCURVE",
"94 1401 OFFCURVE",
"94 1252 CURVE",
"234 1252 LINE",
"234 1335 OFFCURVE",
"288 1363 OFFCURVE",
"399 1363 CURVE SMOOTH",
"506 1363 OFFCURVE",
"548 1342 OFFCURVE",
"548 1252 CURVE SMOOTH",
"548 1145 LINE",
"562 1159 LINE",
"527 1159 OFFCURVE",
"468 1159 OFFCURVE",
"407 1159 CURVE SMOOTH",
"185 1159 OFFCURVE",
"70 1087 OFFCURVE",
"70 924 CURVE SMOOTH",
"70 781 OFFCURVE",
"173 690 OFFCURVE",
"337 690 CURVE SMOOTH"
);
},
{
closed = 1;
nodes = (
"286 816 OFFCURVE",
"234 857 OFFCURVE",
"234 928 CURVE SMOOTH",
"234 1041 OFFCURVE",
"310 1054 OFFCURVE",
"442 1054 CURVE SMOOTH",
"484 1054 OFFCURVE",
"547 1054 OFFCURVE",
"562 1054 CURVE",
"548 1068 LINE",
"548 885 LINE",
"501 841 OFFCURVE",
"429 816 OFFCURVE",
"366 816 CURVE SMOOTH"
);
}
);
width = 834;
}
);
leftKerningGroup = asterisk;
note = ordfeminine;
rightKerningGroup = asterisk;
unicode = 00AA;
},
{
glyphname = ordmasculine;
layers = (
{
layerId = "2F8B9CD4-7B7F-4ACC-ADF3-B6E0F7033A19";
paths = (
{
closed = 1;
nodes = (
"675 697 OFFCURVE",
"775 810 OFFCURVE",
"775 1094 CURVE SMOOTH",
"775 1372 OFFCURVE",
"673 1486 OFFCURVE",
"423 1486 CURVE SMOOTH",
"175 1486 OFFCURVE",
"75 1372 OFFCURVE",
"75 1092 CURVE SMOOTH",
"75 812 OFFCURVE",
"176 697 OFFCURVE",
"423 697 CURVE SMOOTH"
);
},
{
closed = 1;
nodes = (
"258 822 OFFCURVE",
"225 889 OFFCURVE",
"225 1089 CURVE",
"225 1276 OFFCURVE",
"257 1361 OFFCURVE",
"423 1361 CURVE SMOOTH",
"590 1361 OFFCURVE",
"624 1281 OFFCURVE",
"624 1091 CURVE SMOOTH",
"624 893 OFFCURVE",
"596 822 OFFCURVE",
"427 822 CURVE SMOOTH"
);
}
);
width = 850;
}
);
leftKerningGroup = asterisk;
note = ordmasculine;
rightKerningGroup = asterisk;
unicode = 00BA;
},
{
glyphname = pi;
layers = (
{
layerId = "2F8B9CD4-7B7F-4ACC-ADF3-B6E0F7033A19";
paths = (
{
closed = 1;
nodes = (
"325 0 LINE",
"391 139 OFFCURVE",
"448 439 OFFCURVE",
"476 646 CURVE SMOOTH",
"493 772 OFFCURVE",
"507 880 OFFCURVE",
"512 974 CURVE",
"995 974 LINE",
"995 0 LINE",
"1157 0 LINE",
"1157 974 LINE",
"1376 974 LINE",
"1376 1117 LINE",
"46 1117 LINE",
"46 974 LINE",
"352 974 LINE",
"347 877 OFFCURVE",
"335 772 OFFCURVE",
"319 650 CURVE SMOOTH",
"290 444 OFFCURVE",
"233 157 OFFCURVE",
"166 0 CURVE"
);
}
);
width = 1425;
}
);
note = pi;
unicode = 03C0;
},
{
glyphname = zero;
layers = (
{
background = {
paths = (
{
closed = 1;
nodes = (
"982 1328 OFFCURVE",
"1012 1113 OFFCURVE",
"1012 742 CURVE SMOOTH",
"1012 539 OFFCURVE",
"1014 335 OFFCURVE",
"929 223 CURVE SMOOTH",
"880 157 OFFCURVE",
"790 125 OFFCURVE",
"659 125 CURVE SMOOTH",
"530 125 OFFCURVE",
"440 157 OFFCURVE",
"391 222 CURVE SMOOTH",
"309 332 OFFCURVE",
"308 530 OFFCURVE",
"308 731 CURVE SMOOTH",
"308 1107 OFFCURVE",
"337 1328 OFFCURVE",
"664 1328 CURVE SMOOTH"
);
},
{
closed = 1;
nodes = (
"495 1473 OFFCURVE",
"345 1427 OFFCURVE",
"266 1338 CURVE SMOOTH",
"143 1199 OFFCURVE",
"130 966 OFFCURVE",
"130 735 CURVE SMOOTH",
"130 435 OFFCURVE",
"162 231 OFFCURVE",
"270 112 CURVE SMOOTH",
"356 18 OFFCURVE",
"498 -21 OFFCURVE",
"661 -21 CURVE SMOOTH",
"821 -21 OFFCURVE",
"964 16 OFFCURVE",
"1052 114 CURVE SMOOTH",
"1157 231 OFFCURVE",
"1190 431 OFFCURVE",
"1190 736 CURVE SMOOTH",
"1190 1018 OFFCURVE",
"1162 1217 OFFCURVE",
"1056 1337 CURVE SMOOTH",
"973 1431 OFFCURVE",
"821 1473 OFFCURVE",
"665 1473 CURVE SMOOTH"
);
}
);
};
layerId = "2F8B9CD4-7B7F-4ACC-ADF3-B6E0F7033A19";
paths = (
{
closed = 1;
nodes = (
"1063 -21 OFFCURVE",
"1190 161 OFFCURVE",
"1190 736 CURVE SMOOTH",
"1190 1296 OFFCURVE",
"1064 1473 OFFCURVE",
"665 1473 CURVE SMOOTH",
"258 1473 OFFCURVE",
"130 1296 OFFCURVE",
"130 735 CURVE SMOOTH",
"130 160 OFFCURVE",
"257 -21 OFFCURVE",
"661 -21 CURVE SMOOTH"
);
},
{
closed = 1;
nodes = (
"378 125 OFFCURVE",
"308 246 OFFCURVE",
"308 731 CURVE SMOOTH",
"308 1185 OFFCURVE",
"393 1328 OFFCURVE",
"664 1328 CURVE SMOOTH",
"928 1328 OFFCURVE",
"1012 1187 OFFCURVE",
"1012 742 CURVE SMOOTH",
"1012 248 OFFCURVE",
"941 125 OFFCURVE",
"659 125 CURVE SMOOTH"
);
}
);
width = 1320;
}
);
leftKerningGroup = zero;
note = zero;
rightKerningGroup = zero;
unicode = 0030;
},
{
glyphname = one;
layers = (
{
layerId = "2F8B9CD4-7B7F-4ACC-ADF3-B6E0F7033A19";
paths = (
{
closed = 1;
nodes = (
"469 0 LINE",
"469 1449 LINE",
"303 1449 LINE",
"75 1334 LINE",
"75 1172 LINE",
"295 1277 LINE",
"295 0 LINE"
);
}
);
width = 689;
}
);
note = one;
unicode = 0031;
},
{
glyphname = two;
layers = (
{
layerId = "2F8B9CD4-7B7F-4ACC-ADF3-B6E0F7033A19";
paths = (
{
closed = 1;
nodes = (
"955 0 LINE",
"955 158 LINE",
"263 158 LINE",
"263 286 OFFCURVE",
"354 400 OFFCURVE",
"588 566 CURVE SMOOTH",
"896 789 OFFCURVE",
"973 890 OFFCURVE",
"973 1071 CURVE SMOOTH",
"973 1358 OFFCURVE",
"844 1469 OFFCURVE",
"514 1469 CURVE SMOOTH",
"205 1469 OFFCURVE",
"60 1344 OFFCURVE",
"60 1078 CURVE",
"238 1078 LINE",
"238 1256 OFFCURVE",
"313 1325 OFFCURVE",
"507 1325 CURVE SMOOTH",
"717 1325 OFFCURVE",
"799 1256 OFFCURVE",
"799 1077 CURVE SMOOTH",
"799 944 OFFCURVE",
"729 860 OFFCURVE",
"450 653 CURVE SMOOTH",
"145 429 OFFCURVE",
"69 305 OFFCURVE",
"69 34 CURVE SMOOTH",
"69 23 OFFCURVE",
"69 12 OFFCURVE",
"69 0 CURVE"
);
}
);
width = 1063;
}
);
note = two;
unicode = 0032;
},
{
glyphname = three;
layers = (
{
background = {
paths = (
{
closed = 1;
nodes = (
"223 1169 OFFCURVE",
"239 1217 OFFCURVE",
"286 1267 CURVE SMOOTH",
"337 1320 OFFCURVE",
"435 1328 OFFCURVE",
"526 1328 CURVE SMOOTH",
"622 1328 OFFCURVE",
"701 1322 OFFCURVE",
"747 1278 CURVE SMOOTH",
"789 1238 OFFCURVE",
"806 1201 OFFCURVE",
"806 1080 CURVE SMOOTH",
"806 924 OFFCURVE",
"658 837 OFFCURVE",
"460 837 CURVE SMOOTH",
"335 837 LINE",
"335 678 LINE",
"460 679 LINE",
"661 679 OFFCURVE",
"837 602 OFFCURVE",
"837 414 CURVE SMOOTH",
"837 263 OFFCURVE",
"816 224 OFFCURVE",
"779 185 CURVE SMOOTH",
"730 136 OFFCURVE",
"628 122 OFFCURVE",
"547 122 CURVE SMOOTH",
"447 122 OFFCURVE",
"340 134 OFFCURVE",
"287 185 CURVE SMOOTH",
"246 224 OFFCURVE",
"221 263 OFFCURVE",
"221 362 CURVE",
"60 358 LINE",
"60 214 OFFCURVE",
"102 138 OFFCURVE",
"160 86 CURVE SMOOTH",
"242 13 OFFCURVE",
"364 -21 OFFCURVE",
"545 -21 CURVE SMOOTH",
"915 -21 OFFCURVE",
"1007 180 OFFCURVE",
"1007 422 CURVE SMOOTH",
"1007 617 OFFCURVE",
"853 729 OFFCURVE",
"694 757 CURVE",
"862 810 OFFCURVE",
"973 928 OFFCURVE",
"973 1107 CURVE SMOOTH",
"973 1219 OFFCURVE",
"943 1303 OFFCURVE",
"886 1362 CURVE SMOOTH",
"812 1439 OFFCURVE",
"692 1472 OFFCURVE",
"522 1472 CURVE SMOOTH",
"379 1472 OFFCURVE",
"252 1441 OFFCURVE",
"164 1363 CURVE SMOOTH",
"82 1290 OFFCURVE",
"61 1215 OFFCURVE",
"61 1070 CURVE",
"223 1070 LINE"
);
}
);
};
layerId = "2F8B9CD4-7B7F-4ACC-ADF3-B6E0F7033A19";
paths = (
{
closed = 1;
nodes = (
"859 -21 OFFCURVE",
"1007 121 OFFCURVE",
"1007 402 CURVE SMOOTH",
"1007 602 OFFCURVE",
"894 722 OFFCURVE",
"694 757 CURVE",
"884 816 OFFCURVE",
"973 928 OFFCURVE",
"973 1107 CURVE SMOOTH",
"973 1355 OFFCURVE",
"829 1472 OFFCURVE",
"522 1472 CURVE SMOOTH",
"221 1472 OFFCURVE",
"61 1355 OFFCURVE",
"61 1070 CURVE",
"223 1070 LINE",
"223 1276 OFFCURVE",
"316 1328 OFFCURVE",
"526 1328 CURVE SMOOTH",
"728 1328 OFFCURVE",
"806 1261 OFFCURVE",
"806 1090 CURVE SMOOTH",
"806 924 OFFCURVE",
"681 837 OFFCURVE",
"460 837 CURVE SMOOTH",
"335 837 LINE",
"335 678 LINE",
"460 679 LINE",
"701 679 OFFCURVE",
"837 584 OFFCURVE",
"837 394 CURVE SMOOTH",
"837 192 OFFCURVE",
"767 122 OFFCURVE",
"547 122 CURVE SMOOTH",
"312 122 OFFCURVE",
"221 189 OFFCURVE",
"221 362 CURVE",
"60 358 LINE",
"60 100 OFFCURVE",
"215 -21 OFFCURVE",
"545 -21 CURVE SMOOTH"
);
}
);
width = 1097;
}
);
note = three;
rightKerningGroup = three;
unicode = 0033;
},
{
glyphname = four;
layers = (
{
layerId = "2F8B9CD4-7B7F-4ACC-ADF3-B6E0F7033A19";
paths = (
{
closed = 1;
nodes = (
"855 -1 LINE",
"855 334 LINE",
"1038 334 LINE",
"1038 481 LINE",
"855 481 LINE",
"855 1430 LINE",
"643 1430 LINE",
"53 492 LINE",
"53 334 LINE",
"681 334 LINE",
"681 -1 LINE"
);
},
{
closed = 1;
nodes = (
"681 1239 LINE",
"681 479 LINE",
"157 479 LINE",
"178 431 LINE"
);
}
);
width = 1098;
}
);
note = four;
unicode = 0034;
},
{
glyphname = five;
layers = (
{
background = {
paths = (
{
closed = 1;
nodes = (
"353 719 OFFCURVE",
"421 758 OFFCURVE",
"568 758 CURVE SMOOTH",
"675 758 OFFCURVE",
"746 749 OFFCURVE",
"796 715 CURVE SMOOTH",
"854 675 OFFCURVE",
"868 585 OFFCURVE",
"868 461 CURVE SMOOTH",
"868 324 OFFCURVE",
"853 220 OFFCURVE",
"786 165 CURVE SMOOTH",
"746 132 OFFCURVE",
"650 114 OFFCURVE",
"537 114 CURVE SMOOTH",
"431 114 OFFCURVE",
"368 128 OFFCURVE",
"323 161 CURVE SMOOTH",
"272 198 OFFCURVE",
"262 248 OFFCURVE",
"262 332 CURVE",
"90 332 LINE",
"90 221 OFFCURVE",
"111 134 OFFCURVE",
"188 71 CURVE SMOOTH",
"274 1 OFFCURVE",
"357 -25 OFFCURVE",
"501 -25 CURVE SMOOTH",
"933 -25 OFFCURVE",
"1042 143 OFFCURVE",
"1042 461 CURVE SMOOTH",
"1042 625 OFFCURVE",
"1003 750 OFFCURVE",
"924 823 CURVE SMOOTH",
"854 888 OFFCURVE",
"745 908 OFFCURVE",
"604 908 CURVE SMOOTH",
"424 908 OFFCURVE",
"341 831 OFFCURVE",
"296 767 CURVE",
"343 1294 LINE",
"985 1294 LINE",
"985 1440 LINE",
"175 1440 LINE",
"120 670 LINE",
"263 618 LINE"
);
}
);
};
guideLines = (
{
angle = 90;
position = "{995, 256}";
}
);
layerId = "2F8B9CD4-7B7F-4ACC-ADF3-B6E0F7033A19";
paths = (
{
closed = 1;
nodes = (
"891 -25 OFFCURVE",
"1042 111 OFFCURVE",
"1042 461 CURVE SMOOTH",
"1042 783 OFFCURVE",
"921 908 OFFCURVE",
"604 908 CURVE SMOOTH",
"424 908 OFFCURVE",
"341 831 OFFCURVE",
"296 767 CURVE",
"343 1294 LINE",
"985 1294 LINE",
"985 1440 LINE",
"175 1440 LINE",
"120 670 LINE",
"263 618 LINE",
"353 719 OFFCURVE",
"438 758 OFFCURVE",
"568 758 CURVE SMOOTH",
"796 758 OFFCURVE",
"868 687 OFFCURVE",
"868 461 CURVE SMOOTH",
"868 183 OFFCURVE",
"802 114 OFFCURVE",
"537 114 CURVE SMOOTH",
"339 114 OFFCURVE",
"262 175 OFFCURVE",
"262 332 CURVE",
"90 332 LINE",
"90 89 OFFCURVE",
"222 -25 OFFCURVE",
"536 -25 CURVE SMOOTH"
);
}
);
width = 1132;
}
);
note = five;
unicode = 0035;
},
{
glyphname = six;
layers = (
{
background = {
paths = (
{
closed = 1;
nodes = (
"1088 1387 OFFCURVE",
"894 1474 OFFCURVE",
"621 1474 CURVE SMOOTH",
"327 1474 OFFCURVE",
"130 1378 OFFCURVE",
"130 1057 CURVE SMOOTH",
"130 969 OFFCURVE",
"130 881 OFFCURVE",
"130 536 CURVE SMOOTH",
"130 77 OFFCURVE",
"249 -32 OFFCURVE",
"633 -32 CURVE SMOOTH",
"1022 -32 OFFCURVE",
"1125 85 OFFCURVE",
"1125 442 CURVE SMOOTH",
"1125 595 OFFCURVE",
"1110 713 OFFCURVE",
"1029 798 CURVE SMOOTH",
"961 870 OFFCURVE",
"852 896 OFFCURVE",
"669 896 CURVE SMOOTH",
"481 896 OFFCURVE",
"378 864 OFFCURVE",
"302 753 CURVE",
"305 828 OFFCURVE",
"300 939 OFFCURVE",
"305 1044 CURVE SMOOTH",
"315 1275 OFFCURVE",
"424 1326 OFFCURVE",
"616 1326 CURVE SMOOTH",
"829 1326 OFFCURVE",
"922 1275 OFFCURVE",
"922 1088 CURVE",
"1088 1088 LINE"
);
},
{
closed = 1;
nodes = (
"510 116 OFFCURVE",
"416 139 OFFCURVE",
"369 183 CURVE SMOOTH",
"320 228 OFFCURVE",
"299 304 OFFCURVE",
"303 585 CURVE",
"355 723 OFFCURVE",
"470 753 OFFCURVE",
"646 753 CURVE SMOOTH",
"734 753 OFFCURVE",
"821 746 OFFCURVE",
"864 713 CURVE SMOOTH",
"926 666 OFFCURVE",
"947 572 OFFCURVE",
"947 441 CURVE SMOOTH",
"947 315 OFFCURVE",
"939 229 OFFCURVE",
"894 183 CURVE SMOOTH",
"848 135 OFFCURVE",
"749 116 OFFCURVE",
"631 116 CURVE SMOOTH"
);
}
);
};
guideLines = (
{
position = "{467, 154}";
}
);
layerId = "2F8B9CD4-7B7F-4ACC-ADF3-B6E0F7033A19";
paths = (
{
closed = 1;
nodes = (
"1022 -32 OFFCURVE",
"1125 85 OFFCURVE",
"1125 442 CURVE SMOOTH",
"1125 787 OFFCURVE",
"1016 896 OFFCURVE",
"669 896 CURVE SMOOTH",
"476 896 OFFCURVE",
"373 856 OFFCURVE",
"302 753 CURVE",
"306 1044 LINE SMOOTH",
"309 1247 OFFCURVE",
"395 1326 OFFCURVE",
"616 1326 CURVE SMOOTH",
"829 1326 OFFCURVE",
"922 1275 OFFCURVE",
"922 1088 CURVE",
"1088 1088 LINE",
"1088 1387 OFFCURVE",
"894 1474 OFFCURVE",
"621 1474 CURVE SMOOTH",
"289 1474 OFFCURVE",
"133 1334 OFFCURVE",
"133 1037 CURVE SMOOTH",
"131 413 LINE SMOOTH",
"130 92 OFFCURVE",
"250 -32 OFFCURVE",
"633 -32 CURVE SMOOTH"
);
},
{
closed = 1;
nodes = (
"386 116 OFFCURVE",
"308 178 OFFCURVE",
"305 413 CURVE SMOOTH",
"303 585 LINE",
"346 699 OFFCURVE",
"456 753 OFFCURVE",
"646 753 CURVE SMOOTH",
"875 753 OFFCURVE",
"947 678 OFFCURVE",
"947 441 CURVE SMOOTH",
"947 178 OFFCURVE",
"901 116 OFFCURVE",
"631 116 CURVE SMOOTH"
);
}
);
width = 1215;
}
);
leftKerningGroup = zero;
note = six;
unicode = 0036;
},
{
glyphname = seven;
layers = (
{
layerId = "2F8B9CD4-7B7F-4ACC-ADF3-B6E0F7033A19";
paths = (
{
closed = 1;
nodes = (
"419 0 LINE",
"419 431 OFFCURVE",
"660 912 OFFCURVE",
"993 1293 CURVE",
"987 1441 LINE",
"40 1441 LINE",
"40 1280 LINE",
"841 1280 LINE",
"817 1314 LINE",
"481 927 OFFCURVE",
"245 443 OFFCURVE",
"245 0 CURVE"
);
}
);
width = 1013;
}
);
note = seven;
unicode = 0037;
},
{
glyphname = eight;
layers = (
{
background = {
paths = (
{
closed = 1;
nodes = (
"905 825 OFFCURVE",
"1008 895 OFFCURVE",
"1008 1151 CURVE SMOOTH",
"1008 1389 OFFCURVE",
"828 1492 OFFCURVE",
"578 1492 CURVE SMOOTH",
"333 1492 OFFCURVE",
"135 1394 OFFCURVE",
"135 1144 CURVE SMOOTH",
"135 900 OFFCURVE",
"226 813 OFFCURVE",
"354 784 CURVE",
"155 730 OFFCURVE",
"77 623 OFFCURVE",
"77 373 CURVE SMOOTH",
"77 43 OFFCURVE",
"252 -33 OFFCURVE",
"558 -33 CURVE SMOOTH",
"868 -33 OFFCURVE",
"1063 41 OFFCURVE",
"1063 374 CURVE SMOOTH",
"1063 631 OFFCURVE",
"978 748 OFFCURVE",
"787 784 CURVE"
);
},
{
closed = 1;
nodes = (
"798 681 OFFCURVE",
"896 630 OFFCURVE",
"896 384 CURVE SMOOTH",
"896 158 OFFCURVE",
"769 112 OFFCURVE",
"569 112 CURVE SMOOTH",
"365 112 OFFCURVE",
"244 148 OFFCURVE",
"244 382 CURVE SMOOTH",
"244 623 OFFCURVE",
"347 679 OFFCURVE",
"569 689 CURVE"
);
},
{
closed = 1;
nodes = (
"729 1345 OFFCURVE",
"841 1306 OFFCURVE",
"841 1141 CURVE SMOOTH",
"841 893 OFFCURVE",
"744 871 OFFCURVE",
"571 871 CURVE",
"402 871 OFFCURVE",
"301 898 OFFCURVE",
"301 1139 CURVE SMOOTH",
"301 1302 OFFCURVE",
"422 1345 OFFCURVE",
"572 1345 CURVE SMOOTH"
);
}
);
};
layerId = "2F8B9CD4-7B7F-4ACC-ADF3-B6E0F7033A19";
paths = (
{
closed = 1;
nodes = (
"910 -21 OFFCURVE",
"1067 106 OFFCURVE",
"1067 385 CURVE SMOOTH",
"1067 610 OFFCURVE",
"956 733 OFFCURVE",
"738 762 CURVE",
"737 747 LINE",
"931 801 OFFCURVE",
"1032 914 OFFCURVE",
"1032 1089 CURVE SMOOTH",
"1032 1353 OFFCURVE",
"887 1472 OFFCURVE",
"578 1472 CURVE SMOOTH",
"269 1472 OFFCURVE",
"123 1353 OFFCURVE",
"123 1089 CURVE SMOOTH",
"123 914 OFFCURVE",
"224 801 OFFCURVE",
"418 747 CURVE",
"417 762 LINE",
"201 733 OFFCURVE",
"90 610 OFFCURVE",
"90 385 CURVE SMOOTH",
"90 106 OFFCURVE",
"246 -21 OFFCURVE",
"577 -21 CURVE SMOOTH"
);
},
{
closed = 1;
nodes = (
"360 125 OFFCURVE",
"258 205 OFFCURVE",
"258 385 CURVE SMOOTH",
"258 585 OFFCURVE",
"360 686 OFFCURVE",
"578 682 CURVE SMOOTH",
"795 678 OFFCURVE",
"897 576 OFFCURVE",
"897 385 CURVE SMOOTH",
"897 205 OFFCURVE",
"795 125 OFFCURVE",
"577 125 CURVE SMOOTH"
);
},
{
closed = 1;
nodes = (
"392 834 OFFCURVE",
"289 939 OFFCURVE",
"289 1089 CURVE SMOOTH",
"289 1254 OFFCURVE",
"381 1327 OFFCURVE",
"578 1327 CURVE SMOOTH",
"774 1327 OFFCURVE",
"866 1254 OFFCURVE",
"866 1089 CURVE SMOOTH",
"866 939 OFFCURVE",
"763 834 OFFCURVE",
"578 834 CURVE SMOOTH"
);
}
);
width = 1157;
}
);
note = eight;
rightKerningGroup = three;
unicode = 0038;
},
{
glyphname = nine;
layers = (
{
background = {
paths = (
{
closed = 1;
nodes = (
"163 55 OFFCURVE",
"347 -32 OFFCURVE",
"621 -32 CURVE SMOOTH",
"904 -32 OFFCURVE",
"1102 64 OFFCURVE",
"1102 385 CURVE SMOOTH",
"1102 473 OFFCURVE",
"1102 561 OFFCURVE",
"1102 906 CURVE SMOOTH",
"1102 1365 OFFCURVE",
"983 1474 OFFCURVE",
"609 1474 CURVE SMOOTH",
"230 1474 OFFCURVE",
"127 1357 OFFCURVE",
"127 1000 CURVE SMOOTH",
"127 847 OFFCURVE",
"141 729 OFFCURVE",
"223 644 CURVE SMOOTH",
"291 573 OFFCURVE",
"389 546 OFFCURVE",
"572 546 CURVE SMOOTH",
"761 546 OFFCURVE",
"863 578 OFFCURVE",
"940 689 CURVE",
"936 614 OFFCURVE",
"941 503 OFFCURVE",
"936 398 CURVE SMOOTH",
"926 157 OFFCURVE",
"817 106 OFFCURVE",
"625 106 CURVE SMOOTH",
"413 106 OFFCURVE",
"320 157 OFFCURVE",
"320 354 CURVE",
"163 354 LINE"
);
},
{
closed = 1;
nodes = (
"731 1336 OFFCURVE",
"826 1313 OFFCURVE",
"872 1269 CURVE SMOOTH",
"921 1223 OFFCURVE",
"943 1148 OFFCURVE",
"938 857 CURVE",
"887 719 OFFCURVE",
"772 689 OFFCURVE",
"596 689 CURVE SMOOTH",
"507 689 OFFCURVE",
"420 696 OFFCURVE",
"377 729 CURVE SMOOTH",
"316 776 OFFCURVE",
"295 870 OFFCURVE",
"295 1001 CURVE SMOOTH",
"295 1137 OFFCURVE",
"302 1223 OFFCURVE",
"347 1269 CURVE SMOOTH",
"394 1317 OFFCURVE",
"493 1336 OFFCURVE",
"611 1336 CURVE SMOOTH"
);
}
);
};
components = (
{
name = six;
transform = "{-1, 0, 0, -1, 1215, 1442}";
}
);
layerId = "2F8B9CD4-7B7F-4ACC-ADF3-B6E0F7033A19";
width = 1215;
}
);
leftKerningGroup = zero;
note = nine;
rightKerningGroup = zero;
unicode = 0039;
},
{
glyphname = onesuperior;
layers = (
{
background = {
paths = (
{
closed = 1;
nodes = (
"288 1201 LINE",
"288 296 LINE",
"403 296 LINE",
"403 1316 LINE",
"294 1316 LINE",
"133 1238 LINE",
"133 1124 LINE"
);
}
);
};
layerId = "2F8B9CD4-7B7F-4ACC-ADF3-B6E0F7033A19";
paths = (
{
closed = 1;
nodes = (
"343 644 LINE",
"343 1457 LINE",
"226 1457 LINE",
"80 1384 LINE",
"80 1254 LINE",
"230 1324 LINE",
"216 1333 LINE",
"216 644 LINE"
);
}
);
width = 523;
}
);
note = onesuperior;
unicode = 00B9;
},
{
glyphname = twosuperior;
layers = (
{
background = {
paths = (
{
closed = 1;
nodes = (
"239 1119 OFFCURVE",
"250 1154 OFFCURVE",
"285 1189 CURVE SMOOTH",
"318 1222 OFFCURVE",
"377 1232 OFFCURVE",
"447 1232 CURVE SMOOTH",
"516 1232 OFFCURVE",
"591 1222 OFFCURVE",
"621 1189 CURVE SMOOTH",
"652 1155 OFFCURVE",
"658 1116 OFFCURVE",
"658 1058 CURVE SMOOTH",
"658 863 OFFCURVE",
"335 759 OFFCURVE",
"213 598 CURVE SMOOTH",
"160 528 OFFCURVE",
"128 446 OFFCURVE",
"132 301 CURVE",
"764 301 LINE",
"764 412 LINE",
"265 412 LINE",
"265 489 OFFCURVE",
"318 557 OFFCURVE",
"391 616 CURVE SMOOTH",
"540 737 OFFCURVE",
"776 857 OFFCURVE",
"776 1053 CURVE SMOOTH",
"776 1160 OFFCURVE",
"761 1212 OFFCURVE",
"710 1260 CURVE SMOOTH",
"657 1309 OFFCURVE",
"586 1333 OFFCURVE",
"453 1333 CURVE SMOOTH",
"322 1333 OFFCURVE",
"257 1306 OFFCURVE",
"199 1256 CURVE SMOOTH",
"141 1206 OFFCURVE",
"125 1153 OFFCURVE",
"125 1051 CURVE",
"239 1051 LINE"
);
}
);
};
layerId = "2F8B9CD4-7B7F-4ACC-ADF3-B6E0F7033A19";
paths = (
{
closed = 1;
nodes = (
"620 643 LINE",
"620 761 LINE",
"231 761 LINE",
"241 751 LINE",
"241 798 OFFCURVE",
"291 845 OFFCURVE",
"428 949 CURVE SMOOTH",
"556 1046 OFFCURVE",
"620 1125 OFFCURVE",
"620 1248 CURVE SMOOTH",
"620 1406 OFFCURVE",
"538 1479 OFFCURVE",
"361 1479 CURVE SMOOTH",
"183 1479 OFFCURVE",
"93 1403 OFFCURVE",
"93 1252 CURVE",
"217 1252 LINE",
"217 1327 OFFCURVE",
"265 1369 OFFCURVE",
"357 1369 CURVE SMOOTH",
"456 1369 OFFCURVE",
"499 1331 OFFCURVE",
"498 1251 CURVE SMOOTH",
"497 1174 OFFCURVE",
"449 1113 OFFCURVE",
"309 1007 CURVE SMOOTH",
"127 869 OFFCURVE",
"108 775 OFFCURVE",
"108 672 CURVE SMOOTH",
"108 661 OFFCURVE",
"110 650 OFFCURVE",
"111 643 CURVE"
);
}
);
width = 730;
}
);
note = twosuperior;
unicode = 00B2;
},
{
glyphname = threesuperior;
layers = (
{
background = {
paths = (
{
closed = 1;
nodes = (
"241 1130 OFFCURVE",
"252 1165 OFFCURVE",
"285 1199 CURVE SMOOTH",
"322 1238 OFFCURVE",
"391 1244 OFFCURVE",
"456 1244 CURVE SMOOTH",
"525 1244 OFFCURVE",
"580 1239 OFFCURVE",
"613 1208 CURVE SMOOTH",
"642 1180 OFFCURVE",
"655 1153 OFFCURVE",
"655 1067 CURVE SMOOTH",
"655 956 OFFCURVE",
"550 887 OFFCURVE",
"409 887 CURVE SMOOTH",
"320 887 LINE",
"320 788 LINE",
"409 789 LINE",
"552 789 OFFCURVE",
"677 728 OFFCURVE",
"677 595 CURVE SMOOTH",
"677 487 OFFCURVE",
"662 459 OFFCURVE",
"635 431 CURVE SMOOTH",
"601 396 OFFCURVE",
"528 386 OFFCURVE",
"471 386 CURVE SMOOTH",
"400 386 OFFCURVE",
"324 396 OFFCURVE",
"286 431 CURVE SMOOTH",
"256 458 OFFCURVE",
"239 487 OFFCURVE",
"239 557 CURVE",
"131 554 LINE",
"131 452 OFFCURVE",
"161 398 OFFCURVE",
"203 360 CURVE SMOOTH",
"260 308 OFFCURVE",
"340 284 OFFCURVE",
"470 284 CURVE SMOOTH",
"725 284 OFFCURVE",
"790 427 OFFCURVE",
"790 600 CURVE SMOOTH",
"790 738 OFFCURVE",
"681 817 OFFCURVE",
"575 838 CURVE",
"687 876 OFFCURVE",
"766 959 OFFCURVE",
"766 1086 CURVE SMOOTH",
"766 1166 OFFCURVE",
"745 1225 OFFCURVE",
"705 1267 CURVE SMOOTH",
"652 1322 OFFCURVE",
"566 1345 OFFCURVE",
"453 1345 CURVE SMOOTH",
"351 1345 OFFCURVE",
"268 1323 OFFCURVE",
"205 1268 CURVE SMOOTH",
"147 1217 OFFCURVE",
"132 1163 OFFCURVE",
"132 1060 CURVE",
"241 1060 LINE"
);
}
);
};
layerId = "2F8B9CD4-7B7F-4ACC-ADF3-B6E0F7033A19";
paths = (
{
closed = 1;
nodes = (
"563 632 OFFCURVE",
"658 718 OFFCURVE",
"658 878 CURVE SMOOTH",
"658 990 OFFCURVE",
"593 1063 OFFCURVE",
"476 1084 CURVE",
"478 1065 LINE",
"581 1098 OFFCURVE",
"639 1171 OFFCURVE",
"639 1269 CURVE SMOOTH",
"639 1412 OFFCURVE",
"553 1482 OFFCURVE",
"378 1482 CURVE SMOOTH",
"198 1482 OFFCURVE",
"112 1406 OFFCURVE",
"112 1248 CURVE",
"227 1248 LINE",
"227 1330 OFFCURVE",
"277 1372 OFFCURVE",
"381 1372 CURVE SMOOTH",
"470 1372 OFFCURVE",
"516 1331 OFFCURVE",
"516 1266 CURVE SMOOTH",
"516 1176 OFFCURVE",
"459 1133 OFFCURVE",
"344 1133 CURVE SMOOTH",
"275 1133 LINE",
"275 1016 LINE",
"344 1016 LINE SMOOTH",
"474 1016 OFFCURVE",
"533 973 OFFCURVE",
"533 874 CURVE SMOOTH",
"533 793 OFFCURVE",
"483 742 OFFCURVE",
"389 742 CURVE SMOOTH",
"279 742 OFFCURVE",
"226 781 OFFCURVE",
"226 855 CURVE",
"112 853 LINE",
"112 704 OFFCURVE",
"202 632 OFFCURVE",
"388 632 CURVE SMOOTH"
);
}
);
width = 783;
}
);
note = threesuperior;
unicode = 00B3;
},
{
glyphname = foursuperior;
layers = (
{
background = {
paths = (
{
closed = 1;
nodes = (
"168 635 LINE",
"506 1177 LINE",
"506 635 LINE"
);
},
{
closed = 1;
nodes = (
"64 540 LINE",
"506 540 LINE",
"506 304 LINE",
"621 304 LINE",
"621 540 LINE",
"750 540 LINE",
"750 637 LINE",
"621 637 LINE",
"621 1311 LINE",
"478 1311 LINE",
"64 651 LINE"
);
}
);
};
layerId = "2F8B9CD4-7B7F-4ACC-ADF3-B6E0F7033A19";
paths = (
{
closed = 1;
nodes = (
"549 655 LINE",
"549 872 LINE",
"539 862 LINE",
"641 862 LINE",
"641 973 LINE",
"539 973 LINE",
"549 953 LINE",
"548 1485 LINE",
"413 1485 LINE",
"45 965 LINE",
"45 863 LINE",
"442 862 LINE",
"422 872 LINE",
"422 655 LINE"
);
},
{
closed = 1;
nodes = (
"461 1369 LINE",
"422 1374 LINE",
"422 952 LINE",
"442 972 LINE",
"111 972 LINE",
"141 920 LINE"
);
}
);
width = 701;
}
);
note = foursuperior;
unicode = 2074;
},
{
glyphname = fraction;
layers = (
{
layerId = "2F8B9CD4-7B7F-4ACC-ADF3-B6E0F7033A19";
paths = (
{
closed = 1;
nodes = (
"792 1440 LINE",
"679 1489 LINE",
"-127 -67 LINE",
"-15 -119 LINE"
);
}
);
width = 724;
}
);
note = fraction;
unicode = 2044;
},
{
glyphname = period;
layers = (
{
layerId = "2F8B9CD4-7B7F-4ACC-ADF3-B6E0F7033A19";
paths = (
{
closed = 1;
nodes = (
"358 -20 LINE",
"358 192 LINE",
"133 192 LINE",
"133 -20 LINE"
);
}
);
width = 491;
}
);
leftKerningGroup = period;
note = period;
rightKerningGroup = period;
unicode = 002E;
},
{
glyphname = comma;
layers = (
{
background = {
paths = (
{
closed = 1;
nodes = (
"365 184 OFFCURVE",
"335 214 OFFCURVE",
"254 214 CURVE",
"173 214 OFFCURVE",
"135 184 OFFCURVE",
"135 99 CURVE",
"135 17 OFFCURVE",
"173 -4 OFFCURVE",
"244 -4 CURVE",
"244 -75 OFFCURVE",
"214 -120 OFFCURVE",
"157 -184 CURVE",
"205 -254 LINE",
"229 -239 OFFCURVE",
"260 -219 OFFCURVE",
"296 -174 CURVE SMOOTH",
"332 -128 OFFCURVE",
"365 -69 OFFCURVE",
"365 2 CURVE SMOOTH",
"365 99 LINE"
);
}
);
};
layerId = "2F8B9CD4-7B7F-4ACC-ADF3-B6E0F7033A19";
paths = (
{
closed = 1;
nodes = (
"276 -277 OFFCURVE",
"358 -174 OFFCURVE",
"358 -44 CURVE SMOOTH",
"358 26 LINE",
"247 26 LINE",
"247 -44 LINE SMOOTH",
"247 -124 OFFCURVE",
"210 -177 OFFCURVE",
"123 -177 CURVE",
"123 -281 LINE"
);
},
{
closed = 1;
nodes = (
"358 -20 LINE",
"358 192 LINE",
"133 192 LINE",
"133 -20 LINE"
);
}
);
width = 501;
}
);
leftKerningGroup = period;
note = comma;
rightKerningGroup = period;
unicode = 002C;
},
{
glyphname = colon;
layers = (
{
layerId = "2F8B9CD4-7B7F-4ACC-ADF3-B6E0F7033A19";
paths = (
{
closed = 1;
nodes = (
"358 717 LINE",
"358 929 LINE",
"133 929 LINE",
"133 717 LINE"
);
},
{
closed = 1;
nodes = (
"358 -20 LINE",
"358 192 LINE",
"133 192 LINE",
"133 -20 LINE"
);
}
);
width = 491;
}
);
leftKerningGroup = period;
note = colon;
rightKerningGroup = period;
unicode = 003A;
},
{
glyphname = semicolon;
layers = (
{
components = (
{
name = comma;
transform = "{1, 0, 0, 1, 10, 0}";
}
);
guideLines = (
{
angle = 90;
position = "{362, 584}";
},
{
angle = 90;
position = "{151, 577}";
}
);
layerId = "2F8B9CD4-7B7F-4ACC-ADF3-B6E0F7033A19";
paths = (
{
closed = 1;
nodes = (
"368 717 LINE",
"368 929 LINE",
"143 929 LINE",
"143 717 LINE"
);
}
);
width = 501;
}
);
leftKerningGroup = period;
note = semicolon;
rightKerningGroup = period;
unicode = 003B;
},
{
glyphname = exclam;
layers = (
{
layerId = "2F8B9CD4-7B7F-4ACC-ADF3-B6E0F7033A19";
paths = (
{
closed = 1;
nodes = (
"308 335 LINE",
"335 1186 LINE",
"335 1441 LINE",
"157 1441 LINE",
"157 1186 LINE",
"185 335 LINE"
);
},
{
closed = 1;
nodes = (
"358 -20 LINE",
"358 192 LINE",
"133 192 LINE",
"133 -20 LINE"
);
}
);
width = 491;
}
);
note = exclam;
unicode = 0021;
},
{
glyphname = question;
layers = (
{
background = {
paths = (
{
closed = 1;
nodes = (
"236 1216 OFFCURVE",
"355 1231 OFFCURVE",
"470 1231 CURVE SMOOTH",
"587 1231 OFFCURVE",
"673 1199 OFFCURVE",
"673 1069 CURVE SMOOTH",
"673 966 OFFCURVE",
"607 903 OFFCURVE",
"510 824 CURVE SMOOTH",
"405 738 OFFCURVE",
"320 651 OFFCURVE",
"320 534 CURVE SMOOTH",
"320 488 OFFCURVE",
"324 404 OFFCURVE",
"328 350 CURVE",
"459 349 LINE",
"462 435 OFFCURVE",
"463 490 OFFCURVE",
"466 528 CURVE SMOOTH",
"472 594 OFFCURVE",
"509 641 OFFCURVE",
"652 760 CURVE SMOOTH",
"746 839 OFFCURVE",
"818 947 OFFCURVE",
"818 1062 CURVE SMOOTH",
"818 1309 OFFCURVE",
"645 1366 OFFCURVE",
"449 1366 CURVE SMOOTH",
"340 1366 OFFCURVE",
"91 1335 OFFCURVE",
"91 1053 CURVE",
"236 1053 LINE"
);
}
);
};
layerId = "2F8B9CD4-7B7F-4ACC-ADF3-B6E0F7033A19";
paths = (
{
closed = 1;
nodes = (
"502 435 OFFCURVE",
"503 490 OFFCURVE",
"506 538 CURVE SMOOTH",
"510 601 OFFCURVE",
"557 661 OFFCURVE",
"675 750 CURVE SMOOTH",
"883 908 OFFCURVE",
"935 983 OFFCURVE",
"935 1127 CURVE SMOOTH",
"935 1365 OFFCURVE",
"789 1477 OFFCURVE",
"478 1477 CURVE SMOOTH",
"159 1477 OFFCURVE",
"35 1375 OFFCURVE",
"35 1111 CURVE",
"199 1111 LINE",
"215 1274 OFFCURVE",
"282 1325 OFFCURVE",
"478 1325 CURVE SMOOTH",
"682 1325 OFFCURVE",
"761 1271 OFFCURVE",
"761 1131 CURVE SMOOTH",
"761 1041 OFFCURVE",
"713 985 OFFCURVE",
"523 849 CURVE SMOOTH",
"391 755 OFFCURVE",
"340 669 OFFCURVE",
"340 544 CURVE SMOOTH",
"340 488 OFFCURVE",
"344 404 OFFCURVE",
"348 350 CURVE",
"499 349 LINE"
);
},
{
closed = 1;
nodes = (
"540 -20 LINE",
"540 192 LINE",
"315 192 LINE",
"315 -20 LINE"
);
}
);
width = 960;
}
);
note = question;
unicode = 003F;
},
{
glyphname = periodcentered;
layers = (
{
anchors = (
{
name = _center;
position = "{175, 820}";
}
);
layerId = "2F8B9CD4-7B7F-4ACC-ADF3-B6E0F7033A19";
paths = (
{
closed = 1;
nodes = (
"358 717 LINE",
"358 929 LINE",
"133 929 LINE",
"133 717 LINE"
);
}
);
width = 491;
}
);
leftKerningGroup = periodcentered;
note = periodcentered;
rightKerningGroup = periodcentered;
unicode = 00B7;
},
{
glyphname = bullet;
layers = (
{
layerId = "2F8B9CD4-7B7F-4ACC-ADF3-B6E0F7033A19";
paths = (
{
closed = 1;
nodes = (
"650 302 OFFCURVE",
"752 400 OFFCURVE",
"752 608 CURVE SMOOTH",
"752 822 OFFCURVE",
"647 922 OFFCURVE",
"423 922 CURVE SMOOTH",
"205 922 OFFCURVE",
"103 824 OFFCURVE",
"103 616 CURVE SMOOTH",
"103 402 OFFCURVE",
"208 302 OFFCURVE",
"432 302 CURVE SMOOTH"
);
}
);
width = 855;
}
);
leftKerningGroup = periodcentered;
note = bullet;
rightKerningGroup = periodcentered;
unicode = 2022;
},
{
glyphname = asterisk;
layers = (
{
layerId = "2F8B9CD4-7B7F-4ACC-ADF3-B6E0F7033A19";
paths = (
{
closed = 1;
nodes = (
"561 701 LINE",
"539 997 LINE",
"797 825 LINE",
"862 945 LINE",
"575 1076 LINE",
"862 1203 LINE",
"797 1323 LINE",
"539 1151 LINE",
"561 1447 LINE",
"428 1447 LINE",
"449 1151 LINE",
"186 1323 LINE",
"121 1204 LINE",
"418 1076 LINE",
"122 937 LINE",
"186 825 LINE",
"449 997 LINE",
"428 701 LINE"
);
}
);
width = 982;
}
);
leftKerningGroup = asterisk;
note = asterisk;
rightKerningGroup = asterisk;
unicode = 002A;
},
{
glyphname = numbersign;
layers = (
{
layerId = "2F8B9CD4-7B7F-4ACC-ADF3-B6E0F7033A19";
paths = (
{
closed = 1;
nodes = (
"598 0 LINE",
"872 1321 LINE",
"745 1321 LINE",
"471 0 LINE"
);
},
{
closed = 1;
nodes = (
"929 392 LINE",
"929 511 LINE",
"-33 511 LINE",
"-33 392 LINE"
);
},
{
closed = 1;
nodes = (
"193 0 LINE",
"467 1321 LINE",
"340 1321 LINE",
"66 0 LINE"
);
},
{
closed = 1;
nodes = (
"989 822 LINE",
"989 941 LINE",
"27 941 LINE",
"27 822 LINE"
);
}
);
width = 949;
}
);
note = numbersign;
unicode = 0023;
},
{
glyphname = slash;
layers = (
{
layerId = "2F8B9CD4-7B7F-4ACC-ADF3-B6E0F7033A19";
paths = (
{
closed = 1;
nodes = (
"609 1597 LINE",
"492 1624 LINE",
"96 -143 LINE",
"211 -171 LINE"
);
}
);
width = 711;
}
);
note = slash;
unicode = 002F;
},
{
glyphname = backslash;
layers = (
{
layerId = "2F8B9CD4-7B7F-4ACC-ADF3-B6E0F7033A19";
paths = (
{
closed = 1;
nodes = (
"577 -92 LINE",
"206 1509 LINE",
"100 1479 LINE",
"468 -121 LINE"
);
}
);
width = 676;
}
);
note = backslash;
unicode = 005C;
},
{
glyphname = parenleft;
layers = (
{
layerId = "2F8B9CD4-7B7F-4ACC-ADF3-B6E0F7033A19";
paths = (
{
closed = 1;
nodes = (
"504 -141 LINE",
"399 -141 OFFCURVE",
"340 -121 OFFCURVE",
"304 -23 CURVE SMOOTH",
"258 101 OFFCURVE",
"255 443 OFFCURVE",
"255 638 CURVE SMOOTH",
"255 824 OFFCURVE",
"258 1155 OFFCURVE",
"304 1279 CURVE SMOOTH",
"340 1376 OFFCURVE",
"399 1397 OFFCURVE",
"504 1397 CURVE",
"504 1520 LINE",
"337 1511 OFFCURVE",
"260 1488 OFFCURVE",
"186 1386 CURVE SMOOTH",
"90 1253 OFFCURVE",
"91 866 OFFCURVE",
"91 638 CURVE SMOOTH",
"91 390 OFFCURVE",
"90 3 OFFCURVE",
"186 -130 CURVE SMOOTH",
"260 -233 OFFCURVE",
"337 -255 OFFCURVE",
"504 -264 CURVE"
);
}
);
width = 586;
}
);
leftKerningGroup = bracketleft;
note = parenleft;
rightKerningGroup = bracketleft;
unicode = 0028;
},
{
glyphname = parenright;
layers = (
{
layerId = "2F8B9CD4-7B7F-4ACC-ADF3-B6E0F7033A19";
paths = (
{
closed = 1;
nodes = (
"258 -255 OFFCURVE",
"335 -233 OFFCURVE",
"409 -130 CURVE SMOOTH",
"505 3 OFFCURVE",
"504 390 OFFCURVE",
"504 638 CURVE SMOOTH",
"504 866 OFFCURVE",
"505 1253 OFFCURVE",
"409 1386 CURVE SMOOTH",
"335 1488 OFFCURVE",
"258 1511 OFFCURVE",
"91 1520 CURVE",
"91 1397 LINE",
"196 1397 OFFCURVE",
"255 1376 OFFCURVE",
"291 1279 CURVE SMOOTH",
"337 1155 OFFCURVE",
"340 824 OFFCURVE",
"340 638 CURVE SMOOTH",
"340 443 OFFCURVE",
"337 101 OFFCURVE",
"291 -23 CURVE SMOOTH",
"255 -121 OFFCURVE",
"196 -141 OFFCURVE",
"91 -141 CURVE",
"91 -264 LINE"
);
}
);
width = 584;
}
);
leftKerningGroup = bracketright;
note = parenright;
rightKerningGroup = bracketright;
unicode = 0029;
},
{
glyphname = braceleft;
layers = (
{
layerId = "2F8B9CD4-7B7F-4ACC-ADF3-B6E0F7033A19";
paths = (
{
closed = 1;
nodes = (
"491 -117 LINE",
"373 -117 OFFCURVE",
"336 -109 OFFCURVE",
"336 -1 CURVE SMOOTH",
"336 373 LINE SMOOTH",
"336 557 OFFCURVE",
"273 602 OFFCURVE",
"170 647 CURVE",
"273 692 OFFCURVE",
"336 733 OFFCURVE",
"336 917 CURVE",
"336 1291 LINE",
"336 1401 OFFCURVE",
"374 1407 OFFCURVE",
"491 1407 CURVE",
"491 1528 LINE",
"271 1528 OFFCURVE",
"202 1504 OFFCURVE",
"202 1300 CURVE",
"202 953 LINE",
"202 782 OFFCURVE",
"168 740 OFFCURVE",
"-2 709 CURVE",
"-2 581 LINE",
"168 550 OFFCURVE",
"202 508 OFFCURVE",
"202 337 CURVE SMOOTH",
"202 -10 LINE SMOOTH",
"202 -212 OFFCURVE",
"269 -238 OFFCURVE",
"491 -238 CURVE"
);
}
);
width = 573;
}
);
leftKerningGroup = bracketleft;
note = braceleft;
rightKerningGroup = bracketleft;
unicode = 007B;
},
{
glyphname = braceright;
layers = (
{
layerId = "2F8B9CD4-7B7F-4ACC-ADF3-B6E0F7033A19";
paths = (
{
closed = 1;
nodes = (
"298 -238 OFFCURVE",
"367 -214 OFFCURVE",
"367 -10 CURVE SMOOTH",
"367 337 LINE SMOOTH",
"367 508 OFFCURVE",
"401 550 OFFCURVE",
"571 581 CURVE",
"571 709 LINE",
"401 740 OFFCURVE",
"367 782 OFFCURVE",
"367 953 CURVE",
"367 1300 LINE",
"367 1502 OFFCURVE",
"300 1528 OFFCURVE",
"78 1528 CURVE",
"78 1407 LINE",
"192 1407 OFFCURVE",
"233 1403 OFFCURVE",
"233 1291 CURVE",
"233 917 LINE",
"233 733 OFFCURVE",
"296 692 OFFCURVE",
"399 647 CURVE",
"296 602 OFFCURVE",
"233 557 OFFCURVE",
"233 373 CURVE SMOOTH",
"233 -1 LINE SMOOTH",
"233 -110 OFFCURVE",
"195 -117 OFFCURVE",
"78 -117 CURVE",
"78 -238 LINE"
);
}
);
width = 574;
}
);
leftKerningGroup = bracketright;
note = braceright;
rightKerningGroup = bracketright;
unicode = 007D;
},
{
glyphname = bracketleft;
layers = (
{
layerId = "2F8B9CD4-7B7F-4ACC-ADF3-B6E0F7033A19";
paths = (
{
closed = 1;
nodes = (
"552 -218 LINE",
"552 -113 LINE",
"320 -113 LINE",
"320 1412 LINE",
"552 1412 LINE",
"552 1519 LINE",
"164 1519 LINE",
"164 -218 LINE"
);
}
);
width = 621;
}
);
leftKerningGroup = bracketleft;
note = bracketleft;
rightKerningGroup = bracketleft;
unicode = 005B;
},
{
glyphname = bracketright;
layers = (
{
layerId = "2F8B9CD4-7B7F-4ACC-ADF3-B6E0F7033A19";
paths = (
{
closed = 1;
nodes = (
"452 -218 LINE",
"452 1519 LINE",
"64 1519 LINE",
"64 1412 LINE",
"296 1412 LINE",
"296 -113 LINE",
"64 -113 LINE",
"64 -218 LINE"
);
}
);
width = 619;
}
);
leftKerningGroup = bracketright;
note = bracketright;
rightKerningGroup = bracketright;
unicode = 005D;
},
{
glyphname = hyphen;
layers = (
{
layerId = "2F8B9CD4-7B7F-4ACC-ADF3-B6E0F7033A19";
paths = (
{
closed = 1;
nodes = (
"700 575 LINE",
"700 734 LINE",
"141 734 LINE",
"141 575 LINE"
);
}
);
width = 841;
}
);
leftKerningGroup = hyphen;
note = hyphen;
rightKerningGroup = hyphen;
unicode = 002D;
},
{
glyphname = endash;
layers = (
{
layerId = "2F8B9CD4-7B7F-4ACC-ADF3-B6E0F7033A19";
paths = (
{
closed = 1;
nodes = (
"852 575 LINE",
"852 734 LINE",
"123 734 LINE",
"123 575 LINE"
);
}
);
width = 974;
}
);
leftKerningGroup = hyphen;
note = endash;
rightKerningGroup = hyphen;
unicode = 2013;
},
{
glyphname = emdash;
layers = (
{
layerId = "2F8B9CD4-7B7F-4ACC-ADF3-B6E0F7033A19";
paths = (
{
closed = 1;
nodes = (
"1037 575 LINE",
"1037 734 LINE",
"123 734 LINE",
"123 575 LINE"
);
}
);
width = 1160;
}
);
leftKerningGroup = hyphen;
note = emdash;
rightKerningGroup = hyphen;
unicode = 2014;
},
{
glyphname = underscore;
layers = (
{
layerId = "2F8B9CD4-7B7F-4ACC-ADF3-B6E0F7033A19";
paths = (
{
closed = 1;
nodes = (
"961 -126 LINE",
"962 -22 LINE",
"123 -22 LINE",
"124 -126 LINE"
);
}
);
width = 1085;
}
);
note = underscore;
unicode = 005F;
},
{
glyphname = guillemetleft;
layers = (
{
layerId = "2F8B9CD4-7B7F-4ACC-ADF3-B6E0F7033A19";
paths = (
{
closed = 1;
nodes = (
"549 420 LINE",
"226 721 LINE",
"549 1020 LINE",
"445 1112 LINE",
"58 721 LINE",
"445 330 LINE"
);
},
{
closed = 1;
nodes = (
"986 420 LINE",
"664 721 LINE",
"986 1020 LINE",
"885 1112 LINE",
"496 721 LINE",
"885 330 LINE"
);
}
);
width = 1100;
}
);
leftKerningGroup = guilleft;
note = guillemotleft;
rightKerningGroup = guilleft;
unicode = 00AB;
},
{
glyphname = guillemetright;
layers = (
{
layerId = "2F8B9CD4-7B7F-4ACC-ADF3-B6E0F7033A19";
paths = (
{
closed = 1;
nodes = (
"1042 721 LINE",
"655 1112 LINE",
"551 1020 LINE",
"874 721 LINE",
"551 420 LINE",
"655 330 LINE"
);
},
{
closed = 1;
nodes = (
"604 721 LINE",
"215 1112 LINE",
"114 1020 LINE",
"436 721 LINE",
"114 420 LINE",
"215 330 LINE"
);
}
);
width = 1100;
}
);
leftKerningGroup = guilright;
note = guillemotright;
rightKerningGroup = guilright;
unicode = 00BB;
},
{
glyphname = guilsinglleft;
layers = (
{
layerId = "2F8B9CD4-7B7F-4ACC-ADF3-B6E0F7033A19";
paths = (
{
closed = 1;
nodes = (
"539 286 LINE",
"241 662 LINE",
"539 1038 LINE",
"398 1106 LINE",
"80 715 LINE",
"80 609 LINE",
"398 218 LINE"
);
}
);
width = 642;
}
);
leftKerningGroup = guilleft;
note = guilsinglleft;
rightKerningGroup = guilleft;
unicode = 2039;
},
{
glyphname = guilsinglright;
layers = (
{
layerId = "2F8B9CD4-7B7F-4ACC-ADF3-B6E0F7033A19";
paths = (
{
closed = 1;
nodes = (
"561 609 LINE",
"561 715 LINE",
"243 1106 LINE",
"102 1038 LINE",
"400 662 LINE",
"102 286 LINE",
"243 218 LINE"
);
}
);
width = 642;
}
);
leftKerningGroup = guilright;
note = guilsinglright;
rightKerningGroup = guilright;
unicode = 203A;
},
{
glyphname = quotedbl;
layers = (
{
layerId = "2F8B9CD4-7B7F-4ACC-ADF3-B6E0F7033A19";
paths = (
{
closed = 1;
nodes = (
"292 952 LINE",
"321 1260 LINE",
"325 1452 LINE",
"128 1452 LINE",
"132 1260 LINE",
"163 952 LINE"
);
},
{
closed = 1;
nodes = (
"630 952 LINE",
"661 1260 LINE",
"663 1452 LINE",
"468 1452 LINE",
"470 1260 LINE",
"501 952 LINE"
);
}
);
width = 793;
}
);
leftKerningGroup = asterisk;
note = quotedbl;
rightKerningGroup = asterisk;
unicode = 0022;
},
{
glyphname = quotesingle;
layers = (
{
layerId = "2F8B9CD4-7B7F-4ACC-ADF3-B6E0F7033A19";
paths = (
{
closed = 1;
nodes = (
"292 952 LINE",
"323 1260 LINE",
"325 1452 LINE",
"130 1452 LINE",
"132 1260 LINE",
"163 952 LINE"
);
}
);
width = 455;
}
);
leftKerningGroup = asterisk;
note = quotesingle;
rightKerningGroup = asterisk;
unicode = 0027;
},
{
glyphname = "leftanglebracket-math";
layers = (
{
background = {
paths = (
{
closed = 1;
nodes = (
"442 -123 LINE",
"527 -123 LINE",
"263 635 LINE",
"527 1393 LINE",
"442 1393 LINE",
"182 635 LINE"
);
}
);
};
layerId = "2F8B9CD4-7B7F-4ACC-ADF3-B6E0F7033A19";
paths = (
{
closed = 1;
nodes = (
"607 -123 LINE",
"343 635 LINE",
"607 1393 LINE",
"422 1393 LINE",
"162 635 LINE",
"422 -123 LINE"
);
}
);
width = 680;
}
);
unicode = 27E8;
},
{
glyphname = "rightanglebracket-math";
layers = (
{
layerId = "2F8B9CD4-7B7F-4ACC-ADF3-B6E0F7033A19";
paths = (
{
closed = 1;
nodes = (
"258 -123 LINE",
"518 635 LINE",
"258 1393 LINE",
"73 1393 LINE",
"337 635 LINE",
"73 -123 LINE"
);
}
);
width = 680;
}
);
unicode = 27E9;
},
{
glyphname = cedi;
layers = (
{
layerId = "2F8B9CD4-7B7F-4ACC-ADF3-B6E0F7033A19";
paths = (
{
closed = 1;
nodes = (
"1066 12 OFFCURVE",
"1295 141 OFFCURVE",
"1291 424 CURVE",
"1133 424 LINE",
"1113 211 OFFCURVE",
"1003 154 OFFCURVE",
"757 152 CURVE SMOOTH",
"415 148 OFFCURVE",
"320 358 OFFCURVE",
"320 720 CURVE SMOOTH",
"320 1097 OFFCURVE",
"413 1289 OFFCURVE",
"779 1289 CURVE SMOOTH",
"1005 1289 OFFCURVE",
"1114 1225 OFFCURVE",
"1133 1019 CURVE",
"1291 1019 LINE",
"1295 1301 OFFCURVE",
"1068 1431 OFFCURVE",
"758 1431 CURVE SMOOTH",
"320 1431 OFFCURVE",
"152 1161 OFFCURVE",
"152 705 CURVE SMOOTH",
"152 268 OFFCURVE",
"327 12 OFFCURVE",
"757 12 CURVE SMOOTH"
);
},
{
closed = 1;
nodes = (
"816 -220 LINE",
"816 1681 LINE",
"680 1681 LINE",
"680 -220 LINE"
);
}
);
width = 1433;
}
);
unicode = 20B5;
},
{
glyphname = cent;
layers = (
{
layerId = "2F8B9CD4-7B7F-4ACC-ADF3-B6E0F7033A19";
paths = (
{
closed = 1;
nodes = (
"808 218 OFFCURVE",
"941 299 OFFCURVE",
"943 528 CURVE",
"810 535 LINE",
"806 392 OFFCURVE",
"734 345 OFFCURVE",
"576 345 CURVE SMOOTH",
"337 345 OFFCURVE",
"297 441 OFFCURVE",
"297 711 CURVE SMOOTH",
"297 974 OFFCURVE",
"336 1071 OFFCURVE",
"572 1071 CURVE SMOOTH",
"730 1071 OFFCURVE",
"798 1036 OFFCURVE",
"810 885 CURVE",
"943 892 LINE",
"939 1112 OFFCURVE",
"813 1202 OFFCURVE",
"576 1202 CURVE SMOOTH",
"254 1202 OFFCURVE",
"142 1041 OFFCURVE",
"142 713 CURVE SMOOTH",
"142 381 OFFCURVE",
"248 218 OFFCURVE",
"575 218 CURVE SMOOTH"
);
},
{
closed = 1;
nodes = (
"608 0 LINE",
"608 1441 LINE",
"503 1441 LINE",
"503 0 LINE"
);
}
);
width = 1028;
}
);
note = cent;
unicode = 00A2;
},
{
glyphname = colonsign;
layers = (
{
guideLines = (
{
position = "{807, 1334}";
}
);
layerId = "2F8B9CD4-7B7F-4ACC-ADF3-B6E0F7033A19";
paths = (
{
closed = 1;
nodes = (
"1136 12 OFFCURVE",
"1365 141 OFFCURVE",
"1361 424 CURVE",
"1203 424 LINE",
"1183 211 OFFCURVE",
"1073 154 OFFCURVE",
"827 152 CURVE SMOOTH",
"486 148 OFFCURVE",
"390 355 OFFCURVE",
"390 720 CURVE SMOOTH",
"390 1097 OFFCURVE",
"483 1289 OFFCURVE",
"849 1289 CURVE SMOOTH",
"1075 1289 OFFCURVE",
"1184 1225 OFFCURVE",
"1203 1019 CURVE",
"1361 1019 LINE",
"1365 1301 OFFCURVE",
"1138 1431 OFFCURVE",
"828 1431 CURVE SMOOTH",
"390 1431 OFFCURVE",
"222 1161 OFFCURVE",
"222 705 CURVE SMOOTH",
"222 260 OFFCURVE",
"402 12 OFFCURVE",
"827 12 CURVE SMOOTH"
);
},
{
closed = 1;
nodes = (
"456 -232 LINE",
"937 1698 LINE",
"804 1698 LINE",
"322 -232 LINE"
);
},
{
closed = 1;
nodes = (
"755 -232 LINE",
"1236 1698 LINE",
"1103 1698 LINE",
"621 -232 LINE"
);
}
);
width = 1433;
}
);
unicode = 20A1;
},
{
glyphname = currency;
layers = (
{
layerId = "2F8B9CD4-7B7F-4ACC-ADF3-B6E0F7033A19";
paths = (
{
closed = 1;
nodes = (
"360 344 LINE",
"420 299 OFFCURVE",
"505 275 OFFCURVE",
"621 275 CURVE SMOOTH",
"737 275 OFFCURVE",
"822 299 OFFCURVE",
"882 344 CURVE",
"1012 204 LINE",
"1122 311 LINE",
"978 467 LINE",
"1009 538 OFFCURVE",
"1023 614 OFFCURVE",
"1023 693 CURVE SMOOTH",
"1023 781 OFFCURVE",
"1005 871 OFFCURVE",
"966 947 CURVE",
"1112 1096 LINE",
"1002 1204 LINE",
"857 1057 LINE",
"801 1094 OFFCURVE",
"722 1117 OFFCURVE",
"621 1117 CURVE SMOOTH",
"520 1117 OFFCURVE",
"441 1094 OFFCURVE",
"385 1057 CURVE",
"240 1204 LINE",
"130 1096 LINE",
"276 947 LINE",
"237 871 OFFCURVE",
"219 781 OFFCURVE",
"219 693 CURVE SMOOTH",
"219 614 OFFCURVE",
"233 538 OFFCURVE",
"264 467 CURVE",
"120 311 LINE",
"230 204 LINE"
);
},
{
closed = 1;
nodes = (
"434 400 OFFCURVE",
"366 489 OFFCURVE",
"366 693 CURVE SMOOTH",
"366 892 OFFCURVE",
"422 992 OFFCURVE",
"621 992 CURVE SMOOTH",
"818 992 OFFCURVE",
"876 895 OFFCURVE",
"876 693 CURVE SMOOTH",
"876 492 OFFCURVE",
"810 400 OFFCURVE",
"621 400 CURVE SMOOTH"
);
}
);
width = 1242;
}
);
note = currency;
unicode = 00A4;
},
{
glyphname = dollar;
layers = (
{
layerId = "2F8B9CD4-7B7F-4ACC-ADF3-B6E0F7033A19";
paths = (
{
closed = 1;
nodes = (
"891 -7 OFFCURVE",
"1054 100 OFFCURVE",
"1054 407 CURVE SMOOTH",
"1054 674 OFFCURVE",
"942 772 OFFCURVE",
"572 828 CURVE SMOOTH",
"296 870 OFFCURVE",
"243 917 OFFCURVE",
"243 1086 CURVE SMOOTH",
"243 1284 OFFCURVE",
"387 1304 OFFCURVE",
"558 1304 CURVE SMOOTH",
"768 1304 OFFCURVE",
"865 1286 OFFCURVE",
"865 1097 CURVE",
"1015 1097 LINE",
"1015 1365 OFFCURVE",
"866 1451 OFFCURVE",
"572 1451 CURVE SMOOTH",
"286 1451 OFFCURVE",
"79 1374 OFFCURVE",
"79 1084 CURVE SMOOTH",
"79 833 OFFCURVE",
"177 731 OFFCURVE",
"507 679 CURVE SMOOTH",
"811 631 OFFCURVE",
"888 584 OFFCURVE",
"888 400 CURVE SMOOTH",
"888 198 OFFCURVE",
"787 139 OFFCURVE",
"590 139 CURVE SMOOTH",
"358 139 OFFCURVE",
"231 154 OFFCURVE",
"231 374 CURVE",
"75 374 LINE",
"75 73 OFFCURVE",
"262 -7 OFFCURVE",
"583 -7 CURVE SMOOTH"
);
},
{
closed = 1;
nodes = (
"625 -235 LINE",
"625 1635 LINE",
"497 1635 LINE",
"497 -235 LINE"
);
}
);
width = 1088;
}
);
note = dollar;
unicode = 0024;
},
{
glyphname = dong;
layers = (
{
components = (
{
name = d;
}
);
guideLines = (
{
position = "{1071, 1309}";
}
);
layerId = "2F8B9CD4-7B7F-4ACC-ADF3-B6E0F7033A19";
paths = (
{
closed = 1;
nodes = (
"1113 -275 LINE",
"1113 -159 LINE",
"85 -159 LINE",
"85 -275 LINE"
);
},
{
closed = 1;
nodes = (
"1134 1211 LINE",
"1134 1327 LINE",
"512 1327 LINE",
"512 1211 LINE"
);
}
);
width = 1293;
}
);
unicode = 20AB;
},
{
glyphname = euro;
layers = (
{
layerId = "2F8B9CD4-7B7F-4ACC-ADF3-B6E0F7033A19";
paths = (
{
closed = 1;
nodes = (
"1066 -32 OFFCURVE",
"1230 96 OFFCURVE",
"1230 319 CURVE",
"1066 319 LINE",
"1066 191 OFFCURVE",
"940 106 OFFCURVE",
"737 104 CURVE SMOOTH",
"488 101 OFFCURVE",
"352 277 OFFCURVE",
"352 717 CURVE SMOOTH",
"352 1155 OFFCURVE",
"495 1333 OFFCURVE",
"759 1333 CURVE SMOOTH",
"947 1333 OFFCURVE",
"1066 1249 OFFCURVE",
"1066 1119 CURVE",
"1230 1119 LINE",
"1230 1342 OFFCURVE",
"1066 1470 OFFCURVE",
"738 1470 CURVE SMOOTH",
"376 1470 OFFCURVE",
"187 1244 OFFCURVE",
"187 703 CURVE SMOOTH",
"187 184 OFFCURVE",
"376 -32 OFFCURVE",
"737 -32 CURVE SMOOTH"
);
},
{
closed = 1;
nodes = (
"955 502 LINE",
"955 621 LINE",
"25 621 LINE",
"25 502 LINE"
);
},
{
closed = 1;
nodes = (
"1015 797 LINE",
"1015 916 LINE",
"25 916 LINE",
"25 797 LINE"
);
}
);
width = 1310;
}
);
note = Euro;
unicode = 20AC;
},
{
glyphname = florin;
layers = (
{
layerId = "2F8B9CD4-7B7F-4ACC-ADF3-B6E0F7033A19";
paths = (
{
closed = 1;
nodes = (
"170 -477 OFFCURVE",
"230 -400 OFFCURVE",
"280 -125 CURVE SMOOTH",
"456 860 LINE",
"738 860 LINE",
"763 993 LINE",
"478 993 LINE",
"517 1219 LINE SMOOTH",
"543 1371 OFFCURVE",
"563 1415 OFFCURVE",
"718 1415 CURVE SMOOTH",
"757 1415 OFFCURVE",
"798 1412 OFFCURVE",
"837 1409 CURVE",
"859 1544 LINE",
"818 1547 OFFCURVE",
"775 1548 OFFCURVE",
"734 1548 CURVE SMOOTH",
"469 1548 OFFCURVE",
"401 1471 OFFCURVE",
"353 1204 CURVE SMOOTH",
"315 993 LINE",
"104 993 LINE",
"81 860 LINE",
"292 860 LINE",
"116 -139 LINE SMOOTH",
"90 -288 OFFCURVE",
"63 -344 OFFCURVE",
"-85 -344 CURVE SMOOTH",
"-124 -344 OFFCURVE",
"-165 -338 OFFCURVE",
"-204 -330 CURVE",
"-226 -461 LINE",
"-185 -472 OFFCURVE",
"-146 -477 OFFCURVE",
"-105 -477 CURVE SMOOTH"
);
}
);
width = 807;
}
);
note = florin;
unicode = 0192;
},
{
glyphname = franc;
layers = (
{
guideLines = (
{
position = "{1061, 1337}";
}
);
layerId = "2F8B9CD4-7B7F-4ACC-ADF3-B6E0F7033A19";
paths = (
{
closed = 1;
nodes = (
"423 -3 LINE",
"423 691 LINE",
"1101 691 LINE",
"1101 845 LINE",
"423 845 LINE",
"423 1285 LINE",
"1227 1285 LINE",
"1227 1441 LINE",
"245 1441 LINE",
"245 -3 LINE"
);
},
{
closed = 1;
nodes = (
"687 257 LINE",
"687 407 LINE",
"26 407 LINE",
"26 257 LINE"
);
}
);
width = 1252;
}
);
unicode = 20A3;
},
{
glyphname = guarani;
layers = (
{
guideLines = (
{
position = "{-719, 1303}";
}
);
layerId = "2F8B9CD4-7B7F-4ACC-ADF3-B6E0F7033A19";
paths = (
{
closed = 1;
nodes = (
"888 6 OFFCURVE",
"942 9 OFFCURVE",
"989 22 CURVE SMOOTH",
"1133 62 OFFCURVE",
"1196 115 OFFCURVE",
"1259 234 CURVE",
"1275 35 LINE",
"1397 35 LINE",
"1397 726 LINE",
"798 726 LINE",
"798 569 LINE",
"1226 569 LINE",
"1226 490 LINE SMOOTH",
"1226 374 OFFCURVE",
"1193 270 OFFCURVE",
"1074 209 CURVE SMOOTH",
"1008 175 OFFCURVE",
"914 153 OFFCURVE",
"828 153 CURVE SMOOTH",
"741 153 OFFCURVE",
"667 171 OFFCURVE",
"609 193 CURVE SMOOTH",
"493 237 OFFCURVE",
"448 298 OFFCURVE",
"410 418 CURVE SMOOTH",
"386 493 OFFCURVE",
"370 590 OFFCURVE",
"370 736 CURVE SMOOTH",
"370 872 OFFCURVE",
"391 981 OFFCURVE",
"415 1060 CURVE SMOOTH",
"451 1178 OFFCURVE",
"502 1239 OFFCURVE",
"610 1283 CURVE SMOOTH",
"664 1305 OFFCURVE",
"736 1323 OFFCURVE",
"831 1323 CURVE SMOOTH",
"949 1323 OFFCURVE",
"1033 1317 OFFCURVE",
"1108 1266 CURVE SMOOTH",
"1178 1218 OFFCURVE",
"1208 1173 OFFCURVE",
"1220 1038 CURVE",
"1385 1038 LINE",
"1387 1185 OFFCURVE",
"1328 1287 OFFCURVE",
"1251 1350 CURVE SMOOTH",
"1144 1438 OFFCURVE",
"977 1469 OFFCURVE",
"829 1469 CURVE SMOOTH",
"698 1469 OFFCURVE",
"593 1441 OFFCURVE",
"516 1406 CURVE SMOOTH",
"380 1344 OFFCURVE",
"305 1257 OFFCURVE",
"251 1102 CURVE SMOOTH",
"218 1008 OFFCURVE",
"194 880 OFFCURVE",
"194 720 CURVE SMOOTH",
"194 583 OFFCURVE",
"217 474 OFFCURVE",
"248 376 CURVE SMOOTH",
"298 219 OFFCURVE",
"371 131 OFFCURVE",
"521 65 CURVE SMOOTH",
"594 33 OFFCURVE",
"697 6 OFFCURVE",
"828 6 CURVE SMOOTH"
);
},
{
closed = 1;
nodes = (
"881 -295 LINE",
"881 1786 LINE",
"732 1786 LINE",
"732 -295 LINE"
);
}
);
width = 1572;
}
);
rightMetricsKey = "=G";
unicode = 20B2;
},
{
glyphname = kip;
layers = (
{
background = {
paths = (
{
closed = 1;
nodes = (
"416 824 LINE",
"416 1440 LINE",
"243 1440 LINE",
"243 2 LINE",
"416 2 LINE",
"416 680 LINE",
"740 681 LINE SMOOTH",
"870 681 OFFCURVE",
"918 669 OFFCURVE",
"974 633 CURVE SMOOTH",
"1042 589 OFFCURVE",
"1041 528 OFFCURVE",
"1057 405 CURVE SMOOTH",
"1108 2 LINE",
"1285 0 LINE",
"1235 392 LINE SMOOTH",
"1218 529 OFFCURVE",
"1205 602 OFFCURVE",
"1157 659 CURVE SMOOTH",
"1125 697 OFFCURVE",
"1060 733 OFFCURVE",
"980 754 CURVE",
"1054 773 OFFCURVE",
"1103 810 OFFCURVE",
"1137 846 CURVE SMOOTH",
"1189 902 OFFCURVE",
"1216 976 OFFCURVE",
"1216 1115 CURVE SMOOTH",
"1216 1441 LINE",
"1039 1439 LINE",
"1039 1100 LINE SMOOTH",
"1039 977 OFFCURVE",
"1018 920 OFFCURVE",
"946 874 CURVE SMOOTH",
"891 839 OFFCURVE",
"848 824 OFFCURVE",
"782 824 CURVE SMOOTH"
);
},
{
closed = 1;
nodes = (
"70 683 LINE",
"1482 668 LINE",
"1482 813 LINE",
"70 828 LINE"
);
}
);
};
guideLines = (
{
angle = 180;
position = "{1445, 1338}";
}
);
layerId = "2F8B9CD4-7B7F-4ACC-ADF3-B6E0F7033A19";
paths = (
{
closed = 1;
nodes = (
"1150 372 LINE SMOOTH",
"1018 623 OFFCURVE",
"947 711 OFFCURVE",
"654 745 CURVE",
"654 695 LINE",
"975 741 OFFCURVE",
"1029 839 OFFCURVE",
"1152 1094 CURVE SMOOTH",
"1320 1442 LINE",
"1136 1440 LINE",
"963 1081 LINE SMOOTH",
"867 881 OFFCURVE",
"795 791 OFFCURVE",
"554 791 CURVE SMOOTH",
"436 791 LINE",
"436 1441 LINE",
"265 1441 LINE",
"265 0 LINE",
"436 0 LINE",
"436 638 LINE",
"554 638 LINE SMOOTH",
"807 638 OFFCURVE",
"869 577 OFFCURVE",
"967 384 CURVE SMOOTH",
"1163 0 LINE",
"1347 -2 LINE"
);
},
{
closed = 1;
nodes = (
"1482 643 LINE",
"1482 788 LINE",
"50 788 LINE",
"50 643 LINE"
);
}
);
width = 1507;
}
);
unicode = 20AD;
},
{
glyphname = lira;
layers = (
{
layerId = "2F8B9CD4-7B7F-4ACC-ADF3-B6E0F7033A19";
paths = (
{
closed = 1;
nodes = (
"919 -23 OFFCURVE",
"1022 24 OFFCURVE",
"1111 73 CURVE",
"1066 220 LINE",
"968 151 OFFCURVE",
"868 121 OFFCURVE",
"767 121 CURVE SMOOTH",
"718 121 OFFCURVE",
"668 132 OFFCURVE",
"619 142 CURVE SMOOTH",
"570 152 OFFCURVE",
"519 163 OFFCURVE",
"470 163 CURVE SMOOTH",
"413 163 OFFCURVE",
"346 148 OFFCURVE",
"309 131 CURVE",
"315 124 LINE",
"391 188 OFFCURVE",
"417 367 OFFCURVE",
"417 509 CURVE",
"773 509 LINE",
"773 639 LINE",
"419 639 LINE",
"419 1021 LINE SMOOTH",
"419 1215 OFFCURVE",
"427 1334 OFFCURVE",
"654 1334 CURVE SMOOTH",
"896 1334 OFFCURVE",
"882 1215 OFFCURVE",
"882 1100 CURVE",
"1033 1100 LINE",
"1033 1353 OFFCURVE",
"944 1473 OFFCURVE",
"654 1473 CURVE SMOOTH",
"336 1473 OFFCURVE",
"258 1290 OFFCURVE",
"258 1012 CURVE SMOOTH",
"258 639 LINE",
"67 639 LINE",
"67 509 LINE",
"258 509 LINE",
"254 443 LINE SMOOTH",
"240 265 OFFCURVE",
"227 153 OFFCURVE",
"74 108 CURVE",
"108 -8 LINE",
"228 14 OFFCURVE",
"343 35 OFFCURVE",
"413 35 CURVE SMOOTH",
"478 35 OFFCURVE",
"545 20 OFFCURVE",
"611 7 CURVE SMOOTH",
"677 -7 OFFCURVE",
"743 -23 OFFCURVE",
"806 -23 CURVE SMOOTH"
);
},
{
closed = 1;
nodes = (
"773 756 LINE",
"773 886 LINE",
"67 886 LINE",
"67 756 LINE"
);
}
);
width = 1211;
}
);
unicode = 20A4;
},
{
glyphname = liraTurkish;
layers = (
{
guideLines = (
{
position = "{-105, 1314}";
}
);
layerId = "2F8B9CD4-7B7F-4ACC-ADF3-B6E0F7033A19";
paths = (
{
closed = 1;
nodes = (
"612 0 LINE",
"934 0 OFFCURVE",
"1011 157 OFFCURVE",
"1011 429 CURVE SMOOTH",
"1011 696 LINE",
"861 696 LINE",
"861 480 LINE SMOOTH",
"861 197 OFFCURVE",
"812 146 OFFCURVE",
"612 146 CURVE",
"320 144 LINE",
"320 -1 LINE"
);
},
{
closed = 1;
nodes = (
"411 -1 LINE",
"411 1441 LINE",
"247 1441 LINE",
"247 -1 LINE"
);
},
{
closed = 1;
nodes = (
"751 895 LINE",
"751 1033 LINE",
"101 756 LINE",
"101 618 LINE"
);
},
{
closed = 1;
nodes = (
"751 1152 LINE",
"751 1290 LINE",
"101 1012 LINE",
"101 875 LINE"
);
}
);
width = 1061;
}
);
unicode = 20BA;
},
{
glyphname = manat;
layers = (
{
guideLines = (
{
position = "{962, 1305}";
}
);
layerId = "2F8B9CD4-7B7F-4ACC-ADF3-B6E0F7033A19";
paths = (
{
closed = 1;
nodes = (
"220 -3 LINE",
"220 583 LINE SMOOTH",
"220 1089 OFFCURVE",
"256 1157 OFFCURVE",
"680 1157 CURVE SMOOTH",
"1095 1157 OFFCURVE",
"1131 1089 OFFCURVE",
"1131 583 CURVE SMOOTH",
"1131 -3 LINE",
"1281 -3 LINE",
"1281 583 LINE SMOOTH",
"1281 1241 OFFCURVE",
"1134 1317 OFFCURVE",
"680 1317 CURVE SMOOTH",
"216 1317 OFFCURVE",
"62 1241 OFFCURVE",
"62 583 CURVE SMOOTH",
"62 -3 LINE"
);
},
{
closed = 1;
nodes = (
"756 180 LINE",
"756 1535 LINE",
"596 1535 LINE",
"596 180 LINE"
);
}
);
width = 1333;
}
);
unicode = 20BC;
},
{
glyphname = naira;
layers = (
{
guideLines = (
{
position = "{1358, 1297}";
}
);
layerId = "2F8B9CD4-7B7F-4ACC-ADF3-B6E0F7033A19";
paths = (
{
closed = 1;
nodes = (
"467 4 LINE",
"457 1285 LINE",
"489 1285 LINE",
"1060 4 LINE",
"1325 4 LINE",
"1325 1441 LINE",
"1171 1441 LINE",
"1171 175 LINE",
"1140 175 LINE",
"583 1441 LINE",
"311 1441 LINE",
"311 4 LINE"
);
},
{
closed = 1;
nodes = (
"1543 550 LINE",
"1543 677 LINE",
"90 677 LINE",
"90 550 LINE"
);
},
{
closed = 1;
nodes = (
"1543 802 LINE",
"1543 928 LINE",
"90 928 LINE",
"90 802 LINE"
);
}
);
width = 1633;
}
);
unicode = 20A6;
},
{
glyphname = peseta;
layers = (
{
background = {
paths = (
{
closed = 1;
nodes = (
"566 0 LINE",
"566 572 LINE",
"833 572 LINE SMOOTH",
"1215 572 OFFCURVE",
"1409 693 OFFCURVE",
"1409 1004 CURVE SMOOTH",
"1409 1319 OFFCURVE",
"1248 1441 OFFCURVE",
"833 1441 CURVE SMOOTH",
"389 1441 LINE",
"389 0 LINE"
);
},
{
closed = 1;
nodes = (
"1127 720 OFFCURVE",
"833 720 CURVE SMOOTH",
"566 720 LINE",
"566 1297 LINE",
"833 1297 LINE SMOOTH",
"1127 1297 OFFCURVE",
"1242 1215 OFFCURVE",
"1242 1004 CURVE SMOOTH",
"1242 800 OFFCURVE"
);
}
);
};
layerId = "2F8B9CD4-7B7F-4ACC-ADF3-B6E0F7033A19";
paths = (
{
closed = 1;
nodes = (
"564 0 LINE",
"564 524 LINE",
"829 524 LINE SMOOTH",
"1238 524 OFFCURVE",
"1397 643 OFFCURVE",
"1397 980 CURVE SMOOTH",
"1397 1338 OFFCURVE",
"1261 1441 OFFCURVE",
"829 1441 CURVE SMOOTH",
"390 1441 LINE",
"390 0 LINE"
);
},
{
closed = 1;
nodes = (
"564 1300 LINE",
"829 1300 LINE SMOOTH",
"1151 1300 OFFCURVE",
"1232 1242 OFFCURVE",
"1232 980 CURVE SMOOTH",
"1232 726 OFFCURVE",
"1151 670 OFFCURVE",
"829 670 CURVE SMOOTH",
"564 670 LINE"
);
},
{
closed = 1;
nodes = (
"1656 909 LINE",
"1656 1051 LINE",
"162 1051 LINE",
"162 909 LINE"
);
}
);
width = 1736;
}
);
rightMetricsKey = "=P";
unicode = 20A7;
},
{
glyphname = peso;
layers = (
{
background = {
paths = (
{
closed = 1;
nodes = (
"422 0 LINE",
"422 572 LINE",
"689 572 LINE SMOOTH",
"1071 572 OFFCURVE",
"1265 693 OFFCURVE",
"1265 1004 CURVE SMOOTH",
"1265 1319 OFFCURVE",
"1104 1441 OFFCURVE",
"689 1441 CURVE SMOOTH",
"245 1441 LINE",
"245 0 LINE"
);
},
{
closed = 1;
nodes = (
"983 720 OFFCURVE",
"689 720 CURVE SMOOTH",
"422 720 LINE",
"422 1297 LINE",
"689 1297 LINE SMOOTH",
"983 1297 OFFCURVE",
"1098 1215 OFFCURVE",
"1098 1004 CURVE SMOOTH",
"1098 800 OFFCURVE"
);
}
);
};
layerId = "2F8B9CD4-7B7F-4ACC-ADF3-B6E0F7033A19";
paths = (
{
closed = 1;
nodes = (
"394 0 LINE",
"394 524 LINE",
"659 524 LINE SMOOTH",
"1068 524 OFFCURVE",
"1227 643 OFFCURVE",
"1227 980 CURVE SMOOTH",
"1227 1338 OFFCURVE",
"1091 1441 OFFCURVE",
"659 1441 CURVE SMOOTH",
"220 1441 LINE",
"220 0 LINE"
);
},
{
closed = 1;
nodes = (
"1453 830 LINE",
"1453 938 LINE",
"35 938 LINE",
"35 830 LINE"
);
},
{
closed = 1;
nodes = (
"394 1300 LINE",
"659 1300 LINE SMOOTH",
"981 1300 OFFCURVE",
"1062 1242 OFFCURVE",
"1062 980 CURVE SMOOTH",
"1062 726 OFFCURVE",
"981 670 OFFCURVE",
"659 670 CURVE SMOOTH",
"394 670 LINE"
);
},
{
closed = 1;
nodes = (
"1453 1033 LINE",
"1453 1142 LINE",
"35 1142 LINE",
"35 1033 LINE"
);
}
);
width = 1533;
}
);
rightMetricsKey = "=P";
unicode = 20B1;
},
{
glyphname = ruble;
layers = (
{
layerId = "2F8B9CD4-7B7F-4ACC-ADF3-B6E0F7033A19";
paths = (
{
closed = 1;
nodes = (
"412 0 LINE",
"412 572 LINE",
"679 572 LINE SMOOTH",
"1061 572 OFFCURVE",
"1255 693 OFFCURVE",
"1255 1004 CURVE SMOOTH",
"1255 1319 OFFCURVE",
"1094 1441 OFFCURVE",
"679 1441 CURVE SMOOTH",
"235 1441 LINE",
"235 0 LINE"
);
},
{
closed = 1;
nodes = (
"883 262 LINE",
"883 404 LINE",
"45 404 LINE",
"45 262 LINE"
);
},
{
closed = 1;
nodes = (
"681 574 LINE",
"681 721 LINE",
"45 721 LINE",
"45 574 LINE"
);
},
{
closed = 1;
nodes = (
"412 1297 LINE",
"679 1297 LINE SMOOTH",
"973 1297 OFFCURVE",
"1088 1215 OFFCURVE",
"1088 1004 CURVE SMOOTH",
"1088 800 OFFCURVE",
"973 720 OFFCURVE",
"679 721 CURVE SMOOTH",
"412 721 LINE"
);
}
);
width = 1335;
}
);
rightMetricsKey = "=P";
unicode = 20BD;
},
{
glyphname = rupeeIndian;
layers = (
{
layerId = "2F8B9CD4-7B7F-4ACC-ADF3-B6E0F7033A19";
paths = (
{
closed = 1;
nodes = (
"1045 0 LINE",
"1001 361 LINE SMOOTH",
"968 615 OFFCURVE",
"911 687 OFFCURVE",
"714 724 CURVE",
"717 709 LINE",
"898 740 OFFCURVE",
"1000 859 OFFCURVE",
"1000 1040 CURVE SMOOTH",
"1000 1345 OFFCURVE",
"872 1441 OFFCURVE",
"467 1441 CURVE SMOOTH",
"220 1441 LINE",
"220 1303 LINE",
"464 1303 LINE SMOOTH",
"744 1303 OFFCURVE",
"832 1232 OFFCURVE",
"832 1040 CURVE SMOOTH",
"832 856 OFFCURVE",
"743 785 OFFCURVE",
"515 785 CURVE SMOOTH",
"220 785 LINE",
"220 639 LINE",
"515 639 LINE SMOOTH",
"739 639 OFFCURVE",
"801 584 OFFCURVE",
"826 365 CURVE SMOOTH",
"869 0 LINE"
);
},
{
closed = 1;
nodes = (
"1212 970 LINE",
"1212 1118 LINE",
"222 1118 LINE",
"222 970 LINE"
);
},
{
closed = 1;
nodes = (
"1210 1303 LINE",
"1210 1441 LINE",
"220 1441 LINE",
"220 1303 LINE"
);
}
);
width = 1337;
}
);
rightMetricsKey = "=R";
unicode = 20B9;
},
{
glyphname = sterling;
layers = (
{
layerId = "2F8B9CD4-7B7F-4ACC-ADF3-B6E0F7033A19";
paths = (
{
closed = 1;
nodes = (
"959 -23 OFFCURVE",
"1062 24 OFFCURVE",
"1151 73 CURVE",
"1096 210 LINE",
"1008 151 OFFCURVE",
"908 121 OFFCURVE",
"807 121 CURVE SMOOTH",
"758 121 OFFCURVE",
"708 132 OFFCURVE",
"659 142 CURVE SMOOTH",
"610 152 OFFCURVE",
"559 163 OFFCURVE",
"510 163 CURVE SMOOTH",
"453 163 OFFCURVE",
"386 148 OFFCURVE",
"349 131 CURVE",
"353 122 LINE",
"430 191 OFFCURVE",
"447 317 OFFCURVE",
"450 458 CURVE SMOOTH",
"457 652 LINE",
"813 652 LINE",
"813 782 LINE",
"459 782 LINE",
"459 1021 LINE SMOOTH",
"459 1215 OFFCURVE",
"467 1334 OFFCURVE",
"694 1334 CURVE SMOOTH",
"936 1334 OFFCURVE",
"922 1215 OFFCURVE",
"922 1100 CURVE",
"1073 1100 LINE",
"1073 1353 OFFCURVE",
"984 1473 OFFCURVE",
"694 1473 CURVE SMOOTH",
"376 1473 OFFCURVE",
"298 1290 OFFCURVE",
"298 1012 CURVE SMOOTH",
"298 782 LINE",
"107 782 LINE",
"107 652 LINE",
"298 652 LINE",
"294 443 LINE SMOOTH",
"292 271 OFFCURVE",
"258 150 OFFCURVE",
"114 108 CURVE",
"148 -8 LINE",
"268 14 OFFCURVE",
"383 35 OFFCURVE",
"453 35 CURVE SMOOTH",
"518 35 OFFCURVE",
"585 20 OFFCURVE",
"651 7 CURVE SMOOTH",
"717 -7 OFFCURVE",
"783 -23 OFFCURVE",
"846 -23 CURVE SMOOTH"
);
}
);
width = 1251;
}
);
note = sterling;
unicode = 00A3;
},
{
glyphname = won;
layers = (
{
guideLines = (
{
position = "{1367, 1308}";
}
);
layerId = "2F8B9CD4-7B7F-4ACC-ADF3-B6E0F7033A19";
paths = (
{
closed = 1;
nodes = (
"735 3 LINE",
"961 1237 LINE",
"996 1237 LINE",
"1212 3 LINE",
"1425 3 LINE",
"1777 1443 LINE",
"1613 1443 LINE",
"1338 197 LINE",
"1310 197 LINE",
"1106 1443 LINE",
"852 1443 LINE",
"640 198 LINE",
"611 198 LINE",
"335 1443 LINE",
"171 1443 LINE",
"522 3 LINE"
);
},
{
closed = 1;
nodes = (
"1877 613 LINE",
"1877 754 LINE",
"70 754 LINE",
"70 613 LINE"
);
},
{
closed = 1;
nodes = (
"1877 874 LINE",
"1877 1014 LINE",
"70 1014 LINE",
"70 874 LINE"
);
}
);
width = 1947;
}
);
unicode = 20A9;
},
{
glyphname = yen;
layers = (
{
background = {
paths = (
{
closed = 1;
nodes = (
"970 497 LINE",
"675 497 LINE",
"675 540 LINE",
"715 606 LINE",
"970 606 LINE",
"970 715 LINE",
"782 715 LINE",
"1149 1328 LINE",
"986 1328 LINE",
"671 784 LINE",
"611 666 LINE",
"601 666 LINE",
"538 784 LINE",
"220 1328 LINE",
"60 1328 LINE",
"425 715 LINE",
"237 715 LINE",
"237 606 LINE",
"491 606 LINE",
"532 540 LINE",
"532 497 LINE",
"237 497 LINE",
"237 386 LINE",
"532 386 LINE",
"532 0 LINE",
"675 0 LINE",
"675 386 LINE",
"970 386 LINE"
);
}
);
};
components = (
{
name = Y;
transform = "{1, 0, 0, 1, 30, 0}";
}
);
layerId = "2F8B9CD4-7B7F-4ACC-ADF3-B6E0F7033A19";
paths = (
{
closed = 1;
nodes = (
"1101 623 LINE",
"1101 755 LINE",
"107 755 LINE",
"107 623 LINE"
);
},
{
closed = 1;
nodes = (
"1101 293 LINE",
"1101 425 LINE",
"107 425 LINE",
"107 293 LINE"
);
}
);
width = 1209;
}
);
note = yen;
unicode = 00A5;
},
{
glyphname = bulletoperator;
layers = (
{
layerId = "2F8B9CD4-7B7F-4ACC-ADF3-B6E0F7033A19";
paths = (
{
closed = 1;
nodes = (
"527 299 OFFCURVE",
"597 380 OFFCURVE",
"597 592 CURVE",
"597 802 OFFCURVE",
"527 885 OFFCURVE",
"309 885 CURVE",
"92 885 OFFCURVE",
"-2 802 OFFCURVE",
"-2 592 CURVE",
"-2 380 OFFCURVE",
"92 299 OFFCURVE",
"309 299 CURVE"
);
}
);
width = 600;
}
);
unicode = 2219;
},
{
glyphname = commercialMinusSign;
layers = (
{
layerId = "2F8B9CD4-7B7F-4ACC-ADF3-B6E0F7033A19";
paths = (
{
closed = 1;
nodes = (
"639 1597 LINE",
"492 1624 LINE",
"96 -143 LINE",
"241 -171 LINE"
);
},
{
closed = 1;
nodes = (
"693 -20 LINE",
"693 192 LINE",
"468 192 LINE",
"468 -20 LINE"
);
},
{
closed = 1;
nodes = (
"265 1261 LINE",
"265 1473 LINE",
"40 1473 LINE",
"40 1261 LINE"
);
}
);
width = 733;
}
);
unicode = 2052;
},
{
glyphname = plus;
layers = (
{
background = {
paths = (
{
closed = 1;
nodes = (
"834 684 LINE",
"548 684 LINE",
"548 961 LINE",
"401 961 LINE",
"401 684 LINE",
"109 684 LINE",
"109 562 LINE",
"401 562 LINE",
"401 283 LINE",
"548 283 LINE",
"548 562 LINE",
"834 562 LINE"
);
}
);
};
guideLines = (
{
position = "{692, 658}";
}
);
layerId = "2F8B9CD4-7B7F-4ACC-ADF3-B6E0F7033A19";
paths = (
{
closed = 1;
nodes = (
"719 172 LINE",
"719 1147 LINE",
"563 1147 LINE",
"563 172 LINE"
);
},
{
closed = 1;
nodes = (
"1128 583 LINE",
"1128 735 LINE",
"153 735 LINE",
"153 583 LINE"
);
}
);
width = 1281;
}
);
note = plus;
unicode = 002B;
},
{
glyphname = minus;
layers = (
{
layerId = "2F8B9CD4-7B7F-4ACC-ADF3-B6E0F7033A19";
paths = (
{
closed = 1;
nodes = (
"1128 583 LINE",
"1128 735 LINE",
"153 735 LINE",
"153 583 LINE"
);
}
);
width = 1281;
}
);
note = minus;
unicode = 2212;
},
{
glyphname = multiply;
layers = (
{
layerId = "2F8B9CD4-7B7F-4ACC-ADF3-B6E0F7033A19";
paths = (
{
closed = 1;
nodes = (
"1070 308 LINE",
"261 1117 LINE",
"153 1010 LINE",
"962 201 LINE"
);
},
{
closed = 1;
nodes = (
"1069 1011 LINE",
"963 1117 LINE",
"154 308 LINE",
"260 202 LINE"
);
}
);
width = 1223;
}
);
note = multiply;
unicode = 00D7;
},
{
glyphname = divide;
layers = (
{
background = {
paths = (
{
closed = 1;
nodes = (
"811 233 LINE",
"811 454 LINE",
"600 454 LINE",
"600 233 LINE"
);
},
{
closed = 1;
nodes = (
"811 792 LINE",
"811 1013 LINE",
"600 1013 LINE",
"600 792 LINE"
);
}
);
};
layerId = "2F8B9CD4-7B7F-4ACC-ADF3-B6E0F7033A19";
paths = (
{
closed = 1;
nodes = (
"1128 583 LINE",
"1128 735 LINE",
"153 735 LINE",
"153 583 LINE"
);
},
{
closed = 1;
nodes = (
"746 118 LINE",
"746 339 LINE",
"535 339 LINE",
"535 118 LINE"
);
},
{
closed = 1;
nodes = (
"746 979 LINE",
"746 1200 LINE",
"535 1200 LINE",
"535 979 LINE"
);
}
);
width = 1281;
}
);
note = divide;
unicode = 00F7;
},
{
glyphname = equal;
layers = (
{
background = {
paths = (
{
closed = 1;
nodes = (
"1007 557 LINE",
"274 557 LINE",
"274 436 LINE",
"1007 436 LINE"
);
},
{
closed = 1;
nodes = (
"1007 817 LINE",
"274 817 LINE",
"274 698 LINE",
"1007 698 LINE"
);
}
);
};
layerId = "2F8B9CD4-7B7F-4ACC-ADF3-B6E0F7033A19";
paths = (
{
closed = 1;
nodes = (
"1128 379 LINE",
"1128 534 LINE",
"153 534 LINE",
"153 379 LINE"
);
},
{
closed = 1;
nodes = (
"1128 778 LINE",
"1128 930 LINE",
"153 930 LINE",
"153 778 LINE"
);
}
);
width = 1281;
}
);
note = equal;
unicode = 003D;
},
{
glyphname = notequal;
layers = (
{
background = {
paths = (
{
closed = 1;
nodes = (
"899 1176 LINE",
"764 901 LINE",
"141 901 LINE",
"141 781 LINE",
"719 781 LINE",
"551 444 LINE",
"141 444 LINE",
"141 322 LINE",
"504 322 LINE",
"385 82 LINE",
"507 41 LINE",
"646 322 LINE",
"1292 322 LINE",
"1292 444 LINE",
"691 444 LINE",
"863 781 LINE",
"1292 781 LINE",
"1292 901 LINE",
"906 901 LINE",
"1023 1125 LINE"
);
}
);
};
layerId = "2F8B9CD4-7B7F-4ACC-ADF3-B6E0F7033A19";
paths = (
{
closed = 1;
nodes = (
"975 1155 LINE",
"859 1211 LINE",
"307 82 LINE",
"423 26 LINE"
);
},
{
closed = 1;
nodes = (
"1128 379 LINE",
"1128 532 LINE",
"153 532 LINE",
"153 379 LINE"
);
},
{
closed = 1;
nodes = (
"1128 780 LINE",
"1128 930 LINE",
"153 930 LINE",
"153 780 LINE"
);
}
);
width = 1281;
}
);
note = notequal;
unicode = 2260;
},
{
glyphname = greater;
layers = (
{
layerId = "2F8B9CD4-7B7F-4ACC-ADF3-B6E0F7033A19";
paths = (
{
closed = 1;
nodes = (
"1008 619 LINE",
"1008 705 LINE",
"135 1194 LINE",
"65 1034 LINE",
"759 660 LINE",
"65 288 LINE",
"135 127 LINE"
);
}
);
width = 1114;
}
);
note = greater;
unicode = 003E;
},
{
glyphname = less;
layers = (
{
background = {
paths = (
{
closed = 1;
nodes = (
"63 551 LINE",
"886 59 LINE",
"966 170 LINE",
"252 592 LINE",
"966 1016 LINE",
"886 1126 LINE",
"63 637 LINE"
);
}
);
};
layerId = "2F8B9CD4-7B7F-4ACC-ADF3-B6E0F7033A19";
paths = (
{
closed = 1;
nodes = (
"1008 287 LINE",
"314 661 LINE",
"1008 1033 LINE",
"938 1194 LINE",
"65 702 LINE",
"65 616 LINE",
"938 127 LINE"
);
}
);
width = 1114;
}
);
note = less;
unicode = 003C;
},
{
glyphname = greaterequal;
layers = (
{
background = {
paths = (
{
closed = 1;
nodes = (
"119 1211 LINE",
"1129 764 LINE",
"1119 760 LINE",
"119 311 LINE",
"119 182 LINE",
"1248 697 LINE",
"1248 825 LINE",
"119 1341 LINE"
);
},
{
closed = 1;
nodes = (
"1248 86 LINE",
"119 86 LINE",
"119 -24 LINE",
"1248 -24 LINE"
);
}
);
};
layerId = "2F8B9CD4-7B7F-4ACC-ADF3-B6E0F7033A19";
paths = (
{
closed = 1;
nodes = (
"1128 839 LINE",
"1128 925 LINE",
"255 1384 LINE",
"185 1224 LINE",
"879 880 LINE",
"185 538 LINE",
"255 377 LINE"
);
},
{
closed = 1;
nodes = (
"1088 9 LINE",
"1088 164 LINE",
"153 164 LINE",
"153 9 LINE"
);
}
);
width = 1281;
}
);
note = greaterequal;
unicode = 2265;
},
{
glyphname = lessequal;
layers = (
{
background = {
paths = (
{
closed = 1;
nodes = (
"139 825 LINE",
"139 697 LINE",
"1268 182 LINE",
"1268 311 LINE",
"268 760 LINE",
"258 764 LINE",
"1268 1211 LINE",
"1268 1341 LINE"
);
},
{
closed = 1;
nodes = (
"1268 -24 LINE",
"1268 86 LINE",
"139 86 LINE",
"139 -24 LINE"
);
}
);
};
layerId = "2F8B9CD4-7B7F-4ACC-ADF3-B6E0F7033A19";
paths = (
{
closed = 1;
nodes = (
"1096 538 LINE",
"402 880 LINE",
"1096 1224 LINE",
"1026 1384 LINE",
"153 925 LINE",
"153 839 LINE",
"1026 377 LINE"
);
},
{
closed = 1;
nodes = (
"1128 9 LINE",
"1128 164 LINE",
"193 164 LINE",
"193 9 LINE"
);
}
);
width = 1281;
}
);
note = lessequal;
unicode = 2264;
},
{
glyphname = plusminus;
layers = (
{
background = {
paths = (
{
closed = 1;
nodes = (
"564 764 LINE",
"144 764 LINE",
"144 610 LINE",
"564 610 LINE",
"564 299 LINE",
"718 299 LINE",
"718 610 LINE",
"1136 610 LINE",
"1136 764 LINE",
"718 764 LINE",
"718 1075 LINE",
"564 1075 LINE"
);
},
{
closed = 1;
nodes = (
"1136 20 LINE",
"1136 174 LINE",
"144 174 LINE",
"144 20 LINE"
);
}
);
};
layerId = "2F8B9CD4-7B7F-4ACC-ADF3-B6E0F7033A19";
paths = (
{
closed = 1;
nodes = (
"719 362 LINE",
"719 1377 LINE",
"563 1377 LINE",
"563 362 LINE"
);
},
{
closed = 1;
nodes = (
"1128 -7 LINE",
"1128 145 LINE",
"153 145 LINE",
"153 -7 LINE"
);
},
{
closed = 1;
nodes = (
"1128 793 LINE",
"1128 945 LINE",
"153 945 LINE",
"153 793 LINE"
);
}
);
width = 1280;
}
);
note = plusminus;
unicode = 00B1;
},
{
glyphname = approxequal;
layers = (
{
layerId = "2F8B9CD4-7B7F-4ACC-ADF3-B6E0F7033A19";
paths = (
{
closed = 1;
nodes = (
"1133 659 OFFCURVE",
"1252 743 OFFCURVE",
"1341 900 CURVE",
"1237 990 LINE",
"1185 909 OFFCURVE",
"1118 833 OFFCURVE",
"1009 833 CURVE SMOOTH",
"944 833 OFFCURVE",
"880 857 OFFCURVE",
"777 916 CURVE SMOOTH",
"675 974 OFFCURVE",
"594 1013 OFFCURVE",
"502 1013 CURVE SMOOTH",
"361 1013 OFFCURVE",
"242 929 OFFCURVE",
"153 772 CURVE",
"257 682 LINE",
"309 763 OFFCURVE",
"376 839 OFFCURVE",
"485 839 CURVE SMOOTH",
"550 839 OFFCURVE",
"614 815 OFFCURVE",
"717 756 CURVE SMOOTH",
"819 698 OFFCURVE",
"900 659 OFFCURVE",
"992 659 CURVE SMOOTH"
);
},
{
closed = 1;
nodes = (
"1150 250 OFFCURVE",
"1269 334 OFFCURVE",
"1358 491 CURVE",
"1254 581 LINE",
"1202 500 OFFCURVE",
"1135 424 OFFCURVE",
"1026 424 CURVE SMOOTH",
"961 424 OFFCURVE",
"897 448 OFFCURVE",
"794 507 CURVE SMOOTH",
"692 565 OFFCURVE",
"611 604 OFFCURVE",
"519 604 CURVE SMOOTH",
"378 604 OFFCURVE",
"259 520 OFFCURVE",
"170 363 CURVE",
"274 273 LINE",
"326 354 OFFCURVE",
"393 430 OFFCURVE",
"502 430 CURVE SMOOTH",
"567 430 OFFCURVE",
"631 406 OFFCURVE",
"734 347 CURVE SMOOTH",
"836 289 OFFCURVE",
"917 250 OFFCURVE",
"1009 250 CURVE SMOOTH"
);
}
);
width = 1511;
}
);
note = approxequal;
unicode = 2248;
},
{
glyphname = asciitilde;
layers = (
{
background = {
paths = (
{
closed = 1;
nodes = (
"243 534 OFFCURVE",
"260 567 OFFCURVE",
"282 591 CURVE SMOOTH",
"304 615 OFFCURVE",
"329 629 OFFCURVE",
"364 629 CURVE SMOOTH",
"378 629 OFFCURVE",
"395 625 OFFCURVE",
"415 617 CURVE SMOOTH",
"454 601 OFFCURVE",
"501 576 OFFCURVE",
"552 548 CURVE",
"577 533 OFFCURVE",
"603 520 OFFCURVE",
"630 508 CURVE SMOOTH",
"682 484 OFFCURVE",
"734 466 OFFCURVE",
"782 466 CURVE SMOOTH",
"861 466 OFFCURVE",
"918 497 OFFCURVE",
"958 541 CURVE SMOOTH",
"998 585 OFFCURVE",
"1021 641 OFFCURVE",
"1030 692 CURVE",
"919 748 LINE",
"904 712 OFFCURVE",
"892 679 OFFCURVE",
"873 656 CURVE SMOOTH",
"853 632 OFFCURVE",
"827 618 OFFCURVE",
"787 618 CURVE SMOOTH",
"770 618 OFFCURVE",
"752 622 OFFCURVE",
"732 631 CURVE SMOOTH",
"691 648 OFFCURVE",
"644 675 OFFCURVE",
"594 705 CURVE SMOOTH",
"569 720 OFFCURVE",
"543 733 OFFCURVE",
"517 746 CURVE SMOOTH",
"464 771 OFFCURVE",
"410 791 OFFCURVE",
"358 791 CURVE SMOOTH",
"281 791 OFFCURVE",
"227 755 OFFCURVE",
"188 707 CURVE SMOOTH",
"149 659 OFFCURVE",
"128 598 OFFCURVE",
"116 547 CURVE",
"227 494 LINE"
);
}
);
};
layerId = "2F8B9CD4-7B7F-4ACC-ADF3-B6E0F7033A19";
paths = (
{
closed = 1;
nodes = (
"1133 549 OFFCURVE",
"1252 633 OFFCURVE",
"1341 790 CURVE",
"1237 880 LINE",
"1185 799 OFFCURVE",
"1118 723 OFFCURVE",
"1009 723 CURVE SMOOTH",
"944 723 OFFCURVE",
"880 747 OFFCURVE",
"777 806 CURVE SMOOTH",
"675 864 OFFCURVE",
"594 903 OFFCURVE",
"502 903 CURVE SMOOTH",
"361 903 OFFCURVE",
"242 819 OFFCURVE",
"153 662 CURVE",
"257 572 LINE",
"309 653 OFFCURVE",
"376 729 OFFCURVE",
"485 729 CURVE SMOOTH",
"550 729 OFFCURVE",
"614 705 OFFCURVE",
"717 646 CURVE SMOOTH",
"819 588 OFFCURVE",
"900 549 OFFCURVE",
"992 549 CURVE SMOOTH"
);
}
);
width = 1494;
}
);
note = asciitilde;
unicode = 007E;
},
{
glyphname = logicalnot;
layers = (
{
layerId = "2F8B9CD4-7B7F-4ACC-ADF3-B6E0F7033A19";
paths = (
{
closed = 1;
nodes = (
"1262 220 LINE",
"1262 905 LINE",
"153 905 LINE",
"153 752 LINE",
"1108 752 LINE",
"1108 220 LINE"
);
}
);
width = 1415;
}
);
note = logicalnot;
unicode = 00AC;
},
{
glyphname = asciicircum;
layers = (
{
layerId = "2F8B9CD4-7B7F-4ACC-ADF3-B6E0F7033A19";
paths = (
{
closed = 1;
nodes = (
"263 586 LINE",
"459 1020 LINE",
"573 1265 LINE",
"689 1022 LINE",
"880 586 LINE",
"1044 586 LINE",
"653 1452 LINE",
"494 1452 LINE",
"102 586 LINE"
);
}
);
width = 1147;
}
);
note = asciicircum;
unicode = 005E;
},
{
glyphname = infinity;
layers = (
{
background = {
paths = (
{
closed = 1;
nodes = (
"1764 835 OFFCURVE",
"1630 981 OFFCURVE",
"1421 983 CURVE SMOOTH",
"1238 983 OFFCURVE",
"1128 867 OFFCURVE",
"973 694 CURVE",
"832 855 OFFCURVE",
"705 983 OFFCURVE",
"529 983 CURVE SMOOTH",
"318 983 OFFCURVE",
"160 824 OFFCURVE",
"160 614 CURVE SMOOTH",
"160 416 OFFCURVE",
"316 252 OFFCURVE",
"510 252 CURVE SMOOTH",
"692 252 OFFCURVE",
"812 370 OFFCURVE",
"965 539 CURVE",
"1112 378 OFFCURVE",
"1243 252 OFFCURVE",
"1405 252 CURVE SMOOTH",
"1608 252 OFFCURVE",
"1764 413 OFFCURVE",
"1764 623 CURVE SMOOTH"
);
},
{
closed = 1;
nodes = (
"388 371 OFFCURVE",
"288 471 OFFCURVE",
"288 610 CURVE SMOOTH",
"286 745 OFFCURVE",
"375 867 OFFCURVE",
"513 867 CURVE SMOOTH",
"665 867 OFFCURVE",
"754 760 OFFCURVE",
"881 610 CURVE",
"728 437 OFFCURVE",
"636 371 OFFCURVE",
"528 371 CURVE SMOOTH"
);
},
{
closed = 1;
nodes = (
"1295 371 OFFCURVE",
"1205 433 OFFCURVE",
"1048 610 CURVE",
"1173 757 OFFCURVE",
"1263 867 OFFCURVE",
"1416 867 CURVE SMOOTH",
"1551 867 OFFCURVE",
"1643 748 OFFCURVE",
"1641 610 CURVE SMOOTH",
"1641 470 OFFCURVE",
"1540 371 OFFCURVE",
"1401 371 CURVE SMOOTH"
);
}
);
};
layerId = "2F8B9CD4-7B7F-4ACC-ADF3-B6E0F7033A19";
paths = (
{
closed = 1;
nodes = (
"1576 362 OFFCURVE",
"1734 521 OFFCURVE",
"1734 731 CURVE SMOOTH",
"1734 929 OFFCURVE",
"1578 1093 OFFCURVE",
"1384 1093 CURVE SMOOTH",
"1202 1093 OFFCURVE",
"1082 975 OFFCURVE",
"903 763 CURVE",
"748 586 OFFCURVE",
"634 499 OFFCURVE",
"534 499 CURVE SMOOTH",
"404 499 OFFCURVE",
"311 592 OFFCURVE",
"311 721 CURVE SMOOTH",
"311 846 OFFCURVE",
"392 959 OFFCURVE",
"520 959 CURVE SMOOTH",
"661 959 OFFCURVE",
"743 860 OFFCURVE",
"899 679 CURVE SMOOTH",
"1062 490 OFFCURVE",
"1189 362 OFFCURVE",
"1365 362 CURVE SMOOTH"
);
},
{
closed = 1;
nodes = (
"692 362 OFFCURVE",
"812 480 OFFCURVE",
"994 688 CURVE",
"1146 869 OFFCURVE",
"1260 956 OFFCURVE",
"1360 956 CURVE SMOOTH",
"1490 956 OFFCURVE",
"1583 863 OFFCURVE",
"1583 734 CURVE SMOOTH",
"1583 609 OFFCURVE",
"1502 496 OFFCURVE",
"1374 496 CURVE SMOOTH",
"1233 496 OFFCURVE",
"1151 595 OFFCURVE",
"995 776 CURVE SMOOTH",
"832 965 OFFCURVE",
"705 1093 OFFCURVE",
"529 1093 CURVE SMOOTH",
"318 1093 OFFCURVE",
"160 934 OFFCURVE",
"160 724 CURVE SMOOTH",
"160 526 OFFCURVE",
"316 362 OFFCURVE",
"510 362 CURVE SMOOTH"
);
}
);
width = 1894;
}
);
note = infinity;
unicode = 221E;
},
{
glyphname = integral;
layers = (
{
layerId = "2F8B9CD4-7B7F-4ACC-ADF3-B6E0F7033A19";
paths = (
{
closed = 1;
nodes = (
"424 -381 OFFCURVE",
"451 -211 OFFCURVE",
"451 159 CURVE SMOOTH",
"451 749 LINE",
"451 1282 LINE",
"451 1639 OFFCURVE",
"469 1705 OFFCURVE",
"705 1705 CURVE",
"705 1838 LINE",
"332 1838 OFFCURVE",
"305 1668 OFFCURVE",
"305 1298 CURVE SMOOTH",
"305 749 LINE",
"305 175 LINE",
"305 -182 OFFCURVE",
"287 -248 OFFCURVE",
"51 -248 CURVE",
"45 -381 LINE"
);
}
);
width = 778;
}
);
note = integral;
unicode = 222B;
},
{
glyphname = increment;
layers = (
{
layerId = "2F8B9CD4-7B7F-4ACC-ADF3-B6E0F7033A19";
paths = (
{
closed = 1;
nodes = (
"1540 0 LINE",
"1540 141 LINE",
"897 1438 LINE",
"711 1438 LINE",
"62 141 LINE",
"62 0 LINE"
);
},
{
closed = 1;
nodes = (
"800 1289 LINE",
"1348 155 LINE",
"242 155 LINE"
);
}
);
width = 1602;
}
);
note = Delta;
unicode = 2206;
},
{
glyphname = product;
layers = (
{
layerId = "2F8B9CD4-7B7F-4ACC-ADF3-B6E0F7033A19";
paths = (
{
closed = 1;
nodes = (
"507 -139 LINE",
"507 1165 LINE",
"1033 1165 LINE",
"1033 -139 LINE",
"1187 -139 LINE",
"1187 1165 LINE",
"1473 1165 LINE",
"1473 1300 LINE",
"65 1300 LINE",
"65 1165 LINE",
"351 1165 LINE",
"351 -139 LINE"
);
}
);
width = 1537;
}
);
note = product;
unicode = 220F;
},
{
glyphname = summation;
layers = (
{
layerId = "2F8B9CD4-7B7F-4ACC-ADF3-B6E0F7033A19";
paths = (
{
closed = 1;
nodes = (
"1030 -140 LINE",
"1030 -1 LINE",
"294 -1 LINE",
"824 593 LINE",
"294 1168 LINE",
"1030 1168 LINE",
"1030 1301 LINE",
"90 1301 LINE",
"90 1177 LINE",
"637 593 LINE",
"90 -24 LINE",
"90 -140 LINE"
);
}
);
width = 1134;
}
);
note = summation;
unicode = 2211;
},
{
glyphname = radical;
layers = (
{
background = {
paths = (
{
closed = 1;
nodes = (
"1019 1439 LINE",
"735 338 LINE",
"684 115 LINE",
"613 338 LINE",
"343 1034 LINE",
"28 909 LINE",
"63 819 LINE",
"249 889 LINE",
"613 -23 LINE",
"780 -23 LINE",
"1164 1439 LINE"
);
}
);
};
layerId = "2F8B9CD4-7B7F-4ACC-ADF3-B6E0F7033A19";
paths = (
{
closed = 1;
nodes = (
"840 -23 LINE",
"1224 1439 LINE",
"1049 1439 LINE",
"765 338 LINE",
"714 115 LINE",
"643 338 LINE",
"373 1034 LINE",
"28 909 LINE",
"90 752 LINE",
"279 822 LINE",
"613 -23 LINE"
);
}
);
width = 1181;
}
);
note = radical;
unicode = 221A;
},
{
glyphname = micro;
layers = (
{
guideLines = (
{
position = "{469, -215}";
}
);
layerId = "2F8B9CD4-7B7F-4ACC-ADF3-B6E0F7033A19";
paths = (
{
closed = 1;
nodes = (
"665 -23 OFFCURVE",
"790 22 OFFCURVE",
"864 135 CURVE",
"877 0 LINE",
"1005 0 LINE",
"1005 1011 LINE",
"852 1011 LINE",
"852 422 LINE SMOOTH",
"852 210 OFFCURVE",
"772 102 OFFCURVE",
"561 102 CURVE SMOOTH",
"353 102 OFFCURVE",
"319 187 OFFCURVE",
"319 403 CURVE SMOOTH",
"319 1011 LINE",
"165 1011 LINE",
"165 376 LINE SMOOTH",
"165 269 OFFCURVE",
"176 199 OFFCURVE",
"190 152 CURVE SMOOTH",
"229 21 OFFCURVE",
"361 -23 OFFCURVE",
"519 -23 CURVE SMOOTH"
);
},
{
closed = 1;
nodes = (
"319 -265 LINE",
"319 624 LINE",
"165 624 LINE",
"165 -265 LINE"
);
}
);
width = 1164;
}
);
note = mu;
unicode = 00B5;
},
{
glyphname = percent;
layers = (
{
layerId = "2F8B9CD4-7B7F-4ACC-ADF3-B6E0F7033A19";
paths = (
{
closed = 1;
nodes = (
"1092 1349 LINE",
"986 1390 LINE",
"410 -28 LINE",
"517 -70 LINE"
);
},
{
closed = 1;
nodes = (
"467 733 OFFCURVE",
"526 767 OFFCURVE",
"574 826 CURVE SMOOTH",
"621 885 OFFCURVE",
"634 967 OFFCURVE",
"634 1063 CURVE SMOOTH",
"634 1159 OFFCURVE",
"621 1242 OFFCURVE",
"574 1300 CURVE SMOOTH",
"526 1358 OFFCURVE",
"466 1392 OFFCURVE",
"354 1392 CURVE SMOOTH",
"241 1392 OFFCURVE",
"180 1358 OFFCURVE",
"133 1299 CURVE SMOOTH",
"85 1240 OFFCURVE",
"71 1157 OFFCURVE",
"71 1061 CURVE SMOOTH",
"71 965 OFFCURVE",
"85 883 OFFCURVE",
"133 825 CURVE SMOOTH",
"181 767 OFFCURVE",
"242 733 OFFCURVE",
"355 733 CURVE SMOOTH"
);
},
{
closed = 1;
nodes = (
"274 825 OFFCURVE",
"246 854 OFFCURVE",
"224 898 CURVE SMOOTH",
"202 942 OFFCURVE",
"194 1010 OFFCURVE",
"194 1069 CURVE SMOOTH",
"194 1120 OFFCURVE",
"202 1185 OFFCURVE",
"225 1228 CURVE SMOOTH",
"248 1271 OFFCURVE",
"275 1300 OFFCURVE",
"354 1300 CURVE SMOOTH",
"433 1300 OFFCURVE",
"460 1271 OFFCURVE",
"482 1228 CURVE SMOOTH",
"504 1184 OFFCURVE",
"511 1117 OFFCURVE",
"511 1061 CURVE SMOOTH",
"511 1006 OFFCURVE",
"504 941 OFFCURVE",
"481 898 CURVE SMOOTH",
"458 854 OFFCURVE",
"431 825 OFFCURVE",
"354 825 CURVE SMOOTH"
);
},
{
closed = 1;
nodes = (
"1295 52 OFFCURVE",
"1354 86 OFFCURVE",
"1402 145 CURVE SMOOTH",
"1450 204 OFFCURVE",
"1462 286 OFFCURVE",
"1462 382 CURVE SMOOTH",
"1462 478 OFFCURVE",
"1449 561 OFFCURVE",
"1402 619 CURVE SMOOTH",
"1355 677 OFFCURVE",
"1294 711 OFFCURVE",
"1182 711 CURVE SMOOTH",
"1069 711 OFFCURVE",
"1008 677 OFFCURVE",
"961 618 CURVE SMOOTH",
"914 559 OFFCURVE",
"899 476 OFFCURVE",
"899 380 CURVE SMOOTH",
"899 284 OFFCURVE",
"913 202 OFFCURVE",
"961 144 CURVE SMOOTH",
"1009 86 OFFCURVE",
"1070 52 OFFCURVE",
"1183 52 CURVE SMOOTH"
);
},
{
closed = 1;
nodes = (
"1102 144 OFFCURVE",
"1074 173 OFFCURVE",
"1052 217 CURVE SMOOTH",
"1030 261 OFFCURVE",
"1022 329 OFFCURVE",
"1022 388 CURVE SMOOTH",
"1022 439 OFFCURVE",
"1030 504 OFFCURVE",
"1053 547 CURVE SMOOTH",
"1076 590 OFFCURVE",
"1103 619 OFFCURVE",
"1182 619 CURVE SMOOTH",
"1261 619 OFFCURVE",
"1288 590 OFFCURVE",
"1310 547 CURVE SMOOTH",
"1332 503 OFFCURVE",
"1339 436 OFFCURVE",
"1339 380 CURVE SMOOTH",
"1339 325 OFFCURVE",
"1332 260 OFFCURVE",
"1309 217 CURVE SMOOTH",
"1286 173 OFFCURVE",
"1259 144 OFFCURVE",
"1182 144 CURVE SMOOTH"
);
}
);
width = 1524;
}
);
note = percent;
unicode = 0025;
},
{
glyphname = perthousand;
layers = (
{
layerId = "2F8B9CD4-7B7F-4ACC-ADF3-B6E0F7033A19";
paths = (
{
closed = 1;
nodes = (
"1092 1349 LINE",
"986 1390 LINE",
"410 -28 LINE",
"517 -70 LINE"
);
},
{
closed = 1;
nodes = (
"467 733 OFFCURVE",
"526 767 OFFCURVE",
"574 826 CURVE SMOOTH",
"621 885 OFFCURVE",
"634 967 OFFCURVE",
"634 1063 CURVE SMOOTH",
"634 1159 OFFCURVE",
"621 1242 OFFCURVE",
"574 1300 CURVE SMOOTH",
"526 1358 OFFCURVE",
"466 1392 OFFCURVE",
"354 1392 CURVE SMOOTH",
"241 1392 OFFCURVE",
"180 1358 OFFCURVE",
"133 1299 CURVE SMOOTH",
"85 1240 OFFCURVE",
"71 1157 OFFCURVE",
"71 1061 CURVE SMOOTH",
"71 965 OFFCURVE",
"85 883 OFFCURVE",
"133 825 CURVE SMOOTH",
"181 767 OFFCURVE",
"242 733 OFFCURVE",
"355 733 CURVE SMOOTH"
);
},
{
closed = 1;
nodes = (
"274 825 OFFCURVE",
"246 854 OFFCURVE",
"224 898 CURVE SMOOTH",
"202 942 OFFCURVE",
"194 1010 OFFCURVE",
"194 1069 CURVE SMOOTH",
"194 1120 OFFCURVE",
"202 1185 OFFCURVE",
"225 1228 CURVE SMOOTH",
"248 1271 OFFCURVE",
"275 1300 OFFCURVE",
"354 1300 CURVE SMOOTH",
"433 1300 OFFCURVE",
"460 1271 OFFCURVE",
"482 1228 CURVE SMOOTH",
"504 1184 OFFCURVE",
"511 1117 OFFCURVE",
"511 1061 CURVE SMOOTH",
"511 1006 OFFCURVE",
"504 941 OFFCURVE",
"481 898 CURVE SMOOTH",
"458 854 OFFCURVE",
"431 825 OFFCURVE",
"354 825 CURVE SMOOTH"
);
},
{
closed = 1;
nodes = (
"1295 52 OFFCURVE",
"1354 86 OFFCURVE",
"1402 145 CURVE SMOOTH",
"1450 204 OFFCURVE",
"1462 286 OFFCURVE",
"1462 382 CURVE SMOOTH",
"1462 478 OFFCURVE",
"1449 561 OFFCURVE",
"1402 619 CURVE SMOOTH",
"1355 677 OFFCURVE",
"1294 711 OFFCURVE",
"1182 711 CURVE SMOOTH",
"1069 711 OFFCURVE",
"1008 677 OFFCURVE",
"961 618 CURVE SMOOTH",
"914 559 OFFCURVE",
"899 476 OFFCURVE",
"899 380 CURVE SMOOTH",
"899 284 OFFCURVE",
"913 202 OFFCURVE",
"961 144 CURVE SMOOTH",
"1009 86 OFFCURVE",
"1070 52 OFFCURVE",
"1183 52 CURVE SMOOTH"
);
},
{
closed = 1;
nodes = (
"1102 144 OFFCURVE",
"1074 173 OFFCURVE",
"1052 217 CURVE SMOOTH",
"1030 261 OFFCURVE",
"1022 329 OFFCURVE",
"1022 388 CURVE SMOOTH",
"1022 439 OFFCURVE",
"1030 504 OFFCURVE",
"1053 547 CURVE SMOOTH",
"1076 590 OFFCURVE",
"1103 619 OFFCURVE",
"1182 619 CURVE SMOOTH",
"1261 619 OFFCURVE",
"1288 590 OFFCURVE",
"1310 547 CURVE SMOOTH",
"1332 503 OFFCURVE",
"1339 436 OFFCURVE",
"1339 380 CURVE SMOOTH",
"1339 325 OFFCURVE",
"1332 260 OFFCURVE",
"1309 217 CURVE SMOOTH",
"1286 173 OFFCURVE",
"1259 144 OFFCURVE",
"1182 144 CURVE SMOOTH"
);
},
{
closed = 1;
nodes = (
"1986 52 OFFCURVE",
"2045 86 OFFCURVE",
"2093 145 CURVE SMOOTH",
"2141 204 OFFCURVE",
"2153 286 OFFCURVE",
"2153 382 CURVE SMOOTH",
"2153 478 OFFCURVE",
"2140 561 OFFCURVE",
"2093 619 CURVE SMOOTH",
"2046 677 OFFCURVE",
"1985 711 OFFCURVE",
"1873 711 CURVE SMOOTH",
"1760 711 OFFCURVE",
"1699 677 OFFCURVE",
"1652 618 CURVE SMOOTH",
"1605 559 OFFCURVE",
"1590 476 OFFCURVE",
"1590 380 CURVE SMOOTH",
"1590 284 OFFCURVE",
"1604 202 OFFCURVE",
"1652 144 CURVE SMOOTH",
"1700 86 OFFCURVE",
"1761 52 OFFCURVE",
"1874 52 CURVE SMOOTH"
);
},
{
closed = 1;
nodes = (
"1793 144 OFFCURVE",
"1765 173 OFFCURVE",
"1743 217 CURVE SMOOTH",
"1721 261 OFFCURVE",
"1713 329 OFFCURVE",
"1713 388 CURVE SMOOTH",
"1713 439 OFFCURVE",
"1721 504 OFFCURVE",
"1744 547 CURVE SMOOTH",
"1767 590 OFFCURVE",
"1794 619 OFFCURVE",
"1873 619 CURVE SMOOTH",
"1952 619 OFFCURVE",
"1979 590 OFFCURVE",
"2001 547 CURVE SMOOTH",
"2023 503 OFFCURVE",
"2030 436 OFFCURVE",
"2030 380 CURVE SMOOTH",
"2030 325 OFFCURVE",
"2023 260 OFFCURVE",
"2000 217 CURVE SMOOTH",
"1977 173 OFFCURVE",
"1950 144 OFFCURVE",
"1873 144 CURVE SMOOTH"
);
}
);
width = 2205;
}
);
note = perthousand;
unicode = 2030;
},
{
glyphname = lozenge;
layers = (
{
layerId = "2F8B9CD4-7B7F-4ACC-ADF3-B6E0F7033A19";
paths = (
{
closed = 1;
nodes = (
"564 -113 LINE",
"689 -113 LINE",
"1189 750 LINE",
"687 1614 LINE",
"562 1614 LINE",
"60 750 LINE",
"560 -113 LINE"
);
},
{
closed = 1;
nodes = (
"578 104 LINE",
"203 754 LINE",
"570 1391 LINE",
"626 1491 LINE",
"679 1391 LINE",
"1046 754 LINE",
"671 104 LINE",
"625 13 LINE"
);
}
);
width = 1249;
}
);
note = lozenge;
unicode = 25CA;
},
{
glyphname = at;
layers = (
{
layerId = "2F8B9CD4-7B7F-4ACC-ADF3-B6E0F7033A19";
paths = (
{
closed = 1;
nodes = (
"983 -179 OFFCURVE",
"1120 -142 OFFCURVE",
"1241 -93 CURVE",
"1186 27 LINE",
"1090 -8 OFFCURVE",
"978 -45 OFFCURVE",
"855 -45 CURVE SMOOTH",
"471 -45 OFFCURVE",
"231 176 OFFCURVE",
"231 550 CURVE SMOOTH",
"231 686 OFFCURVE",
"269 809 OFFCURVE",
"334 911 CURVE SMOOTH",
"461 1114 OFFCURVE",
"693 1246 OFFCURVE",
"934 1246 CURVE SMOOTH",
"1315 1246 OFFCURVE",
"1544 1044 OFFCURVE",
"1544 705 CURVE SMOOTH",
"1544 506 OFFCURVE",
"1468 289 OFFCURVE",
"1313 289 CURVE SMOOTH",
"1179 289 OFFCURVE",
"1160 395 OFFCURVE",
"1185 552 CURVE SMOOTH",
"1256 989 LINE",
"1230 993 OFFCURVE",
"1198 996 OFFCURVE",
"1179 996 CURVE SMOOTH",
"1156 996 OFFCURVE",
"1137 983 OFFCURVE",
"1114 932 CURVE",
"1050 992 OFFCURVE",
"984 1028 OFFCURVE",
"891 1028 CURVE SMOOTH",
"698 1028 OFFCURVE",
"520 804 OFFCURVE",
"502 542 CURVE SMOOTH",
"487 322 OFFCURVE",
"571 153 OFFCURVE",
"767 153 CURVE SMOOTH",
"918 153 OFFCURVE",
"1014 241 OFFCURVE",
"1070 396 CURVE",
"1070 256 OFFCURVE",
"1137 161 OFFCURVE",
"1292 161 CURVE SMOOTH",
"1407 161 OFFCURVE",
"1509 231 OFFCURVE",
"1581 329 CURVE SMOOTH",
"1700 491 OFFCURVE",
"1710 878 OFFCURVE",
"1565 1086 CURVE SMOOTH",
"1432 1278 OFFCURVE",
"1189 1379 OFFCURVE",
"944 1379 CURVE SMOOTH",
"650 1379 OFFCURVE",
"368 1228 OFFCURVE",
"212 980 CURVE SMOOTH",
"133 855 OFFCURVE",
"86 705 OFFCURVE",
"86 536 CURVE SMOOTH",
"86 244 OFFCURVE",
"226 9 OFFCURVE",
"486 -106 CURVE SMOOTH",
"597 -155 OFFCURVE",
"718 -179 OFFCURVE",
"834 -179 CURVE SMOOTH"
);
},
{
closed = 1;
nodes = (
"747 281 OFFCURVE",
"706 306 OFFCURVE",
"679 349 CURVE SMOOTH",
"614 453 OFFCURVE",
"656 661 OFFCURVE",
"727 777 CURVE SMOOTH",
"788 877 OFFCURVE",
"891 902 OFFCURVE",
"949 891 CURVE SMOOTH",
"1010 879 OFFCURVE",
"1042 856 OFFCURVE",
"1082 824 CURVE",
"1014 520 OFFCURVE",
"951 281 OFFCURVE",
"804 281 CURVE SMOOTH"
);
}
);
width = 1753;
}
);
note = at;
unicode = 0040;
},
{
glyphname = ampersand;
layers = (
{
background = {
paths = (
{
closed = 1;
nodes = (
"970 129 OFFCURVE",
"847 124 OFFCURVE",
"630 124 CURVE SMOOTH",
"344 124 OFFCURVE",
"258 155 OFFCURVE",
"258 438 CURVE SMOOTH",
"258 606 OFFCURVE",
"294 694 OFFCURVE",
"454 753 CURVE",
"996 295 LINE"
);
},
{
closed = 1;
nodes = (
"1003 1416 OFFCURVE",
"875 1472 OFFCURVE",
"630 1472 CURVE SMOOTH",
"364 1472 OFFCURVE",
"238 1355 OFFCURVE",
"238 1131 CURVE SMOOTH",
"238 1024 OFFCURVE",
"276 959 OFFCURVE",
"360 865 CURVE",
"151 765 OFFCURVE",
"88 665 OFFCURVE",
"88 416 CURVE SMOOTH",
"88 58 OFFCURVE",
"246 -21 OFFCURVE",
"620 -21 CURVE SMOOTH",
"884 -21 OFFCURVE",
"1033 16 OFFCURVE",
"1111 198 CURVE",
"1337 3 LINE",
"1422 113 LINE",
"1150 347 LINE",
"1161 411 OFFCURVE",
"1163 579 OFFCURVE",
"1163 732 CURVE",
"1028 732 LINE",
"1028 615 OFFCURVE",
"1034 517 OFFCURVE",
"1026 446 CURVE",
"504 911 LINE SMOOTH",
"419 987 OFFCURVE",
"392 1032 OFFCURVE",
"392 1165 CURVE SMOOTH",
"392 1294 OFFCURVE",
"495 1331 OFFCURVE",
"634 1331 CURVE SMOOTH",
"797 1331 OFFCURVE",
"866 1308 OFFCURVE",
"866 1126 CURVE",
"1003 1126 LINE"
);
}
);
};
layerId = "2F8B9CD4-7B7F-4ACC-ADF3-B6E0F7033A19";
paths = (
{
closed = 1;
nodes = (
"1426 128 LINE",
"545 878 LINE SMOOTH",
"441 967 OFFCURVE",
"395 1031 OFFCURVE",
"395 1145 CURVE SMOOTH",
"395 1261 OFFCURVE",
"479 1331 OFFCURVE",
"634 1331 CURVE SMOOTH",
"801 1331 OFFCURVE",
"866 1274 OFFCURVE",
"866 1126 CURVE",
"1013 1126 LINE",
"1013 1375 OFFCURVE",
"909 1472 OFFCURVE",
"630 1472 CURVE SMOOTH",
"379 1472 OFFCURVE",
"238 1343 OFFCURVE",
"238 1141 CURVE SMOOTH",
"238 993 OFFCURVE",
"298 887 OFFCURVE",
"427 778 CURVE SMOOTH",
"1337 3 LINE"
);
},
{
closed = 1;
nodes = (
"954 -21 OFFCURVE",
"1182 99 OFFCURVE",
"1182 528 CURVE SMOOTH",
"1182 732 LINE",
"1028 732 LINE",
"1028 528 LINE SMOOTH",
"1028 215 OFFCURVE",
"848 124 OFFCURVE",
"610 124 CURVE SMOOTH",
"382 124 OFFCURVE",
"258 187 OFFCURVE",
"258 438 CURVE SMOOTH",
"258 660 OFFCURVE",
"329 729 OFFCURVE",
"528 796 CURVE",
"399 867 LINE",
"175 776 OFFCURVE",
"88 655 OFFCURVE",
"88 438 CURVE SMOOTH",
"88 89 OFFCURVE",
"266 -21 OFFCURVE",
"600 -21 CURVE SMOOTH"
);
}
);
width = 1449;
}
);
note = ampersand;
unicode = 0026;
},
{
glyphname = paragraph;
layers = (
{
layerId = "2F8B9CD4-7B7F-4ACC-ADF3-B6E0F7033A19";
paths = (
{
closed = 1;
nodes = (
"534 -235 LINE",
"534 1300 LINE",
"798 1300 LINE",
"798 -235 LINE",
"938 -235 LINE",
"938 1300 LINE",
"1100 1300 LINE",
"1100 1440 LINE",
"434 1440 LINE SMOOTH",
"319 1440 OFFCURVE",
"223 1406 OFFCURVE",
"155 1347 CURVE SMOOTH",
"87 1288 OFFCURVE",
"47 1204 OFFCURVE",
"47 1103 CURVE SMOOTH",
"47 1008 OFFCURVE",
"82 930 OFFCURVE",
"143 872 CURVE SMOOTH",
"204 814 OFFCURVE",
"291 777 OFFCURVE",
"395 769 CURVE",
"395 -235 LINE"
);
}
);
width = 1166;
}
);
note = paragraph;
unicode = 00B6;
},
{
glyphname = section;
layers = (
{
background = {
paths = (
{
closed = 1;
nodes = (
"72 17 OFFCURVE",
"86 -74 OFFCURVE",
"168 -134 CURVE SMOOTH",
"245 -190 OFFCURVE",
"326 -212 OFFCURVE",
"497 -212 CURVE SMOOTH",
"755 -212 OFFCURVE",
"891 -123 OFFCURVE",
"891 128 CURVE SMOOTH",
"891 229.262 OFFCURVE",
"868 321 OFFCURVE",
"773 380 CURVE",
"840 413 OFFCURVE",
"931 494 OFFCURVE",
"931 628 CURVE SMOOTH",
"931 845 OFFCURVE",
"837 927 OFFCURVE",
"528 972 CURVE SMOOTH",
"297 1006 OFFCURVE",
"253 1044 OFFCURVE",
"253 1184 CURVE SMOOTH",
"253 1345 OFFCURVE",
"373 1361 OFFCURVE",
"517 1361 CURVE SMOOTH",
"638 1361 OFFCURVE",
"711 1355 OFFCURVE",
"748 1300 CURVE SMOOTH",
"769 1269 OFFCURVE",
"773 1231 OFFCURVE",
"773 1192 CURVE",
"899 1192 LINE",
"899 1251 OFFCURVE",
"897 1296 OFFCURVE",
"871 1342 CURVE SMOOTH",
"816 1439 OFFCURVE",
"706 1481 OFFCURVE",
"528 1481 CURVE SMOOTH",
"288 1481 OFFCURVE",
"115 1418 OFFCURVE",
"115 1181 CURVE SMOOTH",
"115 1063.821 OFFCURVE",
"173 977 OFFCURVE",
"265 933 CURVE",
"181 904 OFFCURVE",
"75 811.893 OFFCURVE",
"75 681 CURVE SMOOTH",
"75 476 OFFCURVE",
"157 393 OFFCURVE",
"434 350 CURVE SMOOTH",
"688 311 OFFCURVE",
"753 272 OFFCURVE",
"753 122 CURVE SMOOTH",
"753 -42 OFFCURVE",
"667 -92 OFFCURVE",
"502 -92 CURVE SMOOTH",
"386 -92 OFFCURVE",
"316 -92 OFFCURVE",
"256 -46 CURVE SMOOTH",
"214 -14 OFFCURVE",
"202 39 OFFCURVE",
"202 102 CURVE",
"72 102 LINE"
);
},
{
closed = 1;
nodes = (
"213 816 OFFCURVE",
"310 877 OFFCURVE",
"474 850 CURVE SMOOTH",
"728 808 OFFCURVE",
"809 770 OFFCURVE",
"793 622 CURVE SMOOTH",
"773 433 OFFCURVE",
"671 441 OFFCURVE",
"488 472 CURVE SMOOTH",
"257 511 OFFCURVE",
"213 544 OFFCURVE",
"213 684 CURVE SMOOTH"
);
}
);
};
layerId = "2F8B9CD4-7B7F-4ACC-ADF3-B6E0F7033A19";
paths = (
{
closed = 1;
nodes = (
"831 365 OFFCURVE",
"931 470 OFFCURVE",
"931 638 CURVE SMOOTH",
"931 836 OFFCURVE",
"818 930 OFFCURVE",
"568 968 CURVE SMOOTH",
"319 1006 OFFCURVE",
"253 1056 OFFCURVE",
"253 1184 CURVE SMOOTH",
"253 1304 OFFCURVE",
"337 1361 OFFCURVE",
"517 1361 CURVE SMOOTH",
"701 1361 OFFCURVE",
"773 1314 OFFCURVE",
"773 1192 CURVE",
"899 1192 LINE",
"899 1400 OFFCURVE",
"792 1481 OFFCURVE",
"518 1481 CURVE SMOOTH",
"244 1481 OFFCURVE",
"115 1385 OFFCURVE",
"115 1181 CURVE SMOOTH",
"115 990 OFFCURVE",
"216 897 OFFCURVE",
"474 852 CURVE SMOOTH",
"728 808 OFFCURVE",
"792 762 OFFCURVE",
"792 622 CURVE SMOOTH",
"792 516 OFFCURVE",
"719 457 OFFCURVE",
"565 438 CURVE",
"632 346 LINE"
);
},
{
closed = 1;
nodes = (
"762 -174 OFFCURVE",
"891 -78 OFFCURVE",
"891 126 CURVE SMOOTH",
"891 317 OFFCURVE",
"790 410 OFFCURVE",
"532 457 CURVE SMOOTH",
"279 503 OFFCURVE",
"214 545 OFFCURVE",
"214 685 CURVE SMOOTH",
"214 791 OFFCURVE",
"287 850 OFFCURVE",
"441 869 CURVE",
"374 961 LINE",
"175 942 OFFCURVE",
"75 837 OFFCURVE",
"75 669 CURVE SMOOTH",
"75 471 OFFCURVE",
"188 377 OFFCURVE",
"438 339 CURVE SMOOTH",
"687 301 OFFCURVE",
"753 251 OFFCURVE",
"753 123 CURVE SMOOTH",
"753 3 OFFCURVE",
"669 -54 OFFCURVE",
"489 -54 CURVE SMOOTH",
"305 -54 OFFCURVE",
"233 -7 OFFCURVE",
"233 115 CURVE",
"107 115 LINE",
"107 -93 OFFCURVE",
"214 -174 OFFCURVE",
"488 -174 CURVE SMOOTH"
);
}
);
width = 1016;
}
);
note = section;
unicode = 00A7;
},
